<svg width="24" height="24" viewBox="0 0 24 24" fill="none" xmlns="http://www.w3.org/2000/svg">
<path fill-rule="evenodd" clip-rule="evenodd" d="M10 4C10.2761 4 10.5 4.22386 10.5 4.5L10.5 6.5H11.5L11.5 4.5C11.5 4.22386 11.7239 4 12 4C12.2761 4 12.5 4.22386 12.5 4.5L12.5 6.5H13.6923C15.1734 6.5 16.5 7.55451 16.5 9C16.5 9.74644 16.1462 10.3886 15.6001 10.8352C16.7325 11.4009 17.5 12.6195 17.5 14C17.5 15.904 16.0401 17.5 14.1765 17.5H12.5L12.5 19.5C12.5 19.7761 12.2761 20 12 20C11.7239 20 11.5 19.7761 11.5 19.5L11.5 17.5H10.5L10.5 19.5C10.5 19.7761 10.2761 20 10 20C9.72386 20 9.5 19.7761 9.5 19.5L9.5 17.5H9C8.72386 17.5 8.5 17.2761 8.5 17C8.5 16.7239 8.72386 16.5 9 16.5H9.5L9.5 7.5H9C8.72386 7.5 8.5 7.27614 8.5 7C8.5 6.72386 8.72386 6.5 9 6.5H9.5L9.5 4.5C9.5 4.22386 9.72386 4 10 4ZM10.5 7.5L10.5 10.5H13.6923C14.7602 10.5 15.5 9.76365 15.5 9C15.5 8.23635 14.7602 7.5 13.6923 7.5H10.5ZM10.5 11.5L10.5 16.5H14.1765C15.4316 16.5 16.5 15.4097 16.5 14C16.5 12.5903 15.4316 11.5 14.1765 11.5H10.5Z" fill="#47495F"/>
</svg>
