<svg width="24" height="24" viewBox="0 0 24 24" fill="none" xmlns="http://www.w3.org/2000/svg">
<path fill-rule="evenodd" clip-rule="evenodd" d="M5.58124 10.2732C5.4304 10.0418 5.49563 9.73206 5.72694 9.58122C9.30586 7.24736 12.9153 8.60827 14.2912 9.59352C14.5157 9.7543 14.5673 10.0666 14.4066 10.2911C14.2458 10.5157 13.9335 10.5673 13.709 10.4066C12.5428 9.57151 9.39357 8.384 6.27317 10.4189C6.04187 10.5697 5.73208 10.5045 5.58124 10.2732ZM14.4066 8.54023C14.2459 8.76478 13.9336 8.81652 13.709 8.6558C12.8935 8.07206 10.4443 7.0131 7.51853 7.75428C7.25085 7.82209 6.97887 7.66006 6.91106 7.39237C6.84325 7.12469 7.00528 6.85271 7.27296 6.7849C10.5344 5.95868 13.2818 7.1202 14.2911 7.84263C14.5156 8.00336 14.5674 8.31568 14.4066 8.54023Z" fill="#47495F"/>
<path fill-rule="evenodd" clip-rule="evenodd" d="M14.0053 17.8191C13.8829 18.0666 13.583 18.1681 13.3355 18.0457C9.64587 16.2214 9.07192 12.563 9.24829 10.9413C9.27815 10.6668 9.5249 10.4684 9.79942 10.4983C10.0739 10.5281 10.2723 10.7749 10.2424 11.0494C10.0942 12.4122 10.5905 15.5729 13.7787 17.1493C14.0262 17.2717 14.1277 17.5715 14.0053 17.8191ZM8.32218 11.3511C8.59671 11.3809 8.7951 11.6276 8.76531 11.9021C8.66201 12.8539 8.93425 15.3803 10.945 17.4251C11.1386 17.622 11.1359 17.9385 10.939 18.1322C10.7422 18.3258 10.4256 18.3231 10.232 18.1262C7.97227 15.8283 7.64194 12.9847 7.77115 11.7942C7.80094 11.5197 8.04765 11.3213 8.32218 11.3511Z" fill="#47495F"/>
<path fill-rule="evenodd" clip-rule="evenodd" d="M16.318 6.50107C16.5936 6.4833 16.8314 6.69228 16.8492 6.96785C17.1141 11.0753 14.2328 13.4016 12.7402 14.0597C12.4875 14.1711 12.1924 14.0565 12.081 13.8039C11.9696 13.5512 12.0841 13.256 12.3368 13.1446C13.5911 12.5916 16.0802 10.5815 15.8513 7.03221C15.8335 6.75664 16.0425 6.51884 16.318 6.50107ZM13.5582 14.6568C13.4467 14.4041 13.5612 14.109 13.8138 13.9975C14.6897 13.6111 16.7416 12.1121 17.507 9.34839C17.5807 9.08227 17.8562 8.92628 18.1223 8.99998C18.3884 9.07369 18.5444 9.34918 18.4707 9.6153C17.6105 12.7212 15.313 14.4291 14.2174 14.9124C13.9648 15.0239 13.6696 14.9094 13.5582 14.6568Z" fill="#47495F"/>
</svg>
