<svg width="24" height="24" viewBox="0 0 24 24" fill="none" xmlns="http://www.w3.org/2000/svg">
<path d="M12.6089 6.12601C12.6785 5.85878 12.5183 5.58573 12.251 5.51614C11.9838 5.44655 11.7108 5.60676 11.6412 5.87399L10.0842 11.8528L7.85646 12.5211C7.59196 12.6005 7.44187 12.8792 7.52122 13.1437C7.60057 13.4082 7.87931 13.5583 8.14381 13.479L9.78926 12.9853L8.51617 17.874C8.47715 18.0238 8.50974 18.1833 8.60443 18.3058C8.69911 18.4283 8.8452 18.5 9.00003 18.5H16C16.2762 18.5 16.5 18.2761 16.5 18C16.5 17.7239 16.2762 17.5 16 17.5H9.64691L10.9102 12.6491L13.1438 11.979C13.4083 11.8996 13.5584 11.6209 13.479 11.3564C13.3997 11.0919 13.121 10.9418 12.8565 11.0211L11.2051 11.5165L12.6089 6.12601Z" fill="#47495F"/>
</svg>
