<svg width="24" height="24" viewBox="0 0 24 24" fill="none" xmlns="http://www.w3.org/2000/svg">
<path fill-rule="evenodd" clip-rule="evenodd" d="M6.84748 7.52389C7.05447 7.45755 7.2806 7.53255 7.40694 7.70942L12.0001 14.1398L16.5932 7.70942C16.7195 7.53255 16.9457 7.45755 17.1527 7.52389C17.3596 7.59022 17.5001 7.78268 17.5001 8.00004V15.5H20.0001C20.2762 15.5 20.5001 15.7239 20.5001 16C20.5001 16.2762 20.2762 16.5 20.0001 16.5H17.0001C16.7239 16.5 16.5001 16.2762 16.5001 16V9.56027L12.4069 15.2907C12.3131 15.4221 12.1615 15.5 12.0001 15.5C11.8386 15.5 11.6871 15.4221 11.5932 15.2907L7.50007 9.56027V16C7.50007 16.2762 7.27621 16.5 7.00007 16.5H4C3.72386 16.5 3.5 16.2762 3.5 16C3.5 15.7239 3.72386 15.5 4 15.5H6.50007V8.00004C6.50007 7.78268 6.64049 7.59022 6.84748 7.52389Z" fill="#47495F"/>
</svg>
