<svg width="24" height="24" viewBox="0 0 24 24" fill="none" xmlns="http://www.w3.org/2000/svg">
<path fill-rule="evenodd" clip-rule="evenodd" d="M12 5.5C8.00286 5.5 5.47367 7.20661 4.68305 7.85469C4.5362 7.97506 4.4702 8.16822 4.5127 8.35329C5.946 14.5948 9.88777 18.32 11.7435 19.4292C11.9108 19.5292 12.1211 19.5228 12.282 19.4129C14.4668 17.9205 16.1171 15.759 17.2912 13.688C18.4661 11.6156 19.1832 9.60009 19.4858 8.3599C19.5314 8.17305 19.4657 7.97662 19.317 7.85469C18.5264 7.20661 15.9972 5.5 12 5.5ZM6.30407 10.7866C6.01851 10.0535 5.76659 9.27099 5.56117 8.43931C6.45249 7.78541 8.66095 6.5 12 6.5C12.4925 6.5 12.9604 6.52796 13.4031 6.57774C13.3415 6.60554 13.2814 6.63464 13.2229 6.665C12.5168 7.03132 12.0671 7.56459 11.7955 8.15687C11.3245 9.18426 11.3982 10.3818 11.4767 11.1647C11.021 11.5536 10.3002 11.9499 9.46479 12.0513C8.54379 12.1631 7.44595 11.9224 6.35355 10.8301C6.33781 10.8143 6.32127 10.7998 6.30407 10.7866ZM7.13641 12.6246C8.70437 15.6418 10.7587 17.5743 11.9857 18.3985C12.9262 17.7159 13.7632 16.8937 14.5 16.0047C14.4998 15.9798 14.5014 15.9547 14.505 15.9293C14.7385 14.2947 14.3429 13.3833 13.8249 12.8376C13.3531 12.3406 12.7208 12.0814 12.1371 11.9156C11.5498 12.4201 10.6464 12.9153 9.58526 13.044C8.81502 13.1375 7.97677 13.0356 7.13641 12.6246ZM15.5574 14.5902C15.869 14.1292 16.1569 13.6612 16.4213 13.1948C17.4539 11.3734 18.1133 9.60442 18.4333 8.4352C17.9635 8.09132 17.1326 7.57531 15.9672 7.16259C14.9076 7.1259 14.1814 7.29432 13.6834 7.55267C13.1916 7.80777 12.8913 8.16625 12.7045 8.57363C12.3656 9.31301 12.3937 10.2173 12.463 10.9685C13.1109 11.157 13.9181 11.4832 14.5502 12.1492C15.0977 12.726 15.4769 13.5163 15.5574 14.5902Z" fill="#47495F"/>
</svg>
