<svg width="24" height="24" viewBox="0 0 24 24" fill="none" xmlns="http://www.w3.org/2000/svg">
<path fill-rule="evenodd" clip-rule="evenodd" d="M14.4321 5.5348C14.5756 5.47829 14.737 5.49111 14.8698 5.56954L18.2544 7.56954C18.4188 7.66672 18.5136 7.84913 18.4984 8.03957C18.4833 8.23001 18.361 8.39519 18.1833 8.46521L10.5679 11.4652C10.4245 11.5217 10.263 11.5089 10.1303 11.4305L6.74564 9.43046C6.58117 9.33328 6.48646 9.15087 6.50157 8.96043C6.51669 8.77 6.639 8.60482 6.81674 8.5348L14.4321 5.5348ZM8.13538 9.09013L10.4287 10.4453L16.8646 7.90987L14.5714 6.55475L8.13538 9.09013Z" fill="#47495F"/>
<path fill-rule="evenodd" clip-rule="evenodd" d="M6.75165 10.566C6.90728 10.477 7.09869 10.4781 7.25329 10.5689L10.2533 12.3315C10.4061 12.4213 10.5 12.5853 10.5 12.7626V19.7626C10.5 19.9419 10.404 20.1075 10.2484 20.1966C10.0927 20.2856 9.90132 20.2845 9.74672 20.1937L6.74672 18.4311C6.59387 18.3413 6.50001 18.1773 6.50001 18V11C6.50001 10.8207 6.59603 10.6551 6.75165 10.566ZM7.50001 11.8737V17.7139L9.50001 18.8889V13.0487L7.50001 11.8737Z" fill="#47495F"/>
<path fill-rule="evenodd" clip-rule="evenodd" d="M18.2781 9.34706C18.4168 9.43987 18.5 9.59573 18.5 9.76259V16.7626C18.5 16.9419 18.404 17.1075 18.2484 17.1965C18.0927 17.2856 17.9013 17.2845 17.7467 17.1937L14.7467 15.4311C14.5939 15.3413 14.5 15.1773 14.5 15V11C14.5 10.7975 14.6221 10.615 14.8094 10.5378L17.8094 9.30037C17.9636 9.23674 18.1394 9.25426 18.2781 9.34706ZM15.5 11.3346V14.7139L17.5 15.8889V10.5097L15.5 11.3346Z" fill="#47495F"/>
</svg>
