<svg width="24" height="24" viewBox="0 0 24 24" fill="none" xmlns="http://www.w3.org/2000/svg">
<path fill-rule="evenodd" clip-rule="evenodd" d="M5.6159 6.67992C5.79268 6.46778 6.10797 6.43912 6.3201 6.6159L9.75937 9.48196C11.0573 10.5636 12.9427 10.5636 14.2407 9.48195L17.6799 6.6159C17.8921 6.43912 18.2073 6.46778 18.3841 6.67992C18.5609 6.89206 18.5322 7.20734 18.3201 7.38412L14.8808 10.2502C13.212 11.6408 10.788 11.6409 9.11919 10.2502L5.67992 7.38412C5.46778 7.20734 5.43912 6.89206 5.6159 6.67992Z" fill="#47495F"/>
<path fill-rule="evenodd" clip-rule="evenodd" d="M5.6159 17.3201C5.79268 17.5322 6.10797 17.5609 6.3201 17.3841L9.75937 14.5181C11.0573 13.4364 12.9427 13.4364 14.2407 14.5181L17.6799 17.3841C17.8921 17.5609 18.2073 17.5322 18.3841 17.3201C18.5609 17.108 18.5322 16.7927 18.3201 16.6159L14.8808 13.7499C13.212 12.3592 10.788 12.3592 9.11919 13.7498L5.67992 16.6159C5.46778 16.7927 5.43912 17.108 5.6159 17.3201Z" fill="#47495F"/>
</svg>
