<svg width="24" height="24" viewBox="0 0 24 24" fill="none" xmlns="http://www.w3.org/2000/svg">
<path fill-rule="evenodd" clip-rule="evenodd" d="M11.5 9.50484V7H7.5C7.22386 7 7 6.77614 7 6.5C7 6.22386 7.22386 6 7.5 6H16.5C16.7761 6 17 6.22386 17 6.5C17 6.77614 16.7761 7 16.5 7H12.5V9.50484C13.7069 9.52833 14.8013 9.63615 15.6336 9.8026C16.1024 9.89636 16.5142 10.0137 16.8208 10.1587C16.9729 10.2306 17.1259 10.3217 17.2479 10.4409C17.3707 10.5609 17.5 10.7491 17.5 11C17.5 11.2509 17.3707 11.4391 17.2479 11.5591C17.1259 11.6783 16.9729 11.7694 16.8208 11.8413C16.5142 11.9863 16.1024 12.1036 15.6336 12.1974C14.8013 12.3638 13.7069 12.4717 12.5 12.4952L12.5 18C12.5 18.2761 12.2761 18.5 12 18.5C11.7239 18.5 11.5 18.2761 11.5 18L11.5 12.4952C10.2931 12.4717 9.19867 12.3638 8.36641 12.1974C7.89761 12.1036 7.48583 11.9863 7.17919 11.8413C7.02714 11.7694 6.87407 11.6783 6.7521 11.5591C6.62929 11.4391 6.5 11.2509 6.5 11C6.5 10.7491 6.62929 10.5609 6.7521 10.4409C6.87407 10.3217 7.02714 10.2306 7.17919 10.1587C7.48583 10.0137 7.89761 9.89636 8.36641 9.8026C9.19867 9.63615 10.2931 9.52833 11.5 9.50484ZM12 11.5C13.3581 11.5 14.5737 11.3896 15.4375 11.2168C15.7774 11.1488 16.047 11.0742 16.2438 11C16.047 10.9258 15.7774 10.8512 15.4375 10.7832C14.6812 10.6319 13.6552 10.5284 12.5 10.505V10.8112C12.5 11.0873 12.2761 11.3112 12 11.3112C11.7239 11.3112 11.5 11.0873 11.5 10.8112V10.505C10.3448 10.5284 9.31884 10.6319 8.56252 10.7832C8.22265 10.8512 7.95299 10.9258 7.75616 11C7.95299 11.0742 8.22265 11.1488 8.56252 11.2168C9.42634 11.3896 10.6419 11.5 12 11.5Z" fill="#47495F"/>
</svg>
