<svg width="24" height="24" viewBox="0 0 24 24" fill="none" xmlns="http://www.w3.org/2000/svg">
<path fill-rule="evenodd" clip-rule="evenodd" d="M4.6109 4.68601C4.72546 4.54406 4.90822 4.47575 5.0878 4.50778L16.575 6.55656C16.6715 6.57377 16.7608 6.61896 16.8318 6.68651L19.3446 9.07676C19.5379 9.26064 19.5528 9.5639 19.3784 9.76583L11.122 19.3268C11.0084 19.4583 10.8347 19.5214 10.6632 19.4935C10.4917 19.4656 10.347 19.3506 10.281 19.1898L4.53742 5.18979C4.46819 5.02103 4.49635 4.82796 4.6109 4.68601ZM6.19646 6.59904L10.4853 17.053L11.2894 10.6786L6.19646 6.59904ZM12.2688 10.9045L11.4468 17.4207L17.7491 10.1226L12.2688 10.9045ZM17.9075 9.08986L13.7298 9.68594L16.4453 7.69901L17.9075 9.08986ZM15.2483 7.33573L6.84451 5.83688L11.8343 9.83381L15.2483 7.33573Z" fill="#47495F"/>
</svg>
