<svg width="24" height="24" viewBox="0 0 24 24" fill="none" xmlns="http://www.w3.org/2000/svg">
<path d="M12 3.5C12.2761 3.5 12.5 3.72386 12.5 4V6.5H16C16.1922 6.5 16.3674 6.61017 16.4507 6.78341C16.5339 6.95664 16.5105 7.16226 16.3904 7.31235L9.04032 16.5H16C16.2761 16.5 16.5 16.7239 16.5 17C16.5 17.2761 16.2761 17.5 16 17.5H12.5V20C12.5 20.2761 12.2761 20.5 12 20.5C11.7239 20.5 11.5 20.2761 11.5 20V17.5H8C7.8078 17.5 7.63261 17.3898 7.54935 17.2166C7.46609 17.0434 7.4895 16.8377 7.60957 16.6877L14.9597 7.5H8C7.72386 7.5 7.5 7.27614 7.5 7C7.5 6.72386 7.72386 6.5 8 6.5H11.5V4C11.5 3.72386 11.7239 3.5 12 3.5Z" fill="#47495F"/>
</svg>
