<svg width="24" height="24" viewBox="0 0 24 24" fill="none" xmlns="http://www.w3.org/2000/svg">
<path fill-rule="evenodd" clip-rule="evenodd" d="M3.49793 11C3.49793 10.1716 4.16951 9.5 4.99793 9.5H13.8494C14.6779 9.5 15.3494 10.1716 15.3494 11V16C15.3494 16.8284 14.6779 17.5 13.8494 17.5H7.26364C7.16386 17.5 7.06636 17.5299 6.98368 17.5857L4.27776 19.4143C4.1245 19.5178 3.9266 19.5283 3.76325 19.4416C3.5999 19.3548 3.49779 19.1849 3.4978 19L3.49793 11ZM4.99793 10.5C4.72179 10.5 4.49793 10.7239 4.49793 11L4.49784 18.0586L6.42378 16.7572C6.6718 16.5896 6.96429 16.5 7.26364 16.5H13.8494C14.1256 16.5 14.3494 16.2761 14.3494 16V11C14.3494 10.7239 14.1256 10.5 13.8494 10.5H4.99793Z" fill="#47495F"/>
<path fill-rule="evenodd" clip-rule="evenodd" d="M5.49994 6C5.49994 4.61929 6.61923 3.5 7.99994 3.5C9.20942 3.5 10.2183 4.35888 10.4499 5.5H17.9999C18.8284 5.5 19.4999 6.17157 19.4999 7V15.55C20.6411 15.7816 21.4999 16.7905 21.4999 18C21.4999 19.3807 20.3807 20.5 18.9999 20.5C17.6192 20.5 16.4999 19.3807 16.4999 18C16.4999 16.7905 17.3588 15.7816 18.4999 15.55V7C18.4999 6.72386 18.2761 6.5 17.9999 6.5H10.4499C10.2183 7.64112 9.20942 8.5 7.99994 8.5C6.61923 8.5 5.49994 7.38071 5.49994 6ZM7.99994 4.5C7.17152 4.5 6.49994 5.17157 6.49994 6C6.49994 6.82843 7.17152 7.5 7.99994 7.5C8.82837 7.5 9.49994 6.82843 9.49994 6C9.49994 5.17157 8.82837 4.5 7.99994 4.5ZM18.9999 16.5C18.1715 16.5 17.4999 17.1716 17.4999 18C17.4999 18.8284 18.1715 19.5 18.9999 19.5C19.8284 19.5 20.4999 18.8284 20.4999 18C20.4999 17.1716 19.8284 16.5 18.9999 16.5Z" fill="#47495F"/>
</svg>
