<svg width="24" height="24" viewBox="0 0 24 24" fill="none" xmlns="http://www.w3.org/2000/svg">
<path fill-rule="evenodd" clip-rule="evenodd" d="M3.5 4C3.5 3.72386 3.72386 3.5 4 3.5H7C7.27614 3.5 7.5 3.72386 7.5 4C7.5 4.27614 7.27614 4.5 7 4.5H4.5V7C4.5 7.27614 4.27614 7.5 4 7.5C3.72386 7.5 3.5 7.27614 3.5 7V4Z" fill="#47495F"/>
<path fill-rule="evenodd" clip-rule="evenodd" d="M20 3.5C20.2761 3.5 20.5 3.72386 20.5 4V7C20.5 7.27614 20.2761 7.5 20 7.5C19.7239 7.5 19.5 7.27614 19.5 7V4.5L17 4.5C16.7239 4.5 16.5 4.27614 16.5 4C16.5 3.72386 16.7239 3.5 17 3.5L20 3.5Z" fill="#47495F"/>
<path fill-rule="evenodd" clip-rule="evenodd" d="M4 20.5C3.72386 20.5 3.5 20.2761 3.5 20L3.5 17C3.5 16.7239 3.72386 16.5 4 16.5C4.27614 16.5 4.5 16.7239 4.5 17L4.5 19.5H7C7.27614 19.5 7.5 19.7239 7.5 20C7.5 20.2761 7.27614 20.5 7 20.5H4Z" fill="#47495F"/>
<path fill-rule="evenodd" clip-rule="evenodd" d="M20.5 20C20.5 20.2761 20.2761 20.5 20 20.5H17C16.7239 20.5 16.5 20.2761 16.5 20C16.5 19.7239 16.7239 19.5 17 19.5H19.5V17C19.5 16.7239 19.7239 16.5 20 16.5C20.2761 16.5 20.5 16.7239 20.5 17V20Z" fill="#47495F"/>
<path fill-rule="evenodd" clip-rule="evenodd" d="M7.5 11C7.5 8.51472 9.51472 6.5 12 6.5C14.4853 6.5 16.5 8.51472 16.5 11V13C16.5 15.4853 14.4853 17.5 12 17.5C9.51472 17.5 7.5 15.4853 7.5 13V11ZM12 7.5C10.067 7.5 8.5 9.067 8.5 11V13C8.5 14.933 10.067 16.5 12 16.5C13.933 16.5 15.5 14.933 15.5 13V11C15.5 9.067 13.933 7.5 12 7.5Z" fill="#47495F"/>
<path fill-rule="evenodd" clip-rule="evenodd" d="M10 13.5C10.2761 13.5 10.5 13.7239 10.5 14L10.5003 14.0027C10.5003 14.0027 10.5014 14.0073 10.5034 14.0122C10.5074 14.022 10.5171 14.0405 10.5389 14.0663C10.5845 14.1202 10.6701 14.1902 10.8094 14.2599C11.0883 14.3993 11.5085 14.5 12 14.5C12.4915 14.5 12.9117 14.3993 13.1906 14.2599C13.3299 14.1902 13.4155 14.1202 13.4611 14.0663C13.4829 14.0405 13.4926 14.022 13.4966 14.0122C13.4986 14.0073 13.4997 14.0027 13.4997 14.0027L13.5 14C13.5 13.7239 13.7239 13.5 14 13.5C14.2761 13.5 14.5 13.7239 14.5 14C14.5 14.5676 14.0529 14.9468 13.6378 15.1543C13.1928 15.3768 12.6131 15.5 12 15.5C11.3869 15.5 10.8072 15.3768 10.3622 15.1543C9.9471 14.9468 9.5 14.5676 9.5 14C9.5 13.7239 9.72386 13.5 10 13.5Z" fill="#47495F"/>
</svg>
