<svg width="24" height="24" viewBox="0 0 24 24" fill="none" xmlns="http://www.w3.org/2000/svg">
<path fill-rule="evenodd" clip-rule="evenodd" d="M5.5 6C5.5 4.61929 6.61929 3.5 8 3.5H12C16.7225 3.5 20.5 7.55843 20.5 12.5C20.5 14.3559 19.969 16.0837 19.0565 17.5193C18.5336 18.3421 18.1666 19.2028 18.1666 20.0823V21C18.1666 21.2761 17.9428 21.5 17.6666 21.5C17.3905 21.5 17.1666 21.2761 17.1666 21V20.0823C17.1666 18.9287 17.6449 17.876 18.2126 16.9829C19.0243 15.7058 19.5 14.1637 19.5 12.5C19.5 8.05273 16.114 4.5 12 4.5H8C7.17158 4.5 6.5 5.17157 6.5 6V7.5C6.5 7.55374 6.49134 7.60713 6.47435 7.65811L4.69372 13H6C6.27615 13 6.5 13.2239 6.5 13.5V17.5C6.5 17.7761 6.72386 18 7 18H8.5C8.77615 18 9 18.2239 9 18.5C9 18.7761 8.77615 19 8.5 19H7C6.17158 19 5.5 18.3284 5.5 17.5V14H4C3.83928 14 3.68836 13.9227 3.59438 13.7924C3.50041 13.662 3.47484 13.4944 3.52566 13.3419L5.5 7.41886V6Z" fill="#47495F"/>
<path fill-rule="evenodd" clip-rule="evenodd" d="M7.5 9C7.5 7.61929 8.61929 6.5 10 6.5C11.3807 6.5 12.5 7.61929 12.5 9C12.5 9.58482 12.2992 10.1227 11.9628 10.5486L13.4514 12.0372C13.8773 11.7008 14.4152 11.5 15 11.5C16.3807 11.5 17.5 12.6193 17.5 14C17.5 15.3807 16.3807 16.5 15 16.5C13.6193 16.5 12.5 15.3807 12.5 14C12.5 13.5668 12.6102 13.1593 12.8041 12.8041L11.1959 11.1959C10.8407 11.3898 10.4332 11.5 10 11.5C8.61929 11.5 7.5 10.3807 7.5 9ZM10 7.5C9.17158 7.5 8.5 8.17157 8.5 9C8.5 9.82843 9.17158 10.5 10 10.5C10.8284 10.5 11.5 9.82843 11.5 9C11.5 8.17157 10.8284 7.5 10 7.5ZM15 12.5C14.1716 12.5 13.5 13.1716 13.5 14C13.5 14.8284 14.1716 15.5 15 15.5C15.8284 15.5 16.5 14.8284 16.5 14C16.5 13.1716 15.8284 12.5 15 12.5Z" fill="#47495F"/>
</svg>
