<svg width="24" height="24" viewBox="0 0 24 24" fill="none" xmlns="http://www.w3.org/2000/svg">
<path fill-rule="evenodd" clip-rule="evenodd" d="M3.5 4C3.5 3.72386 3.72386 3.5 4 3.5H7C7.27614 3.5 7.5 3.72386 7.5 4C7.5 4.27614 7.27614 4.5 7 4.5H4.5V7C4.5 7.27614 4.27614 7.5 4 7.5C3.72386 7.5 3.5 7.27614 3.5 7V4Z" fill="#47495F"/>
<path fill-rule="evenodd" clip-rule="evenodd" d="M20 3.5C20.2761 3.5 20.5 3.72386 20.5 4V7C20.5 7.27614 20.2761 7.5 20 7.5C19.7239 7.5 19.5 7.27614 19.5 7V4.5L17 4.5C16.7239 4.5 16.5 4.27614 16.5 4C16.5 3.72386 16.7239 3.5 17 3.5L20 3.5Z" fill="#47495F"/>
<path fill-rule="evenodd" clip-rule="evenodd" d="M4 20.5C3.72386 20.5 3.5 20.2761 3.5 20L3.5 17C3.5 16.7239 3.72386 16.5 4 16.5C4.27614 16.5 4.5 16.7239 4.5 17L4.5 19.5H7C7.27614 19.5 7.5 19.7239 7.5 20C7.5 20.2761 7.27614 20.5 7 20.5H4Z" fill="#47495F"/>
<path fill-rule="evenodd" clip-rule="evenodd" d="M20.5 20C20.5 20.2761 20.2761 20.5 20 20.5H17C16.7239 20.5 16.5 20.2761 16.5 20C16.5 19.7239 16.7239 19.5 17 19.5H19.5V17C19.5 16.7239 19.7239 16.5 20 16.5C20.2761 16.5 20.5 16.7239 20.5 17V20Z" fill="#47495F"/>
<path fill-rule="evenodd" clip-rule="evenodd" d="M12 9C9.28707 9 7.2802 10.7931 6.6 11.7C6.46667 11.8778 6.46667 12.1222 6.6 12.3C7.2802 13.2069 9.28707 15 12 15C14.7129 15 16.7198 13.2069 17.4 12.3C17.5333 12.1222 17.5333 11.8778 17.4 11.7C16.7198 10.7931 14.7129 9 12 9ZM10.1256 13.6543C9.0093 13.2396 8.14276 12.5335 7.65177 12C8.14276 11.4665 9.0093 10.7604 10.1256 10.3457C9.73626 10.7865 9.5 11.3657 9.5 12C9.5 12.6343 9.73626 13.2135 10.1256 13.6543ZM13.8744 13.6543C14.9907 13.2396 15.8572 12.5335 16.3482 12C15.8572 11.4665 14.9907 10.7604 13.8744 10.3457C14.2637 10.7865 14.5 11.3657 14.5 12C14.5 12.6343 14.2637 13.2135 13.8744 13.6543ZM10.5 12C10.5 11.1716 11.1716 10.5 12 10.5C12.8284 10.5 13.5 11.1716 13.5 12C13.5 12.8284 12.8284 13.5 12 13.5C11.1716 13.5 10.5 12.8284 10.5 12Z" fill="#47495F"/>
</svg>
