<svg width="24" height="24" viewBox="0 0 24 24" fill="none" xmlns="http://www.w3.org/2000/svg">
<path fill-rule="evenodd" clip-rule="evenodd" d="M3.5 6C3.5 7.38071 4.61929 8.5 6 8.5C6.38376 8.5 6.74732 8.41353 7.07226 8.25902C7.08339 8.27735 7.09583 8.29517 7.10958 8.31237L8.98627 10.6582C8.07362 11.4818 7.5 12.6739 7.5 14C7.5 15.5828 8.31709 16.9746 9.55245 17.7768C9.51889 17.844 9.5 17.9198 9.5 18V19C9.5 19.8284 10.1716 20.5 11 20.5H13C13.8284 20.5 14.5 19.8284 14.5 19V18C14.5 17.9198 14.4811 17.844 14.4476 17.7768C15.6829 16.9746 16.5 15.5828 16.5 14C16.5 12.6739 15.9264 11.4818 15.0137 10.6582L16.8904 8.31237C16.9042 8.29517 16.9166 8.27735 16.9277 8.25902C17.2527 8.41354 17.6162 8.5 18 8.5C19.3807 8.5 20.5 7.38071 20.5 6C20.5 4.61929 19.3807 3.5 18 3.5C16.6193 3.5 15.5 4.61929 15.5 6C15.5 6.63781 15.7388 7.21984 16.132 7.66152C16.1243 7.66992 16.1168 7.67864 16.1096 7.68767L14.2006 10.0739C13.6875 9.78571 13.1123 9.59519 12.5 9.5275V8.44999C13.6411 8.21836 14.5 7.20948 14.5 6C14.5 4.61929 13.3807 3.5 12 3.5C10.6193 3.5 9.5 4.61929 9.5 6C9.5 7.20948 10.3589 8.21836 11.5 8.44999V9.5275C10.8877 9.59519 10.3125 9.78571 9.79942 10.0739L7.89045 7.68767C7.88322 7.67863 7.87574 7.66991 7.86803 7.66151C8.26115 7.21983 8.5 6.63781 8.5 6C8.5 4.61929 7.38071 3.5 6 3.5C4.61929 3.5 3.5 4.61929 3.5 6ZM6 7.5C5.17157 7.5 4.5 6.82843 4.5 6C4.5 5.17157 5.17157 4.5 6 4.5C6.82843 4.5 7.5 5.17157 7.5 6C7.5 6.82843 6.82843 7.5 6 7.5ZM18 7.5C17.1716 7.5 16.5 6.82843 16.5 6C16.5 5.17157 17.1716 4.5 18 4.5C18.8284 4.5 19.5 5.17157 19.5 6C19.5 6.82843 18.8284 7.5 18 7.5ZM10.5 6C10.5 6.82843 11.1716 7.5 12 7.5C12.8284 7.5 13.5 6.82843 13.5 6C13.5 5.17157 12.8284 4.5 12 4.5C11.1716 4.5 10.5 5.17157 10.5 6ZM10.5 19V18.244C10.9692 18.4098 11.474 18.5 12 18.5C12.526 18.5 13.0308 18.4098 13.5 18.244V19C13.5 19.2761 13.2761 19.5 13 19.5H11C10.7239 19.5 10.5 19.2761 10.5 19ZM8.5 14C8.5 15.933 10.067 17.5 12 17.5C13.933 17.5 15.5 15.933 15.5 14C15.5 12.067 13.933 10.5 12 10.5C10.067 10.5 8.5 12.067 8.5 14Z" fill="#47495F"/>
</svg>
