<svg width="24" height="24" viewBox="0 0 24 24" fill="none" xmlns="http://www.w3.org/2000/svg">
<path fill-rule="evenodd" clip-rule="evenodd" d="M7.49996 6C7.49996 5.17157 8.17154 4.5 8.99997 4.5H15C15.8284 4.5 16.5 5.17157 16.5 6V7C16.5 7.82843 15.8284 8.5 15 8.5H12.5V10.7928L16.2071 14.5H20C20.2761 14.5 20.5 14.7239 20.5 15V18C20.5 18.2761 20.2761 18.5 20 18.5C19.7239 18.5 19.5 18.2761 19.5 18V15.5H16.6714C16.6508 15.5343 16.6257 15.5666 16.5962 15.5961L12.3535 19.8388C12.1583 20.034 11.8417 20.034 11.6464 19.8388L7.40377 15.5961C7.37422 15.5666 7.34914 15.5343 7.32853 15.5H4.5C4.22386 15.5 4 15.2761 4 15C4 14.7239 4.22386 14.5 4.5 14.5H7.79281L11.5 10.7928V8.5H8.99997C8.17154 8.5 7.49996 7.82843 7.49996 7V6ZM8.99997 5.5C8.72382 5.5 8.49997 5.72386 8.49997 6V7C8.49997 7.27614 8.72382 7.5 8.99997 7.5H15C15.2761 7.5 15.5 7.27614 15.5 7V6C15.5 5.72386 15.2761 5.5 15 5.5H8.99997ZM12 11.7071L8.46443 15.2426L12 18.7781L15.5355 15.2426L12 11.7071Z" fill="#47495F"/>
</svg>
