<svg width="24" height="24" viewBox="0 0 24 24" fill="none" xmlns="http://www.w3.org/2000/svg">
<path fill-rule="evenodd" clip-rule="evenodd" d="M12 5.5C10.6193 5.5 9.5 6.61929 9.5 8C9.5 8.52754 9.6634 9.01692 9.94235 9.42029L7.67642 12.5926C7.46128 12.5323 7.23441 12.5 7 12.5C5.61929 12.5 4.5 13.6193 4.5 15C4.5 16.3807 5.61929 17.5 7 17.5C8.38071 17.5 9.5 16.3807 9.5 15C9.5 14.2156 9.13872 13.5155 8.57348 13.0572L10.6724 10.1187C11.0571 10.3603 11.5122 10.5 12 10.5C12.4877 10.5 12.9428 10.3603 13.3275 10.1188L15.4264 13.0573C14.8612 13.5156 14.5 14.2156 14.5 15C14.5 16.3807 15.6193 17.5 17 17.5C18.3807 17.5 19.5 16.3807 19.5 15C19.5 13.6193 18.3807 12.5 17 12.5C16.7655 12.5 16.5386 12.5323 16.3234 12.5926L14.0575 9.42045C14.3366 9.01706 14.5 8.52761 14.5 8C14.5 6.61929 13.3807 5.5 12 5.5ZM10.5 8C10.5 7.17157 11.1716 6.5 12 6.5C12.8284 6.5 13.5 7.17157 13.5 8C13.5 8.82843 12.8284 9.5 12 9.5C11.1716 9.5 10.5 8.82843 10.5 8ZM5.5 15C5.5 14.1716 6.17157 13.5 7 13.5C7.82843 13.5 8.5 14.1716 8.5 15C8.5 15.8284 7.82843 16.5 7 16.5C6.17157 16.5 5.5 15.8284 5.5 15ZM17 13.5C16.1716 13.5 15.5 14.1716 15.5 15C15.5 15.8284 16.1716 16.5 17 16.5C17.8284 16.5 18.5 15.8284 18.5 15C18.5 14.1716 17.8284 13.5 17 13.5Z" fill="#47495F"/>
</svg>
