<svg width="24" height="24" viewBox="0 0 24 24" fill="none" xmlns="http://www.w3.org/2000/svg">
<path fill-rule="evenodd" clip-rule="evenodd" d="M11 5.5C10.7239 5.5 10.5 5.72386 10.5 6V7.53192C11.0706 7.65161 11.5321 8.09714 11.6582 8.68571L12.9041 14.5H13C13.8284 14.5 14.5 15.1716 14.5 16V17C14.5 17.8284 13.8284 18.5 13 18.5H7C6.17157 18.5 5.5 17.8284 5.5 17V16C5.5 15.1716 6.17157 14.5 7 14.5H7.09568L8.3416 8.68571C8.46774 8.09707 8.92927 7.6515 9.5 7.53188V6C9.5 5.17157 10.1716 4.5 11 4.5H16C16.8284 4.5 17.5 5.17157 17.5 6V7.79289L19.3536 9.64645C19.5488 9.84171 19.5488 10.1583 19.3536 10.3536C19.1583 10.5488 18.8417 10.5488 18.6464 10.3536L17 8.70711L15.3536 10.3536C15.1583 10.5488 14.8417 10.5488 14.6464 10.3536C14.4512 10.1583 14.4512 9.84171 14.6464 9.64645L16.5 7.79289V6C16.5 5.72386 16.2761 5.5 16 5.5H11ZM8.11838 14.5H11.8814L10.6804 8.89524C10.631 8.6647 10.4272 8.5 10.1915 8.5H9.8083C9.57253 8.5 9.3688 8.6647 9.3194 8.89524L8.11838 14.5ZM6.5 16C6.5 15.7239 6.72386 15.5 7 15.5H13C13.2761 15.5 13.5 15.7239 13.5 16V17C13.5 17.2761 13.2761 17.5 13 17.5H7C6.72386 17.5 6.5 17.2761 6.5 17V16Z" fill="#47495F"/>
</svg>
