<svg width="24" height="24" viewBox="0 0 24 24" fill="none" xmlns="http://www.w3.org/2000/svg">
<path fill-rule="evenodd" clip-rule="evenodd" d="M11.7899 8.5463C11.9232 8.48457 12.0768 8.48457 12.2101 8.5463L17.2101 10.8621C17.3869 10.944 17.5 11.121 17.5 11.3158V17.1053C17.5 17.2837 17.4049 17.4486 17.2505 17.538L12.2505 20.4327C12.0956 20.5224 11.9044 20.5224 11.7495 20.4327L6.74948 17.538C6.59507 17.4486 6.5 17.2837 6.5 17.1053V11.3158C6.5 11.121 6.61312 10.944 6.78987 10.8621L11.7899 8.5463ZM7.5 12.1261L11.5 14.1331V19.1328L7.5 16.817V12.1261ZM12.5 19.1328L16.5 16.817V12.1261L12.5 14.1331V19.1328ZM12 13.2652L15.8492 11.3338L12 9.55103L8.15081 11.3338L12 13.2652Z" fill="#47495F"/>
<path fill-rule="evenodd" clip-rule="evenodd" d="M12 3C12.2761 3 12.5 3.22386 12.5 3.5V6.5C12.5 6.77614 12.2761 7 12 7C11.7239 7 11.5 6.77614 11.5 6.5V3.5C11.5 3.22386 11.7239 3 12 3Z" fill="#47495F"/>
<path fill-rule="evenodd" clip-rule="evenodd" d="M7.5 5.5C7.77614 5.5 8 5.72386 8 6V9C8 9.27614 7.77614 9.5 7.5 9.5C7.22386 9.5 7 9.27614 7 9V6C7 5.72386 7.22386 5.5 7.5 5.5Z" fill="#47495F"/>
<path fill-rule="evenodd" clip-rule="evenodd" d="M16.5 6.5C16.7761 6.5 17 6.72386 17 7V8.5C17 8.77614 16.7761 9 16.5 9C16.2239 9 16 8.77614 16 8.5V7C16 6.72386 16.2239 6.5 16.5 6.5Z" fill="#47495F"/>
</svg>
