<svg width="24" height="24" viewBox="0 0 24 24" fill="none" xmlns="http://www.w3.org/2000/svg">
<path fill-rule="evenodd" clip-rule="evenodd" d="M15.4913 17.3065C15.497 17.3368 15.5 17.368 15.5 17.4V19C15.5 20.3807 14.3807 21.5 13 21.5H7C5.61929 21.5 4.5 20.3807 4.5 19V5C4.5 3.61929 5.61929 2.5 7 2.5H13C14.3807 2.5 15.5 3.61929 15.5 5V6.6C15.5 6.62244 15.4985 6.64453 15.4957 6.66618L20.194 8.64445C20.3794 8.72251 20.5 8.90409 20.5 9.10526V14.3684C20.5 14.5541 20.3972 14.7244 20.2329 14.8109L15.4913 17.3065ZM13 3.5C13.8284 3.5 14.5 4.17157 14.5 5V6.6C14.5 6.62244 14.5015 6.64453 14.5043 6.66618L9.80597 8.64445C9.62056 8.72251 9.5 8.90409 9.5 9.10526V14.3684C9.5 14.5541 9.60285 14.7244 9.76713 14.8109L14.5087 17.3065C14.503 17.3368 14.5 17.368 14.5 17.4V19C14.5 19.8284 13.8284 20.5 13 20.5H7C6.17157 20.5 5.5 19.8284 5.5 19L5.5 5C5.5 4.17157 6.17157 3.5 7 3.5L13 3.5ZM14.5 11.7075L10.5 9.88289V14.0666L14.5 16.1718V11.7075ZM19.5 14.0666L15.5 16.1718V11.7075L19.5 9.88289V14.0666ZM18.755 9.12358L15 10.8364L11.245 9.12358L15 7.54251L18.755 9.12358Z" fill="#47495F"/>
</svg>
