<svg width="24" height="24" viewBox="0 0 24 24" fill="none" xmlns="http://www.w3.org/2000/svg">
<path fill-rule="evenodd" clip-rule="evenodd" d="M11.806 4.53918C11.93 4.48694 12.07 4.48694 12.194 4.53918L17.194 6.64445C17.3794 6.72251 17.5 6.90409 17.5 7.10526V12.3684C17.5 12.5541 17.3972 12.7244 17.2329 12.8109L12.2329 15.4425C12.0871 15.5192 11.9129 15.5192 11.7671 15.4425L6.76713 12.8109C6.60285 12.7244 6.5 12.5541 6.5 12.3684V7.10526C6.5 6.90409 6.62056 6.72251 6.80597 6.64445L11.806 4.53918ZM7.5 7.88289L11.5 9.70746V14.1718L7.5 12.0666V7.88289ZM12.5 14.1718L16.5 12.0666V7.88289L12.5 9.70746V14.1718ZM12 8.83641L15.755 7.12358L12 5.54251L8.24496 7.12358L12 8.83641Z" fill="#47495F"/>
<path fill-rule="evenodd" clip-rule="evenodd" d="M4 9.5C3.17157 9.5 2.5 10.1716 2.5 11V16C2.5 16.8284 3.17157 17.5 4 17.5H20C20.8284 17.5 21.5 16.8284 21.5 16V11C21.5 10.1716 20.8284 9.5 20 9.5H18V8.5H20C21.3807 8.5 22.5 9.61929 22.5 11V16C22.5 17.3807 21.3807 18.5 20 18.5H4C2.61929 18.5 1.5 17.3807 1.5 16V11C1.5 9.61929 2.61929 8.5 4 8.5H6V9.5H4Z" fill="#47495F"/>
</svg>
