<svg width="24" height="24" viewBox="0 0 24 24" fill="none" xmlns="http://www.w3.org/2000/svg">
<path fill-rule="evenodd" clip-rule="evenodd" d="M12.2101 2.5463C12.0768 2.48457 11.9232 2.48457 11.7899 2.5463L6.78987 4.86209C6.61312 4.94395 6.5 5.12101 6.5 5.31579V12.2228L2.735 14.5759C2.58492 14.6697 2.49561 14.8359 2.50017 15.0128C2.50472 15.1897 2.60247 15.3511 2.75718 15.437L11.7572 20.437C11.9147 20.5245 12.107 20.5205 12.2607 20.4266L21.2607 14.9266C21.4158 14.8318 21.5073 14.6603 21.4995 14.4787C21.4918 14.2971 21.3862 14.134 21.2236 14.0527L17.5 12.1909V5.31579C17.5 5.12101 17.3869 4.94395 17.2101 4.86209L12.2101 2.5463ZM17.5 13.309V14.1053C17.5 14.2837 17.4049 14.4486 17.2505 14.538L12.2505 17.4327C12.0956 17.5224 11.9044 17.5224 11.7495 17.4327L6.74948 14.538C6.59507 14.4486 6.5 14.2837 6.5 14.1053V13.4021L3.98395 14.9746L11.988 19.4213L19.9695 14.5437L17.5 13.309ZM11.5 8.13309L7.5 6.12608V13.817L11.5 16.1328V8.13309ZM16.5 13.817L12.5 16.1328V8.13309L16.5 6.12608V13.817ZM15.8492 5.33381L12 7.26515L8.15081 5.33381L12 3.55103L15.8492 5.33381Z" fill="#47495F"/>
</svg>
