<svg width="24" height="24" viewBox="0 0 24 24" fill="none" xmlns="http://www.w3.org/2000/svg">
<path fill-rule="evenodd" clip-rule="evenodd" d="M14 3.5C13.1716 3.5 12.5 4.17157 12.5 5V11C12.5 11.8284 13.1716 12.5 14 12.5H17C17.8284 12.5 18.5 11.8284 18.5 11V9.5H20C20.8284 9.5 21.5 10.1716 21.5 11V16C21.5 16.8284 20.8284 17.5 20 17.5H4C3.17157 17.5 2.5 16.8284 2.5 16V11C2.5 10.1716 3.17157 9.5 4 9.5H5.5V11C5.5 11.8284 6.17157 12.5 7 12.5H10C10.8284 12.5 11.5 11.8284 11.5 11V7C11.5 6.17157 10.8284 5.5 10 5.5H7C6.17157 5.5 5.5 6.17157 5.5 7V8.5H4C2.61929 8.5 1.5 9.61929 1.5 11V16C1.5 17.3807 2.61929 18.5 4 18.5H20C21.3807 18.5 22.5 17.3807 22.5 16V11C22.5 9.61929 21.3807 8.5 20 8.5H18.5V5C18.5 4.17157 17.8284 3.5 17 3.5H14ZM13.5 5C13.5 4.72386 13.7239 4.5 14 4.5H17C17.2761 4.5 17.5 4.72386 17.5 5V11C17.5 11.2761 17.2761 11.5 17 11.5H14C13.7239 11.5 13.5 11.2761 13.5 11V5ZM7 6.5C6.72386 6.5 6.5 6.72386 6.5 7V11C6.5 11.2761 6.72386 11.5 7 11.5H10C10.2761 11.5 10.5 11.2761 10.5 11V7C10.5 6.72386 10.2761 6.5 10 6.5H7Z" fill="#47495F"/>
</svg>
