<svg width="24" height="24" viewBox="0 0 24 24" fill="none" xmlns="http://www.w3.org/2000/svg">
<path fill-rule="evenodd" clip-rule="evenodd" d="M3.5 4C3.5 3.72386 3.72386 3.5 4 3.5H7C7.27614 3.5 7.5 3.72386 7.5 4C7.5 4.27614 7.27614 4.5 7 4.5H4.5V7C4.5 7.27614 4.27614 7.5 4 7.5C3.72386 7.5 3.5 7.27614 3.5 7V4Z" fill="#47495F"/>
<path fill-rule="evenodd" clip-rule="evenodd" d="M20 3.5C20.2761 3.5 20.5 3.72386 20.5 4V7C20.5 7.27614 20.2761 7.5 20 7.5C19.7239 7.5 19.5 7.27614 19.5 7V4.5L17 4.5C16.7239 4.5 16.5 4.27614 16.5 4C16.5 3.72386 16.7239 3.5 17 3.5L20 3.5Z" fill="#47495F"/>
<path fill-rule="evenodd" clip-rule="evenodd" d="M4 20.5C3.72386 20.5 3.5 20.2761 3.5 20L3.5 17C3.5 16.7239 3.72386 16.5 4 16.5C4.27614 16.5 4.5 16.7239 4.5 17L4.5 19.5H7C7.27614 19.5 7.5 19.7239 7.5 20C7.5 20.2761 7.27614 20.5 7 20.5H4Z" fill="#47495F"/>
<path fill-rule="evenodd" clip-rule="evenodd" d="M20.5 20C20.5 20.2761 20.2761 20.5 20 20.5H17C16.7239 20.5 16.5 20.2761 16.5 20C16.5 19.7239 16.7239 19.5 17 19.5H19.5V17C19.5 16.7239 19.7239 16.5 20 16.5C20.2761 16.5 20.5 16.7239 20.5 17V20Z" fill="#47495F"/>
<path fill-rule="evenodd" clip-rule="evenodd" d="M9.75365 8.5649C9.91041 8.47615 10.1028 8.47857 10.2572 8.57125L15.2572 11.5713C15.4079 11.6616 15.5 11.8244 15.5 12C15.5 12.1756 15.4079 12.3384 15.2572 12.4287L10.2572 15.4287C10.1028 15.5214 9.91041 15.5239 9.75365 15.4351C9.5969 15.3463 9.5 15.1801 9.5 15V9C9.5 8.81986 9.5969 8.65365 9.75365 8.5649ZM10.5 9.8831V14.1169L14.0282 12L10.5 9.8831Z" fill="#47495F"/>
</svg>
