<svg width="24" height="24" viewBox="0 0 24 24" fill="none" xmlns="http://www.w3.org/2000/svg">
<path fill-rule="evenodd" clip-rule="evenodd" d="M11.7925 5.04509C11.9243 4.98497 12.0757 4.98497 12.2075 5.04509L18.2075 7.78193C18.3857 7.8632 18.5 8.04101 18.5 8.23684V15.0789C18.5 15.2585 18.4037 15.4243 18.2477 15.5133L12.2477 18.9344C12.0942 19.0219 11.9058 19.0219 11.7523 18.9344L5.75234 15.5133C5.59632 15.4243 5.5 15.2585 5.5 15.0789V8.23684C5.5 8.04101 5.61433 7.8632 5.7925 7.78193L11.7925 5.04509ZM6.5 9.04163L11.5 11.5124V17.6393L6.5 14.7885V9.04163ZM12.5 17.6393L17.5 14.7885V9.04163L12.5 11.5124V17.6393ZM12 10.644L16.8348 8.25491L12 6.04956L7.16519 8.25491L12 10.644Z" fill="#47495F"/>
</svg>
