<svg width="24" height="24" viewBox="0 0 24 24" fill="none" xmlns="http://www.w3.org/2000/svg">
<path fill-rule="evenodd" clip-rule="evenodd" d="M7.5 11C7.5 10.1716 8.17157 9.5 9 9.5H15C15.8284 9.5 16.5 10.1716 16.5 11V13H17.5854C17.7913 12.4174 18.3469 12 19 12C19.8284 12 20.5 12.6716 20.5 13.5C20.5 14.3284 19.8284 15 19 15C18.3469 15 17.7913 14.5826 17.5854 14H16.5V16C16.5 16.8284 15.8284 17.5 15 17.5H9C8.17157 17.5 7.5 16.8284 7.5 16V14H6.41465C6.20873 14.5826 5.65311 15 5 15C4.17157 15 3.5 14.3284 3.5 13.5C3.5 12.6716 4.17157 12 5 12C5.65311 12 6.20873 12.4174 6.41465 13H7.5V11ZM18.5 13.5C18.5 13.7761 18.7239 14 19 14C19.2761 14 19.5 13.7761 19.5 13.5C19.5 13.2239 19.2761 13 19 13C18.7239 13 18.5 13.2239 18.5 13.5ZM15.5 11V16C15.5 16.2761 15.2761 16.5 15 16.5H9C8.72386 16.5 8.5 16.2761 8.5 16V11C8.5 10.7239 8.72386 10.5 9 10.5H15C15.2761 10.5 15.5 10.7239 15.5 11ZM5.5 13.5C5.5 13.2239 5.27614 13 5 13C4.72386 13 4.5 13.2239 4.5 13.5C4.5 13.7761 4.72386 14 5 14C5.27614 14 5.5 13.7761 5.5 13.5Z" fill="#47495F"/>
<path fill-rule="evenodd" clip-rule="evenodd" d="M12 7.5C11.1716 7.5 10.5 8.17157 10.5 9H9.5C9.5 7.61929 10.6193 6.5 12 6.5C13.3807 6.5 14.5 7.61929 14.5 9H13.5C13.5 8.17157 12.8284 7.5 12 7.5Z" fill="#47495F"/>
</svg>
