<svg width="24" height="24" viewBox="0 0 24 24" fill="none" xmlns="http://www.w3.org/2000/svg">
<path fill-rule="evenodd" clip-rule="evenodd" d="M8 3.5C8.65311 3.5 9.20873 3.9174 9.41465 4.5H13C13.2761 4.5 13.5 4.72386 13.5 5V10.5H18.5C18.6844 10.5 18.8538 10.6015 18.9408 10.7641C19.0278 10.9267 19.0183 11.1239 18.916 11.2773L16.916 14.2774C16.8329 14.402 16.6983 14.4828 16.5493 14.4976C16.4002 14.5123 16.2524 14.4595 16.1464 14.3536L15.2929 13.5H11.1632C10.6698 14.5387 9.67977 15.2958 8.5 15.4646L8.5 17.5L12 17.5C12.0283 17.5 12.056 17.5023 12.083 17.5068C12.2869 16.9207 12.8443 16.5 13.5 16.5C14.3284 16.5 15 17.1716 15 18C15 18.8284 14.3284 19.5 13.5 19.5C12.8443 19.5 12.2869 19.0793 12.0829 18.4931C12.056 18.4976 12.0283 18.5 12 18.5L8 18.5C7.86739 18.5 7.74022 18.4473 7.64645 18.3536C7.55268 18.2598 7.5 18.1326 7.5 18L7.5 15.4646C5.80385 15.2219 4.5 13.7632 4.5 12C4.5 10.067 6.067 8.5 8 8.5C9.3962 8.5 10.6015 9.31753 11.1632 10.5H12.5V5.5H9.41465C9.20873 6.0826 8.65311 6.5 8 6.5C7.17157 6.5 6.5 5.82843 6.5 5C6.5 4.17157 7.17157 3.5 8 3.5ZM8 4.5C7.72386 4.5 7.5 4.72386 7.5 5C7.5 5.27614 7.72386 5.5 8 5.5C8.27614 5.5 8.5 5.27614 8.5 5C8.5 4.72386 8.27614 4.5 8 4.5ZM11.4646 11.5C11.4879 11.6633 11.5 11.8302 11.5 12C11.5 12.1698 11.4879 12.3367 11.4646 12.5H15.5C15.6326 12.5 15.7598 12.5527 15.8536 12.6464L16.4223 13.2152L17.5657 11.5H11.4646ZM8 9.5C6.61929 9.5 5.5 10.6193 5.5 12C5.5 13.3807 6.61929 14.5 8 14.5C9.38071 14.5 10.5 13.3807 10.5 12C10.5 10.6193 9.38071 9.5 8 9.5ZM13.5 18.5C13.7761 18.5 14 18.2761 14 18C14 17.7239 13.7761 17.5 13.5 17.5C13.2239 17.5 13 17.7239 13 18C13 18.2761 13.2239 18.5 13.5 18.5Z" fill="#47495F"/>
</svg>
