<svg width="24" height="24" viewBox="0 0 24 24" fill="none" xmlns="http://www.w3.org/2000/svg">
<path fill-rule="evenodd" clip-rule="evenodd" d="M11 4C11.2761 4 11.5 4.22386 11.5 4.5V9H12.5V7C12.5 6.72386 12.7239 6.5 13 6.5C13.2761 6.5 13.5 6.72386 13.5 7V9C14.3284 9 15 9.67157 15 10.5V11.5H17.5C17.5283 11.5 17.556 11.5023 17.583 11.5068C17.7869 10.9207 18.3443 10.5 19 10.5C19.8284 10.5 20.5 11.1716 20.5 12C20.5 12.8284 19.8284 13.5 19 13.5C18.3443 13.5 17.7869 13.0793 17.583 12.4932C17.556 12.4977 17.5283 12.5 17.5 12.5H15V13.5C15 14.3284 14.3284 15 13.5 15V19.5C13.5 19.7761 13.2761 20 13 20C12.7239 20 12.5 19.7761 12.5 19.5V15H11.5V17C11.5 17.2761 11.2761 17.5 11 17.5C10.7239 17.5 10.5 17.2761 10.5 17V15C9.67157 15 9 14.3284 9 13.5V12.5H6.5C6.47174 12.5 6.44403 12.4977 6.41705 12.4932C6.21308 13.0793 5.65567 13.5 5 13.5C4.17157 13.5 3.5 12.8284 3.5 12C3.5 11.1716 4.17157 10.5 5 10.5C5.65567 10.5 6.21308 10.9207 6.41705 11.5068C6.44403 11.5023 6.47174 11.5 6.5 11.5H9V10.5C9 9.67157 9.67157 9 10.5 9V4.5C10.5 4.22386 10.7239 4 11 4ZM13.5 14C13.7761 14 14 13.7761 14 13.5V10.5C14 10.2239 13.7761 10 13.5 10H10.5C10.2239 10 10 10.2239 10 10.5V13.5C10 13.7761 10.2239 14 10.5 14H13.5ZM5 11.5C4.72386 11.5 4.5 11.7239 4.5 12C4.5 12.2761 4.72386 12.5 5 12.5C5.27614 12.5 5.5 12.2761 5.5 12C5.5 11.7239 5.27614 11.5 5 11.5ZM18.5 12C18.5 11.7239 18.7239 11.5 19 11.5C19.2761 11.5 19.5 11.7239 19.5 12C19.5 12.2761 19.2761 12.5 19 12.5C18.7239 12.5 18.5 12.2761 18.5 12Z" fill="#47495F"/>
</svg>
