<svg width="24" height="24" viewBox="0 0 24 24" fill="none" xmlns="http://www.w3.org/2000/svg">
<path fill-rule="evenodd" clip-rule="evenodd" d="M5.50235 7.98295C5.62019 14.017 10.1383 16.8072 12.0376 17.9403C13.1796 17.422 14.7386 16.2719 16.0431 14.5979C17.3876 12.8723 18.4366 10.6225 18.4972 7.98264C17.6467 7.34413 15.4145 6 12 6C8.58496 6 6.35255 7.34457 5.50235 7.98295ZM4.68303 7.35469C5.47366 6.70661 8.00284 5 12 5C15.9972 5 18.5263 6.70661 19.317 7.35469C19.4328 7.44966 19.5 7.59157 19.5 7.74138C19.5 10.7559 18.3216 13.3007 16.8319 15.2125C15.3486 17.1161 13.5301 18.4265 12.1857 18.9642C12.0409 19.0222 11.8773 19.0092 11.7435 18.9292C11.6977 18.9018 11.6494 18.8731 11.5985 18.8428C9.7213 17.7264 4.5 14.6212 4.5 7.74138C4.5 7.59157 4.56717 7.44966 4.68303 7.35469Z" fill="#47495F"/>
<path fill-rule="evenodd" clip-rule="evenodd" d="M14.8536 9.14645C15.0488 9.34171 15.0488 9.65829 14.8536 9.85355L11.8536 12.8536C11.6583 13.0488 11.3417 13.0488 11.1464 12.8536L9.64645 11.3536C9.45118 11.1583 9.45118 10.8417 9.64645 10.6464C9.84171 10.4512 10.1583 10.4512 10.3536 10.6464L11.5 11.7929L14.1464 9.14645C14.3417 8.95118 14.6583 8.95118 14.8536 9.14645Z" fill="#47495F"/>
</svg>
