<svg width="24" height="24" viewBox="0 0 24 24" fill="none" xmlns="http://www.w3.org/2000/svg">
<path fill-rule="evenodd" clip-rule="evenodd" d="M5 5.5C4.17157 5.5 3.5 6.17157 3.5 7V10C3.5 10.8284 4.17157 11.5 5 11.5H8C8.82843 11.5 9.5 10.8284 9.5 10V9H17V11C17 11.2761 17.2239 11.5 17.5 11.5C17.7761 11.5 18 11.2761 18 11V8.5C18 8.22386 17.7761 8 17.5 8H9.5V7C9.5 6.17157 8.82843 5.5 8 5.5H5ZM8.5 7C8.5 6.72386 8.27614 6.5 8 6.5H5C4.72386 6.5 4.5 6.72386 4.5 7V10C4.5 10.2761 4.72386 10.5 5 10.5H8C8.27614 10.5 8.5 10.2761 8.5 10V7Z" fill="#47495F"/>
<path fill-rule="evenodd" clip-rule="evenodd" d="M7 13C7 12.7239 6.77614 12.5 6.5 12.5C6.22386 12.5 6 12.7239 6 13V15.5C6 15.7761 6.22386 16 6.5 16H14.5V17C14.5 17.8284 15.1716 18.5 16 18.5H19C19.8284 18.5 20.5 17.8284 20.5 17V14C20.5 13.1716 19.8284 12.5 19 12.5H16C15.1716 12.5 14.5 13.1716 14.5 14V15H7V13ZM15.5 17C15.5 17.2761 15.7239 17.5 16 17.5H19C19.2761 17.5 19.5 17.2761 19.5 17V14C19.5 13.7239 19.2761 13.5 19 13.5H16C15.7239 13.5 15.5 13.7239 15.5 14V17Z" fill="#47495F"/>
</svg>
