<svg width="24" height="24" viewBox="0 0 24 24" fill="none" xmlns="http://www.w3.org/2000/svg">
<path fill-rule="evenodd" clip-rule="evenodd" d="M5 6.5C4.17157 6.5 3.5 7.17157 3.5 8V16C3.5 16.8284 4.17157 17.5 5 17.5H11C11.3842 17.5 11.7346 17.3556 12 17.1181C12.2654 17.3556 12.6158 17.5 13 17.5H19C19.8284 17.5 20.5 16.8284 20.5 16V8C20.5 7.17157 19.8284 6.5 19 6.5H13C12.6158 6.5 12.2654 6.64443 12 6.88195C11.7346 6.64443 11.3842 6.5 11 6.5H5ZM12.5 8V16C12.5 16.2761 12.7239 16.5 13 16.5H19C19.2761 16.5 19.5 16.2761 19.5 16V8C19.5 7.72386 19.2761 7.5 19 7.5H13C12.7239 7.5 12.5 7.72386 12.5 8ZM11.5 8C11.5 7.72386 11.2761 7.5 11 7.5H5C4.72386 7.5 4.5 7.72386 4.5 8V16C4.5 16.2761 4.72386 16.5 5 16.5H11C11.2761 16.5 11.5 16.2761 11.5 16V8Z" fill="#47495F"/>
<path fill-rule="evenodd" clip-rule="evenodd" d="M13.5 10C13.5 9.72386 13.7239 9.5 14 9.5H18C18.2761 9.5 18.5 9.72386 18.5 10C18.5 10.2761 18.2761 10.5 18 10.5H14C13.7239 10.5 13.5 10.2761 13.5 10Z" fill="#47495F"/>
<path fill-rule="evenodd" clip-rule="evenodd" d="M5.5 10C5.5 9.72386 5.72386 9.5 6 9.5H10C10.2761 9.5 10.5 9.72386 10.5 10C10.5 10.2761 10.2761 10.5 10 10.5H6C5.72386 10.5 5.5 10.2761 5.5 10Z" fill="#47495F"/>
<path fill-rule="evenodd" clip-rule="evenodd" d="M13.5 12C13.5 11.7239 13.7239 11.5 14 11.5H16C16.2761 11.5 16.5 11.7239 16.5 12C16.5 12.2761 16.2761 12.5 16 12.5H14C13.7239 12.5 13.5 12.2761 13.5 12Z" fill="#47495F"/>
<path fill-rule="evenodd" clip-rule="evenodd" d="M5.5 12C5.5 11.7239 5.72386 11.5 6 11.5H8C8.27614 11.5 8.5 11.7239 8.5 12C8.5 12.2761 8.27614 12.5 8 12.5H6C5.72386 12.5 5.5 12.2761 5.5 12Z" fill="#47495F"/>
</svg>
