<svg width="24" height="24" viewBox="0 0 24 24" fill="none" xmlns="http://www.w3.org/2000/svg">
<path fill-rule="evenodd" clip-rule="evenodd" d="M5.06693 15.147C4.65272 14.4295 4.89854 13.5122 5.61597 13.0979L7.80841 11.8321C8.04755 11.6941 8.35335 11.776 8.49142 12.0152C8.62949 12.2543 8.54755 12.5601 8.30841 12.6982L6.11597 13.964C5.87683 14.102 5.79489 14.4078 5.93296 14.647L7.19876 16.8394C7.38577 17.1633 7.79994 17.2743 8.12384 17.0873L13.2213 14.1443C13.5452 13.9573 13.6561 13.5431 13.4691 13.2192L11.7033 10.1608L12.5694 9.66076L14.3352 12.7192C14.7983 13.5214 14.5235 14.5472 13.7213 15.0103L8.62384 17.9533C7.82164 18.4165 6.79588 18.1416 6.33274 17.3394L5.06693 15.147Z" fill="#47495F"/>
<path fill-rule="evenodd" clip-rule="evenodd" d="M9.66454 10.9448C9.2014 10.1426 9.47625 9.11685 10.2784 8.6537L15.3759 5.7107C16.1781 5.24755 17.2038 5.52241 17.667 6.3246L18.9328 8.51703C19.347 9.23447 19.1012 10.1519 18.3837 10.5661L16.1913 11.8319C15.9522 11.9699 15.6464 11.888 15.5083 11.6489C15.3702 11.4097 15.4522 11.1039 15.6913 10.9658L17.8837 9.70005C18.1229 9.56197 18.2048 9.25618 18.0668 9.01703L16.801 6.8246C16.6139 6.5007 16.1998 6.38972 15.8759 6.57673L10.7784 9.51973C10.4545 9.70673 10.3436 10.1209 10.5306 10.4448L12.2964 13.5033L11.4303 14.0033L9.66454 10.9448Z" fill="#47495F"/>
</svg>
