<svg width="24" height="24" viewBox="0 0 24 24" fill="none" xmlns="http://www.w3.org/2000/svg">
<path fill-rule="evenodd" clip-rule="evenodd" d="M11.5 5C10.6716 5 10 5.67157 10 6.5V8H6.5C5.67157 8 5 8.67157 5 9.5V17.5C5 18.3284 5.67157 19 6.5 19H12.5C13.3284 19 14 18.3284 14 17.5V16H17.5C18.3284 16 19 15.3284 19 14.5V6.5C19 5.67157 18.3284 5 17.5 5H11.5ZM13 16H11.5C10.6716 16 10 15.3284 10 14.5V9H6.5C6.22386 9 6 9.22386 6 9.5V17.5C6 17.7761 6.22386 18 6.5 18H12.5C12.7761 18 13 17.7761 13 17.5V16ZM11 6.5C11 6.22386 11.2239 6 11.5 6H17.5C17.7761 6 18 6.22386 18 6.5V14.5C18 14.7761 17.7761 15 17.5 15H11.5C11.2239 15 11 14.7761 11 14.5V6.5Z" fill="#47495F"/>
<path fill-rule="evenodd" clip-rule="evenodd" d="M12 8.5C12 8.22386 12.2239 8 12.5 8H16.5C16.7761 8 17 8.22386 17 8.5C17 8.77614 16.7761 9 16.5 9H12.5C12.2239 9 12 8.77614 12 8.5Z" fill="#47495F"/>
<path fill-rule="evenodd" clip-rule="evenodd" d="M12 10.5C12 10.2239 12.2239 10 12.5 10H14.5C14.7761 10 15 10.2239 15 10.5C15 10.7761 14.7761 11 14.5 11H12.5C12.2239 11 12 10.7761 12 10.5Z" fill="#47495F"/>
</svg>
