<svg width="24" height="24" viewBox="0 0 24 24" fill="none" xmlns="http://www.w3.org/2000/svg">
<path fill-rule="evenodd" clip-rule="evenodd" d="M20.5 15C20.5 15.8682 20.06 16.6391 19.3818 17.2665C18.7048 17.8926 17.7617 18.4059 16.6613 18.7809C16.3999 18.87 16.1158 18.7303 16.0267 18.4689C16.0062 18.4088 15.9978 18.3474 16.0003 18.2874L16 18.2707V13.3077C16 13.0937 16.1362 12.9034 16.3387 12.8344C16.6584 12.7255 16.9575 12.6057 17.2344 12.4771C15.8525 11.7095 14.0093 11 12 11C9.99069 11 8.1475 11.7095 6.76558 12.4771C7.04248 12.6057 7.34164 12.7255 7.66128 12.8344C7.86383 12.9034 8 13.0937 8 13.3077V18.2584C8 18.2663 7.99982 18.274 7.99946 18.2818C8.00268 18.3435 7.99443 18.4069 7.97327 18.4689C7.8842 18.7303 7.6001 18.87 7.33872 18.7809C6.23828 18.4059 5.29519 17.8926 4.6182 17.2665C3.93998 16.6391 3.5 15.8682 3.5 15V10C3.5 8.60402 4.61867 7.47479 6.11954 6.72436C7.65031 5.95897 9.73007 5.5 12 5.5C14.2699 5.5 16.3497 5.95897 17.8805 6.72436C19.3813 7.47479 20.5 8.60402 20.5 10V15ZM6.56675 7.61879C5.17219 8.31607 4.5 9.18684 4.5 10C4.5 10.5066 4.75364 11.0295 5.29722 11.5323C5.43539 11.6601 5.5904 11.7847 5.76135 11.905C7.27276 10.9828 9.49867 10 12 10C14.5013 10 16.7272 10.9828 18.2386 11.905C18.4096 11.7847 18.5646 11.6601 18.7028 11.5323C19.2464 11.0295 19.5 10.5066 19.5 10C19.5 9.18684 18.8278 8.31607 17.4332 7.61879C16.0686 6.93646 14.1483 6.5 12 6.5C9.85165 6.5 7.93141 6.93646 6.56675 7.61879ZM19.5 12.1533C19.4615 12.1915 19.4221 12.2292 19.3818 12.2665C18.7753 12.8274 17.9554 13.2977 17 13.6592V17.5816C17.7062 17.2796 18.2825 16.9211 18.7028 16.5323C19.2464 16.0295 19.5 15.5066 19.5 15V12.1533ZM4.5 12.1533V15C4.5 15.5066 4.75364 16.0295 5.29722 16.5323C5.71751 16.9211 6.29378 17.2796 7 17.5816V13.6592C6.04465 13.2977 5.22466 12.8274 4.6182 12.2665C4.57795 12.2292 4.53853 12.1915 4.5 12.1533Z" fill="#47495F"/>
</svg>
