<svg width="24" height="24" viewBox="0 0 24 24" fill="none" xmlns="http://www.w3.org/2000/svg">
<path fill-rule="evenodd" clip-rule="evenodd" d="M12 8.5C10.067 8.5 8.5 10.067 8.5 12C8.5 13.933 10.067 15.5 12 15.5C13.933 15.5 15.5 13.933 15.5 12C15.5 10.067 13.933 8.5 12 8.5ZM7.5 12C7.5 9.51472 9.51472 7.5 12 7.5C14.4853 7.5 16.5 9.51472 16.5 12C16.5 14.4853 14.4853 16.5 12 16.5C9.51472 16.5 7.5 14.4853 7.5 12Z" fill="#47495F"/>
<path fill-rule="evenodd" clip-rule="evenodd" d="M11.6464 2.64645C11.8417 2.45118 12.1583 2.45118 12.3536 2.64645L14.3536 4.64645C14.5488 4.84171 14.5488 5.15829 14.3536 5.35355C14.1583 5.54882 13.8417 5.54882 13.6464 5.35355L12 3.70711L10.3536 5.35355C10.1583 5.54882 9.84171 5.54882 9.64645 5.35355C9.45118 5.15829 9.45118 4.84171 9.64645 4.64645L11.6464 2.64645Z" fill="#47495F"/>
<path fill-rule="evenodd" clip-rule="evenodd" d="M21.3536 11.6464C21.5488 11.8417 21.5488 12.1583 21.3536 12.3536L19.3536 14.3536C19.1583 14.5488 18.8417 14.5488 18.6464 14.3536C18.4512 14.1583 18.4512 13.8417 18.6464 13.6464L20.2929 12L18.6464 10.3536C18.4512 10.1583 18.4512 9.84171 18.6464 9.64645C18.8417 9.45118 19.1583 9.45118 19.3536 9.64645L21.3536 11.6464Z" fill="#47495F"/>
<path fill-rule="evenodd" clip-rule="evenodd" d="M2.64645 12.3536C2.45118 12.1583 2.45118 11.8417 2.64645 11.6464L4.64645 9.64645C4.84171 9.45118 5.15829 9.45118 5.35355 9.64645C5.54882 9.84171 5.54882 10.1583 5.35355 10.3536L3.70711 12L5.35355 13.6464C5.54882 13.8417 5.54882 14.1583 5.35355 14.3536C5.15829 14.5488 4.84171 14.5488 4.64645 14.3536L2.64645 12.3536Z" fill="#47495F"/>
<path fill-rule="evenodd" clip-rule="evenodd" d="M12.3536 21.3536C12.1583 21.5488 11.8417 21.5488 11.6464 21.3536L9.64645 19.3536C9.45118 19.1583 9.45118 18.8417 9.64645 18.6464C9.84171 18.4512 10.1583 18.4512 10.3536 18.6464L12 20.2929L13.6464 18.6464C13.8417 18.4512 14.1583 18.4512 14.3536 18.6464C14.5488 18.8417 14.5488 19.1583 14.3536 19.3536L12.3536 21.3536Z" fill="#47495F"/>
</svg>
