<svg width="24" height="24" viewBox="0 0 24 24" fill="none" xmlns="http://www.w3.org/2000/svg">
<path d="M19.9903 14.9019C19.9612 14.7563 19.8688 14.6311 19.7381 14.5604C19.6075 14.4896 19.4522 14.4806 19.3143 14.5358L16.8143 15.5358C16.5579 15.6383 16.4332 15.9293 16.5358 16.1857C16.6383 16.4421 16.9293 16.5668 17.1857 16.4642L18.4099 15.9745C18.2077 16.5108 17.6606 17.0604 16.7261 17.5277C15.5424 18.1195 13.8722 18.5 12 18.5C10.1278 18.5 8.45755 18.1195 7.27386 17.5277C6.06026 16.9209 5.5 16.1751 5.5 15.5C5.5 15.2239 5.27614 15 5 15C4.72386 15 4.5 15.2239 4.5 15.5C4.5 16.7579 5.50674 17.7621 6.82665 18.4221C8.17646 19.097 10.0062 19.5 12 19.5C13.9938 19.5 15.8235 19.097 17.1734 18.4221C18.1301 17.9437 18.9223 17.2844 19.2858 16.4787L19.5097 17.5981C19.5639 17.8688 19.8273 18.0444 20.0981 17.9903C20.3688 17.9361 20.5444 17.6727 20.4903 17.4019L19.9903 14.9019Z" fill="#47495F"/>
<path fill-rule="evenodd" clip-rule="evenodd" d="M12 5.5C10.067 5.5 8.5 7.067 8.5 9C8.5 10.933 10.067 12.5 12 12.5C13.933 12.5 15.5 10.933 15.5 9C15.5 7.067 13.933 5.5 12 5.5ZM7.5 9C7.5 6.51472 9.51472 4.5 12 4.5C14.4853 4.5 16.5 6.51472 16.5 9C16.5 11.4853 14.4853 13.5 12 13.5C9.51472 13.5 7.5 11.4853 7.5 9Z" fill="#47495F"/>
</svg>
