<svg width="24" height="24" viewBox="0 0 24 24" fill="none" xmlns="http://www.w3.org/2000/svg">
<path fill-rule="evenodd" clip-rule="evenodd" d="M11.5 6.66801V3C11.5 2.72386 11.7239 2.5 12 2.5C12.2761 2.5 12.5 2.72386 12.5 3V6.66801L18.194 9.0655C18.3794 9.14356 18.5 9.32514 18.5 9.52632V15.8421C18.5 15.8686 18.4979 15.8947 18.4939 15.9203L21.2564 17.5708C21.4935 17.7125 21.5708 18.0194 21.4292 18.2565C21.2876 18.4936 20.9806 18.5709 20.7435 18.4293L17.6592 16.5865L12.2329 19.4425C12.0871 19.5192 11.9129 19.5192 11.7671 19.4425L5.80385 16.3039L2.43301 18.2501C2.19386 18.3881 1.88806 18.3062 1.74999 18.067C1.61192 17.8279 1.69386 17.5221 1.93301 17.384L5.39711 15.384C5.43033 15.3649 5.46483 15.3499 5.49999 15.3391V9.52632C5.49999 9.32514 5.62056 9.14356 5.80596 9.0655L11.5 6.66801ZM11.5 12.5846L6.49999 10.3039V15.5402L11.5 18.1718V12.5846ZM17.5 15.5402L12.5 18.1718V12.5846L17.5 10.3039V15.5402ZM16.755 9.54463L12 11.7136L7.24496 9.54463L12 7.54251L16.755 9.54463Z" fill="#47495F"/>
</svg>
