<svg width="24" height="24" viewBox="0 0 24 24" fill="none" xmlns="http://www.w3.org/2000/svg">
<path fill-rule="evenodd" clip-rule="evenodd" d="M12 7.5C11.1716 7.5 10.5 8.17157 10.5 9C10.5 9.82843 11.1716 10.5 12 10.5C12.8284 10.5 13.5 9.82843 13.5 9C13.5 8.17157 12.8284 7.5 12 7.5ZM9.5 9C9.5 7.61929 10.6193 6.5 12 6.5C13.3807 6.5 14.5 7.61929 14.5 9C14.5 10.3807 13.3807 11.5 12 11.5C10.6193 11.5 9.5 10.3807 9.5 9Z" fill="#47495F"/>
<path fill-rule="evenodd" clip-rule="evenodd" d="M12 4.5C9.51472 4.5 7.5 6.51472 7.5 9C7.5 10.0716 7.8746 11.0558 8.5 11.8287V17C8.5 18.933 10.067 20.5 12 20.5C13.933 20.5 15.5 18.933 15.5 17V11.8287C16.1254 11.0558 16.5 10.0716 16.5 9C16.5 6.51472 14.4853 4.5 12 4.5ZM8.5 9C8.5 7.067 10.067 5.5 12 5.5C13.933 5.5 15.5 7.067 15.5 9C15.5 10.933 13.933 12.5 12 12.5C10.067 12.5 8.5 10.933 8.5 9ZM14.5 12.7422C13.785 13.2209 12.9251 13.5 12 13.5C11.0749 13.5 10.215 13.2209 9.5 12.7422V17C9.5 18.3807 10.6193 19.5 12 19.5C13.3807 19.5 14.5 18.3807 14.5 17V12.7422Z" fill="#47495F"/>
</svg>
