<svg width="24" height="24" viewBox="0 0 24 24" fill="none" xmlns="http://www.w3.org/2000/svg">
<path fill-rule="evenodd" clip-rule="evenodd" d="M8.24086 5.28502C9.22874 4.79108 10.5585 4.5 12 4.5C13.4415 4.5 14.7713 4.79108 15.7591 5.28502C16.7171 5.76401 17.5 6.51823 17.5 7.5C17.5 7.66668 17.4774 7.8268 17.4353 7.98013L17.4243 8.03807C17.3813 8.26189 17.3223 8.53678 17.2565 8.81477C17.1908 9.09232 17.1172 9.37813 17.0448 9.62254C16.9775 9.84973 16.8973 10.0913 16.8108 10.2451C16.5831 10.6501 16.2912 10.9999 15.9432 11.2951L14.0038 19.351C13.8416 20.025 13.2387 20.5 12.5455 20.5H11.4545C10.7613 20.5 10.1584 20.025 9.99616 19.351L8.05676 11.2951C7.70881 10.9999 7.41694 10.6501 7.18919 10.2451C7.10271 10.0913 7.02249 9.84973 6.95521 9.62255C6.88284 9.37813 6.80923 9.09232 6.74354 8.81477C6.67774 8.53678 6.61867 8.26189 6.57571 8.03807L6.56472 7.98013C6.52257 7.8268 6.5 7.66668 6.5 7.5C6.5 6.51823 7.28288 5.76401 8.24086 5.28502ZM8.68807 6.17945C7.8364 6.60528 7.5 7.10106 7.5 7.5C7.5 7.89894 7.8364 8.39472 8.68807 8.82055C9.50984 9.23143 10.6801 9.5 12 9.5C13.3199 9.5 14.4902 9.23143 15.3119 8.82055C16.1636 8.39472 16.5 7.89894 16.5 7.5C16.5 7.10106 16.1636 6.60528 15.3119 6.17945C14.4902 5.76857 13.3199 5.5 12 5.5C10.6801 5.5 9.50984 5.76857 8.68807 6.17945ZM9.25898 12.0164L10.9684 19.117C11.0225 19.3416 11.2234 19.5 11.4545 19.5H12.5455C12.7766 19.5 12.9775 19.3416 13.0316 19.117L14.741 12.0164C13.9578 12.3396 13.0301 12.5 12 12.5C10.9699 12.5 10.0422 12.3396 9.25898 12.0164ZM15.7591 9.71498C15.8438 9.67264 15.9271 9.62815 16.0087 9.58154C15.9769 9.67309 15.953 9.73043 15.9392 9.7549C15.3351 10.8291 14.0228 11.5 12 11.5C9.9772 11.5 8.66495 10.8291 8.06081 9.7549C8.04705 9.73043 8.02309 9.67309 7.99134 9.58154C8.07287 9.62815 8.15618 9.67264 8.24086 9.71498C9.22874 10.2089 10.5585 10.5 12 10.5C13.4415 10.5 14.7713 10.2089 15.7591 9.71498Z" fill="#47495F"/>
<path d="M11.5 16.5C11.5 16.7761 11.7239 17 12 17C12.2761 17 12.5 16.7761 12.5 16.5C12.5 16.2239 12.2761 16 12 16C11.7239 16 11.5 16.2239 11.5 16.5Z" fill="#47495F"/>
</svg>
