<svg width="24" height="24" viewBox="0 0 24 24" fill="none" xmlns="http://www.w3.org/2000/svg">
<path fill-rule="evenodd" clip-rule="evenodd" d="M9.5 9.94949C8.88141 9.31822 8.5 8.45365 8.5 7.5C8.5 5.567 10.067 4 12 4C13.933 4 15.5 5.567 15.5 7.5C15.5 8.45365 15.1186 9.31822 14.5 9.94949V17.5C14.5 18.8807 13.3807 20 12 20C10.6193 20 9.5 18.8807 9.5 17.5V9.94949ZM9.5 7.5C9.5 6.11929 10.6193 5 12 5C13.3807 5 14.5 6.11929 14.5 7.5C14.5 8.3178 14.1073 9.04389 13.5002 9.5C13.0824 9.81384 12.5628 10 12 10C11.4372 10 10.9178 9.81403 10.5 9.50018C9.89292 9.04407 9.5 8.3178 9.5 7.5ZM10.5 10.6632V17.5C10.5 18.3284 11.1716 19 12 19C12.8284 19 13.5 18.3284 13.5 17.5V10.6632C13.0454 10.8792 12.5368 11 12 11C11.4632 11 10.9546 10.8792 10.5 10.6632Z" fill="#47495F"/>
<path d="M11.5 16.5C11.5 16.7761 11.7239 17 12 17C12.2761 17 12.5 16.7761 12.5 16.5C12.5 16.2239 12.2761 16 12 16C11.7239 16 11.5 16.2239 11.5 16.5Z" fill="#47495F"/>
</svg>
