<svg width="24" height="24" viewBox="0 0 24 24" fill="none" xmlns="http://www.w3.org/2000/svg">
<path fill-rule="evenodd" clip-rule="evenodd" d="M6 9H18C18.5523 9 19 9.44772 19 10V14C19 14.5523 18.5523 15 18 15H12H6C5.44772 15 5 14.5523 5 14V10C5 9.44772 5.44772 9 6 9ZM12.5 16H18C19.1046 16 20 15.1046 20 14V10C20 8.89543 19.1046 8 18 8H6C4.89543 8 4 8.89543 4 10V14C4 15.1046 4.89543 16 6 16H11.5V17.5C11.5 17.7761 11.7239 18 12 18C12.2761 18 12.5 17.7761 12.5 17.5V16ZM3 9.5C3 9.22386 2.77614 9 2.5 9C2.22386 9 2 9.22386 2 9.5V14.5C2 14.7761 2.22386 15 2.5 15C2.77614 15 3 14.7761 3 14.5L3 9.5ZM21.5 9C21.7761 9 22 9.22386 22 9.5V14.5C22 14.7761 21.7761 15 21.5 15C21.2239 15 21 14.7761 21 14.5V9.5C21 9.22386 21.2239 9 21.5 9Z" fill="#47495F"/>
</svg>
