<svg width="24" height="24" viewBox="0 0 24 24" fill="none" xmlns="http://www.w3.org/2000/svg">
<path fill-rule="evenodd" clip-rule="evenodd" d="M18 10H6C5.44772 10 5 10.4477 5 11V15C5 15.5523 5.44772 16 6 16H18C18.5523 16 19 15.5523 19 15V11C19 10.4477 18.5523 10 18 10ZM6 9C4.89543 9 4 9.89543 4 11V15C4 16.1046 4.89543 17 6 17H18C19.1046 17 20 16.1046 20 15V11C20 9.89543 19.1046 9 18 9H6Z" fill="#47495F"/>
<path fill-rule="evenodd" clip-rule="evenodd" d="M2.5 10C2.77614 10 3 10.2239 3 10.5L3 15.5C3 15.7761 2.77614 16 2.5 16C2.22386 16 2 15.7761 2 15.5L2 10.5C2 10.2239 2.22386 10 2.5 10Z" fill="#47495F"/>
<path fill-rule="evenodd" clip-rule="evenodd" d="M21.5 10C21.7761 10 22 10.2239 22 10.5V15.5C22 15.7761 21.7761 16 21.5 16C21.2239 16 21 15.7761 21 15.5V10.5C21 10.2239 21.2239 10 21.5 10Z" fill="#47495F"/>
<path fill-rule="evenodd" clip-rule="evenodd" d="M11.1873 6.66165C11.445 6.55493 11.7211 6.5 12 6.5C12.2789 6.5 12.555 6.55493 12.8127 6.66165C13.0703 6.76837 13.3044 6.92479 13.5016 7.12198C13.6969 7.31725 13.6969 7.63383 13.5016 7.82909C13.3063 8.02435 12.9898 8.02435 12.7945 7.82909C12.6902 7.72476 12.5663 7.64199 12.43 7.58553C12.2937 7.52906 12.1476 7.5 12 7.5C11.8524 7.5 11.7063 7.52906 11.57 7.58553C11.4337 7.64199 11.3098 7.72476 11.2055 7.82909C11.0102 8.02435 10.6937 8.02435 10.4984 7.82909C10.3031 7.63383 10.3031 7.31725 10.4984 7.12198C10.6956 6.92479 10.9297 6.76837 11.1873 6.66165Z" fill="#47495F"/>
<path fill-rule="evenodd" clip-rule="evenodd" d="M10.1323 4.91653C10.7224 4.6422 11.3572 4.5 12 4.5C12.6428 4.5 13.2776 4.6422 13.8677 4.91653C14.4575 5.19076 14.9894 5.59084 15.4348 6.09078C15.6185 6.29697 15.6003 6.61303 15.3941 6.79672C15.1879 6.98041 14.8718 6.96217 14.6881 6.75599C14.3295 6.35339 13.9068 6.03754 13.4461 5.82332C12.9855 5.6092 12.4943 5.5 12 5.5C11.5057 5.5 11.0145 5.6092 10.5539 5.82332C10.0932 6.03754 9.67053 6.35339 9.31186 6.75599C9.12817 6.96217 8.81211 6.98041 8.60593 6.79672C8.39974 6.61303 8.38151 6.29697 8.5652 6.09078C9.0106 5.59084 9.54253 5.19076 10.1323 4.91653Z" fill="#47495F"/>
</svg>
