<svg width="24" height="24" viewBox="0 0 24 24" fill="none" xmlns="http://www.w3.org/2000/svg">
<path fill-rule="evenodd" clip-rule="evenodd" d="M19 9H5C4.44772 9 4 9.44772 4 10V14C4 14.5523 4.44772 15 5 15H8.33494C8.43112 15 8.5268 14.9861 8.61902 14.9588L11.1477 14.2096C11.704 14.0447 12.296 14.0447 12.8523 14.2096L15.381 14.9588C15.4732 14.9861 15.5689 15 15.6651 15H19C19.5523 15 20 14.5523 20 14V10C20 9.44772 19.5523 9 19 9ZM5 8C3.89543 8 3 8.89543 3 10V14C3 15.1046 3.89543 16 5 16H8.33494C8.52731 16 8.71867 15.9722 8.90311 15.9176L11.4318 15.1683C11.8026 15.0585 12.1974 15.0585 12.5682 15.1683L15.0969 15.9176C15.2813 15.9722 15.4727 16 15.6651 16H19C20.1046 16 21 15.1046 21 14V10C21 8.89543 20.1046 8 19 8H5Z" fill="#47495F"/>
<path fill-rule="evenodd" clip-rule="evenodd" d="M7.5 11C6.94772 11 6.5 11.4477 6.5 12C6.5 12.5523 6.94772 13 7.5 13C8.05228 13 8.5 12.5523 8.5 12C8.5 11.4477 8.05228 11 7.5 11ZM5.5 12C5.5 10.8954 6.39543 10 7.5 10C8.60457 10 9.5 10.8954 9.5 12C9.5 13.1046 8.60457 14 7.5 14C6.39543 14 5.5 13.1046 5.5 12Z" fill="#47495F"/>
<path fill-rule="evenodd" clip-rule="evenodd" d="M16.5 11C15.9477 11 15.5 11.4477 15.5 12C15.5 12.5523 15.9477 13 16.5 13C17.0523 13 17.5 12.5523 17.5 12C17.5 11.4477 17.0523 11 16.5 11ZM14.5 12C14.5 10.8954 15.3954 10 16.5 10C17.6046 10 18.5 10.8954 18.5 12C18.5 13.1046 17.6046 14 16.5 14C15.3954 14 14.5 13.1046 14.5 12Z" fill="#47495F"/>
</svg>
