<svg width="24" height="24" viewBox="0 0 24 24" fill="none" xmlns="http://www.w3.org/2000/svg">
<path fill-rule="evenodd" clip-rule="evenodd" d="M5 5.5C5 5.22386 5.22386 5 5.5 5H18.5C18.7761 5 19 5.22386 19 5.5C19 5.77614 18.7761 6 18.5 6H5.5C5.22386 6 5 5.77614 5 5.5Z" fill="#47495F"/>
<path fill-rule="evenodd" clip-rule="evenodd" d="M3 9C3 7.89543 3.89543 7 5 7H19C20.1046 7 21 7.89543 21 9V13C21 14.1046 20.1046 15 19 15H18.5C18.5 16.8086 17.7591 18.2063 16.5476 19.1389C15.3517 20.0595 13.7345 20.5 12 20.5C10.2655 20.5 8.64834 20.0595 7.45237 19.1389C6.24093 18.2063 5.5 16.8086 5.5 15H5C3.89543 15 3 14.1046 3 13V9ZM5 8H19C19.5523 8 20 8.44772 20 9V13C20 13.5523 19.5523 14 19 14H15.6651C15.5689 14 15.4732 13.9861 15.381 13.9588L12.8523 13.2096C12.296 13.0447 11.704 13.0447 11.1477 13.2096L8.61902 13.9588C8.5268 13.9861 8.43112 14 8.33494 14H5C4.44772 14 4 13.5523 4 13V9C4 8.44772 4.44772 8 5 8ZM6.5 15C6.5 16.5051 7.10222 17.6074 8.06234 18.3464C9.03795 19.0974 10.4208 19.5 12 19.5C13.5792 19.5 14.962 19.0974 15.9377 18.3464C16.8978 17.6074 17.5 16.5051 17.5 15H15.6651C15.4727 15 15.2813 14.9722 15.0969 14.9176L12.5682 14.1683C12.1974 14.0585 11.8026 14.0585 11.4318 14.1683L8.90311 14.9176C8.71867 14.9722 8.52731 15 8.33494 15H6.5Z" fill="#47495F"/>
</svg>
