<svg width="24" height="24" viewBox="0 0 24 24" fill="none" xmlns="http://www.w3.org/2000/svg">
<path fill-rule="evenodd" clip-rule="evenodd" d="M18 9H6C5.44772 9 5 9.44772 5 10V14C5 14.5523 5.44772 15 6 15H18C18.5523 15 19 14.5523 19 14V10C19 9.44772 18.5523 9 18 9ZM6 8C4.89543 8 4 8.89543 4 10V14C4 15.1046 4.89543 16 6 16H18C19.1046 16 20 15.1046 20 14V10C20 8.89543 19.1046 8 18 8H6Z" fill="#47495F"/>
<path fill-rule="evenodd" clip-rule="evenodd" d="M2.5 9C2.77614 9 3 9.22386 3 9.5L3 14.5C3 14.7761 2.77614 15 2.5 15C2.22386 15 2 14.7761 2 14.5L2 9.5C2 9.22386 2.22386 9 2.5 9Z" fill="#47495F"/>
<path fill-rule="evenodd" clip-rule="evenodd" d="M21.5 9C21.7761 9 22 9.22386 22 9.5V14.5C22 14.7761 21.7761 15 21.5 15C21.2239 15 21 14.7761 21 14.5V9.5C21 9.22386 21.2239 9 21.5 9Z" fill="#47495F"/>
<path fill-rule="evenodd" clip-rule="evenodd" d="M10 10.5C10 10.2239 10.2239 10 10.5 10H13.5C13.7761 10 14 10.2239 14 10.5C14 10.7761 13.7761 11 13.5 11H10.5C10.2239 11 10 10.7761 10 10.5Z" fill="#47495F"/>
</svg>
