<svg width="24" height="24" viewBox="0 0 24 24" fill="none" xmlns="http://www.w3.org/2000/svg">
<path fill-rule="evenodd" clip-rule="evenodd" d="M6.59083 9.5C7.81951 6.8522 10.2571 5 13.112 5C16.9404 5 20.0005 8.31145 20.444 12.448C20.5384 13.3283 19.8125 14 19 14H10.5625L10.719 15.2519C10.8682 16.4456 9.93743 17.5 8.73444 17.5H5C3.89543 17.5 3 16.6046 3 15.5V11.5C3 10.3954 3.89543 9.5 5 9.5H6.59083ZM7.70853 9.5C8.85374 7.3724 10.8647 6 13.112 6C16.3095 6 19.0468 8.79725 19.4497 12.5546C19.4731 12.7725 19.2921 13 19 13H10.5625L10.719 11.7481C10.8682 10.5544 9.93743 9.5 8.73444 9.5H7.70853ZM5 10.5H8.73444C9.33593 10.5 9.80132 11.0272 9.72671 11.624L9.53873 13.1279C9.50784 13.375 9.50784 13.625 9.53873 13.8721L9.72671 15.376C9.80132 15.9728 9.33593 16.5 8.73444 16.5H5C4.44772 16.5 4 16.0523 4 15.5V11.5C4 10.9477 4.44772 10.5 5 10.5Z" fill="#47495F"/>
</svg>
