<svg width="24" height="24" viewBox="0 0 24 24" fill="none" xmlns="http://www.w3.org/2000/svg">
<path fill-rule="evenodd" clip-rule="evenodd" d="M12 7.5C10.6193 7.5 9.5 8.61929 9.5 10C9.5 11.3807 10.6193 12.5 12 12.5C13.3807 12.5 14.5 11.3807 14.5 10C14.5 8.61929 13.3807 7.5 12 7.5ZM10.5 10C10.5 9.17157 11.1716 8.5 12 8.5C12.8284 8.5 13.5 9.17157 13.5 10C13.5 10.8284 12.8284 11.5 12 11.5C11.1716 11.5 10.5 10.8284 10.5 10Z" fill="#47495F"/>
<path d="M11 15.5C11 15.7761 10.7761 16 10.5 16C10.2239 16 10 15.7761 10 15.5C10 15.2239 10.2239 15 10.5 15C10.7761 15 11 15.2239 11 15.5Z" fill="#47495F"/>
<path d="M13.5 16C13.7761 16 14 15.7761 14 15.5C14 15.2239 13.7761 15 13.5 15C13.2239 15 13 15.2239 13 15.5C13 15.7761 13.2239 16 13.5 16Z" fill="#47495F"/>
<path fill-rule="evenodd" clip-rule="evenodd" d="M7 9C7 6.79086 8.79086 5 11 5H13C15.2091 5 17 6.79086 17 9V15C17 17.2091 15.2091 19 13 19H11C8.79086 19 7 17.2091 7 15V9ZM11 6H13C14.6569 6 16 7.34315 16 9V15C16 16.6569 14.6569 18 13 18H11C9.34315 18 8 16.6569 8 15V9C8 7.34315 9.34315 6 11 6Z" fill="#47495F"/>
</svg>
