<svg width="24" height="24" viewBox="0 0 24 24" fill="none" xmlns="http://www.w3.org/2000/svg">
<path fill-rule="evenodd" clip-rule="evenodd" d="M12.5012 9.89457C12.5572 7.45799 14.55 5.5 17 5.5C19.4853 5.5 21.5 7.51472 21.5 10C21.5 12.4853 19.4853 14.5 17 14.5C14.8324 14.5 13.0228 12.9675 12.5955 10.9268C10.6124 10.547 9.23136 10.911 8.29053 11.5406C7.33449 12.1803 6.77486 13.1332 6.51591 14.0119C7.11408 14.4687 7.5 15.1893 7.5 16C7.5 17.3807 6.38071 18.5 5 18.5C3.61929 18.5 2.5 17.3807 2.5 16C2.5 14.6193 3.61929 13.5 5 13.5C5.20862 13.5 5.41126 13.5256 5.60498 13.5737C5.9351 12.5614 6.60323 11.4664 7.7344 10.7095C8.87896 9.94359 10.4456 9.55863 12.5012 9.89457ZM17 6.5C15.067 6.5 13.5 8.067 13.5 10C13.5 11.933 15.067 13.5 17 13.5C18.933 13.5 20.5 11.933 20.5 10C20.5 8.067 18.933 6.5 17 6.5ZM5 14.5C4.17157 14.5 3.5 15.1716 3.5 16C3.5 16.8284 4.17157 17.5 5 17.5C5.82843 17.5 6.5 16.8284 6.5 16C6.5 15.1716 5.82843 14.5 5 14.5Z" fill="#47495F"/>
</svg>
