<svg width="24" height="24" viewBox="0 0 24 24" fill="none" xmlns="http://www.w3.org/2000/svg">
<path fill-rule="evenodd" clip-rule="evenodd" d="M11.7371 7.07468C11.8845 6.98357 12.0686 6.97529 12.2236 7.05279L16.2236 9.05279C16.3971 9.13955 16.5048 9.31886 16.4998 9.51281C16.4949 9.70675 16.3782 9.88032 16.2004 9.95808L12.5 11.577V14.5054C15.7244 14.5752 18.7204 15.3179 21.2212 16.5516C21.4688 16.6738 21.5706 16.9736 21.4484 17.2212C21.3262 17.4689 21.0264 17.5706 20.7788 17.4484C18.2947 16.223 15.2702 15.5 12 15.5C8.7298 15.5 5.70524 16.223 3.22119 17.4484C2.97354 17.5706 2.67375 17.4689 2.55158 17.2212C2.42941 16.9736 2.53114 16.6738 2.77879 16.5516C5.27959 15.3179 8.27556 14.5752 11.5 14.5054V7.5C11.5 7.32671 11.5897 7.16578 11.7371 7.07468ZM12.5 10.4855L14.8216 9.4698L12.5 8.30902V10.4855Z" fill="#47495F"/>
<path d="M17.5 18C17.7761 18 18 17.7761 18 17.5C18 17.2239 17.7761 17 17.5 17C17.2239 17 17 17.2239 17 17.5C17 17.7761 17.2239 18 17.5 18Z" fill="#47495F"/>
<path fill-rule="evenodd" clip-rule="evenodd" d="M7.38311 16.8862C6.88188 16.9705 6.42725 17.1814 6.10084 17.4804C5.77875 17.7755 5.53383 18.2092 5.61711 18.7043C5.7004 19.1994 6.07375 19.5291 6.47467 19.7026C6.88095 19.8784 7.37956 19.9289 7.8808 19.8446C8.38203 19.7603 8.83666 19.5494 9.16306 19.2503C9.48516 18.9553 9.73008 18.5215 9.6468 18.0264C9.56351 17.5313 9.19015 17.2016 8.78924 17.0281C8.38296 16.8524 7.88434 16.8018 7.38311 16.8862ZM6.60326 18.5384C6.59492 18.4889 6.60772 18.3722 6.77635 18.2178C6.94067 18.0672 7.20979 17.9294 7.54901 17.8723C7.88823 17.8152 8.18764 17.8574 8.39217 17.9459C8.60207 18.0367 8.65232 18.1428 8.66065 18.1923C8.66899 18.2419 8.65619 18.3585 8.48756 18.513C8.32324 18.6635 8.05412 18.8014 7.7149 18.8584C7.37568 18.9155 7.07627 18.8733 6.87174 18.7848C6.66184 18.694 6.61159 18.588 6.60326 18.5384Z" fill="#47495F"/>
</svg>
