<svg width="24" height="24" viewBox="0 0 24 24" fill="none" xmlns="http://www.w3.org/2000/svg">
<path fill-rule="evenodd" clip-rule="evenodd" d="M4.00088 14.8812C3.67655 13.9808 3.5 13.0105 3.5 12C3.5 7.30558 7.30558 3.5 12 3.5C16.6944 3.5 20.5 7.30558 20.5 12C20.5 16.6944 16.6944 20.5 12 20.5C9.36921 20.5 7.01736 19.3043 5.45897 17.4285C5.31431 17.4749 5.16008 17.5 5 17.5C4.17157 17.5 3.5 16.8284 3.5 16C3.5 15.5553 3.69349 15.1558 4.00088 14.8812ZM4.5 12C4.5 7.85786 7.85786 4.5 12 4.5C16.1421 4.5 19.5 7.85786 19.5 12C19.5 16.1421 16.1421 19.5 12 19.5C9.6942 19.5 7.63163 18.46 6.2551 16.8217C6.40994 16.5857 6.5 16.3034 6.5 16C6.5 15.1716 5.82843 14.5 5 14.5C4.9756 14.5 4.95134 14.5006 4.92723 14.5017C4.65069 13.7199 4.5 12.8781 4.5 12ZM4.5 16C4.5 15.7239 4.72386 15.5 5 15.5C5.27614 15.5 5.5 15.7239 5.5 16C5.5 16.2761 5.27614 16.5 5 16.5C4.72386 16.5 4.5 16.2761 4.5 16Z" fill="#47495F"/>
<path fill-rule="evenodd" clip-rule="evenodd" d="M12 9.5C10.6193 9.5 9.5 10.6193 9.5 12C9.5 13.3807 10.6193 14.5 12 14.5C13.3807 14.5 14.5 13.3807 14.5 12C14.5 10.6193 13.3807 9.5 12 9.5ZM8.5 12C8.5 10.067 10.067 8.5 12 8.5C13.933 8.5 15.5 10.067 15.5 12C15.5 13.933 13.933 15.5 12 15.5C10.067 15.5 8.5 13.933 8.5 12Z" fill="#47495F"/>
</svg>
