<svg width="24" height="24" viewBox="0 0 24 24" fill="none" xmlns="http://www.w3.org/2000/svg">
<path fill-rule="evenodd" clip-rule="evenodd" d="M14.5 11C16.6115 11 18.3762 12.5803 18.4938 14.6166L18.6937 14.6704C19.5742 14.9071 20.3486 15.1152 21.2236 15.5527C21.4706 15.6762 21.5707 15.9766 21.4472 16.2235C21.3237 16.4705 21.0234 16.5707 20.7764 16.4472C19.9986 16.0583 19.3322 15.8786 18.4591 15.6433C18.3112 15.6034 18.1575 15.562 17.9962 15.5177C17.9203 15.5591 17.8352 15.5978 17.7405 15.6339C17.2162 15.8336 16.2674 16 14.5 16C12.7326 16 11.7838 15.8336 11.2595 15.6339C10.9938 15.5327 10.8044 15.4108 10.6784 15.2668C10.6141 15.1932 10.568 15.1158 10.5387 15.0375C10.5242 14.9989 10.5144 14.9618 10.5083 14.927C10.4893 14.8181 10.4983 14.7058 10.5072 14.5947C10.5084 14.5799 10.5095 14.5651 10.5107 14.5504C10.1295 14.5763 9.75247 14.6121 9.38006 14.6574C9.45813 14.9247 9.5 15.2075 9.5 15.5C9.49719 15.6408 9.44703 15.7758 9.34505 15.8982C9.23652 16.0284 9.07877 16.132 8.8732 16.2142C8.47073 16.3752 7.76859 16.5 6.5 16.5C5.23141 16.5 4.52927 16.3752 4.1268 16.2142C4.0547 16.1854 3.98847 16.1539 3.92819 16.1196C3.68797 16.2247 3.45222 16.3344 3.22119 16.4484C2.97354 16.5705 2.67375 16.4688 2.55158 16.2211C2.42941 15.9735 2.53114 15.6737 2.77879 15.5515C3.01936 15.4329 3.26448 15.3187 3.5139 15.2094C3.66007 13.6889 4.9412 12.5 6.5 12.5C7.48612 12.5 8.36112 12.9758 8.90795 13.7103C9.50599 13.6278 10.1155 13.5689 10.7345 13.5347C11.2924 12.047 12.7813 11 14.5 11ZM11.5061 14.652C11.5336 14.6658 11.5694 14.6819 11.6155 14.6994C11.9662 14.833 12.7674 15 14.5 15C16.2326 15 17.0338 14.833 17.3845 14.6994C17.4306 14.6819 17.4664 14.6658 17.4939 14.652C17.3953 13.1914 16.1138 12 14.5 12C12.8862 12 11.6047 13.1914 11.5061 14.652ZM6.5 15.5C5.29126 15.5 4.74113 15.3793 4.51082 15.2907C4.61545 14.2845 5.46611 13.5 6.5 13.5C7.53389 13.5 8.38455 14.2845 8.48918 15.2907C8.25887 15.3793 7.70874 15.5 6.5 15.5Z" fill="#47495F"/>
<path d="M17.5 18C17.7761 18 18 17.7761 18 17.5C18 17.2239 17.7761 17 17.5 17C17.2239 17 17 17.2239 17 17.5C17 17.7761 17.2239 18 17.5 18Z" fill="#47495F"/>
</svg>
