<svg width="24" height="24" viewBox="0 0 24 24" fill="none" xmlns="http://www.w3.org/2000/svg">
<path fill-rule="evenodd" clip-rule="evenodd" d="M12 2.5C12.1519 2.5 12.2955 2.56904 12.3904 2.68765L14.3904 5.18765C14.4614 5.27631 14.5 5.38646 14.5 5.5V20C14.5 20.2761 14.2761 20.5 14 20.5H10C9.72386 20.5 9.5 20.2761 9.5 20V5.5C9.5 5.38646 9.53864 5.27631 9.60957 5.18765L11.6096 2.68765C11.7045 2.56904 11.8481 2.5 12 2.5ZM10.5 5.67539V19.5H13.5V5.67539L12 3.80039L10.5 5.67539Z" fill="#47495F"/>
<path fill-rule="evenodd" clip-rule="evenodd" d="M11 21.5C11 21.2239 11.2239 21 11.5 21H12.5C12.7761 21 13 21.2239 13 21.5C13 21.7761 12.7761 22 12.5 22H11.5C11.2239 22 11 21.7761 11 21.5Z" fill="#47495F"/>
<path fill-rule="evenodd" clip-rule="evenodd" d="M16.5 8.5C16.7761 8.5 17 8.72386 17 9V20C17 20.2761 16.7761 20.5 16.5 20.5C16.2239 20.5 16 20.2761 16 20V9C16 8.72386 16.2239 8.5 16.5 8.5Z" fill="#47495F"/>
<path fill-rule="evenodd" clip-rule="evenodd" d="M7.5 8.5C7.77614 8.5 8 8.72386 8 9V20C8 20.2761 7.77614 20.5 7.5 20.5C7.22386 20.5 7 20.2761 7 20V9C7 8.72386 7.22386 8.5 7.5 8.5Z" fill="#47495F"/>
</svg>
