<svg width="24" height="24" viewBox="0 0 24 24" fill="none" xmlns="http://www.w3.org/2000/svg">
<path fill-rule="evenodd" clip-rule="evenodd" d="M11 21.5C11 21.2239 11.2239 21 11.5 21H12.5C12.7762 21 13 21.2239 13 21.5C13 21.7761 12.7762 22 12.5 22H11.5C11.2239 22 11 21.7761 11 21.5Z" fill="#47495F"/>
<path fill-rule="evenodd" clip-rule="evenodd" d="M11.6799 2.61589C11.8654 2.46137 12.1347 2.46137 12.3201 2.61589L12.4416 2.71712C14.3795 4.33207 15.5 6.72437 15.5 9.247V13.25L17.3001 14.6C17.426 14.6945 17.5001 14.8427 17.5001 15V20C17.5001 20.2762 17.2762 20.5 17.0001 20.5C16.7239 20.5 16.5001 20.2762 16.5001 20V15.25L15.5 14.5V20C15.5 20.2761 15.2762 20.5 15 20.5H9.00003C8.72389 20.5 8.50003 20.2761 8.50003 20V14.5L7.5 15.25V20C7.5 20.2762 7.27614 20.5 7 20.5C6.72386 20.5 6.5 20.2762 6.5 20V15C6.5 14.8427 6.5741 14.6945 6.7 14.6L8.50003 13.25V9.247C8.50003 6.72437 9.62052 4.33207 11.5585 2.71712L11.6799 2.61589ZM9.50003 19.5H14.5V9.247C14.5 7.10879 13.5877 5.0767 12 3.65682C10.4124 5.0767 9.50003 7.10879 9.50003 9.247V19.5Z" fill="#47495F"/>
</svg>
