<svg width="24" height="24" viewBox="0 0 24 24" fill="none" xmlns="http://www.w3.org/2000/svg">
<path fill-rule="evenodd" clip-rule="evenodd" d="M19.3536 12.3536C19.5489 12.5488 19.5489 12.8654 19.3536 13.0607L16.0607 16.3536C15.8654 16.5488 15.5489 16.5488 15.3536 16.3536C15.1583 16.1583 15.1583 15.8417 15.3536 15.6465L18.6465 12.3536C18.8418 12.1583 19.1583 12.1583 19.3536 12.3536Z" fill="#47495F"/>
<path fill-rule="evenodd" clip-rule="evenodd" d="M20.6402 4.07604C20.6183 3.83566 20.4279 3.64521 20.1875 3.62336L20.03 3.60904C17.5178 3.38066 15.0338 4.27996 13.2501 6.06373L5.64655 13.6672C5.45129 13.8625 5.45129 14.1791 5.64655 14.3744L6.63618 15.364L3.35365 18.6465C3.15838 18.8418 3.15838 19.1584 3.35365 19.3536C3.54891 19.5489 3.86549 19.5489 4.06075 19.3536L7.34329 16.0711L9.88919 18.617C10.0845 18.8123 10.401 18.8123 10.5963 18.617L18.1998 11.0135C19.9836 9.22971 20.8829 6.74579 20.6545 4.23352L20.6402 4.07604ZM13.9572 6.77084C15.4691 5.2589 17.5511 4.46712 19.6778 4.58575C19.7964 6.7124 19.0047 8.79443 17.4927 10.3064L10.2427 17.5563L6.70721 14.0208L13.9572 6.77084Z" fill="#47495F"/>
<path fill-rule="evenodd" clip-rule="evenodd" d="M5.3536 11.3536C5.54886 11.5488 5.54886 11.8654 5.3536 12.0607L4.06071 13.3536C3.86544 13.5488 3.54886 13.5488 3.3536 13.3536C3.15834 13.1583 3.15834 12.8417 3.3536 12.6465L4.64649 11.3536C4.84176 11.1583 5.15834 11.1583 5.3536 11.3536Z" fill="#47495F"/>
<path fill-rule="evenodd" clip-rule="evenodd" d="M8.3536 17.8536C8.54886 18.0488 8.54886 18.3654 8.3536 18.5607L7.06071 19.8536C6.86544 20.0489 6.54886 20.0489 6.3536 19.8536C6.15834 19.6583 6.15834 19.3417 6.3536 19.1465L7.64649 17.8536C7.84175 17.6583 8.15834 17.6583 8.3536 17.8536Z" fill="#47495F"/>
</svg>
