<svg width="24" height="24" viewBox="0 0 24 24" fill="none" xmlns="http://www.w3.org/2000/svg">
<path fill-rule="evenodd" clip-rule="evenodd" d="M7 10.5V7.5C7 7.22386 7.22386 7 7.5 7C7.77614 7 8 7.22386 8 7.5V10.5H15.7169L17.0712 8.24275C17.1616 8.09215 17.3243 8 17.5 8H19.2928L20.1464 7.14645C20.3417 6.95118 20.6582 6.95118 20.8535 7.14645C21.0488 7.34171 21.0488 7.65829 20.8535 7.85355L20.2071 8.5L20.8535 9.14645C21.0488 9.34171 21.0488 9.65829 20.8535 9.85355C20.6582 10.0488 20.3417 10.0488 20.1464 9.85355L19.2928 9H17.783L16.883 10.5H18C18.2761 10.5 18.5 10.7239 18.5 11V14.5C19.6046 14.5 20.5 15.3954 20.5 16.5C20.5 17.6046 19.6046 18.5 18.5 18.5C17.3954 18.5 16.5 17.6046 16.5 16.5H7.5C7.5 17.6046 6.60457 18.5 5.5 18.5C4.39543 18.5 3.5 17.6046 3.5 16.5C3.5 15.3954 4.39543 14.5 5.5 14.5V11C5.5 10.7239 5.72386 10.5 6 10.5H7ZM16.0082 11.5C16.0024 11.5001 15.9966 11.5001 15.9908 11.5H6.5V14.7676C6.80363 14.9432 7.0568 15.1964 7.23244 15.5H16.7676C16.9432 15.1964 17.1964 14.9432 17.5 14.7676V11.5H16.0082ZM5.5 15.5C4.94772 15.5 4.5 15.9477 4.5 16.5C4.5 17.0523 4.94772 17.5 5.5 17.5C6.05228 17.5 6.5 17.0523 6.5 16.5C6.5 15.9477 6.05228 15.5 5.5 15.5ZM18.5 15.5C17.9477 15.5 17.5 15.9477 17.5 16.5C17.5 17.0523 17.9477 17.5 18.5 17.5C19.0523 17.5 19.5 17.0523 19.5 16.5C19.5 15.9477 19.0523 15.5 18.5 15.5Z" fill="#47495F"/>
</svg>
