<svg width="24" height="24" viewBox="0 0 24 24" fill="none" xmlns="http://www.w3.org/2000/svg">
<path fill-rule="evenodd" clip-rule="evenodd" d="M12 4.5C7.85786 4.5 4.5 7.85786 4.5 12C4.5 13.9315 5.23072 15.6932 6.42981 17.0223L5.55279 18.7764C5.47529 18.9314 5.48357 19.1154 5.57468 19.2628C5.66578 19.4102 5.82671 19.5 6 19.5H18C18.1733 19.5 18.3342 19.4102 18.4253 19.2628C18.5164 19.1154 18.5247 18.9314 18.4472 18.7764L17.5702 17.0223C18.7693 15.6932 19.5 13.9315 19.5 12C19.5 7.85786 16.1421 4.5 12 4.5ZM5.5 12C5.5 8.41015 8.41015 5.5 12 5.5C15.5899 5.5 18.5 8.41015 18.5 12C18.5 13.7466 17.8117 15.3316 16.6904 16.5H16.6709C17.3164 14.219 17.3795 12.5745 16.8697 10.3374C16.6161 9.22475 15.6027 8.5 14.5022 8.5H9.49376C8.39561 8.5 7.38611 9.21878 7.11158 10.3171C6.66814 12.0912 6.54618 13.7695 7.32647 16.5H7.30957C6.18829 15.3316 5.5 13.7466 5.5 12ZM15.8947 10.5596C16.3816 12.6964 16.3103 14.2088 15.6298 16.5H8.36856C7.54637 13.767 7.66765 12.2162 8.08173 10.5596C8.23685 9.93902 8.82006 9.5 9.49376 9.5H14.5022C15.1773 9.5 15.7537 9.94101 15.8947 10.5596ZM16.691 17.5H7.309L6.80902 18.5H17.191L16.691 17.5Z" fill="#47495F"/>
</svg>
