<svg width="24" height="24" viewBox="0 0 24 24" fill="none" xmlns="http://www.w3.org/2000/svg">
<path fill-rule="evenodd" clip-rule="evenodd" d="M18.0021 17.4764C17.8954 17.7341 17.739 17.9682 17.5418 18.1654C17.3446 18.3626 17.1105 18.519 16.8528 18.6257C16.5952 18.7324 16.319 18.7873 16.0402 18.7873C15.764 18.7873 15.5402 18.5635 15.5402 18.2873C15.5402 18.0112 15.764 17.7873 16.0402 17.7873C16.1877 17.7873 16.3338 17.7583 16.4701 17.7018C16.6065 17.6454 16.7303 17.5626 16.8347 17.4583C16.939 17.3539 17.0218 17.2301 17.0782 17.0937C17.1347 16.9574 17.1638 16.8113 17.1638 16.6638C17.1638 16.3876 17.3876 16.1638 17.6638 16.1638C17.9399 16.1638 18.1638 16.3876 18.1638 16.6638C18.1638 16.9426 18.1088 17.2188 18.0021 17.4764Z" fill="#47495F"/>
<path fill-rule="evenodd" clip-rule="evenodd" d="M4.49792 6.52361C4.60464 6.26597 4.76106 6.03186 4.95825 5.83467C5.15544 5.63748 5.38955 5.48105 5.64719 5.37433C5.90484 5.26761 6.18098 5.21268 6.45986 5.21268C6.736 5.21268 6.95986 5.43654 6.95986 5.71268C6.95986 5.98883 6.736 6.21268 6.45986 6.21268C6.3123 6.21268 6.1662 6.24175 6.02988 6.29821C5.89356 6.35468 5.76969 6.43744 5.66536 6.54178C5.56102 6.64611 5.47826 6.76997 5.4218 6.90629C5.36533 7.04261 5.33627 7.18872 5.33627 7.33627C5.33627 7.61242 5.11241 7.83627 4.83627 7.83627C4.56013 7.83627 4.33627 7.61242 4.33627 7.33627C4.33627 7.0574 4.3912 6.78126 4.49792 6.52361Z" fill="#47495F"/>
<path fill-rule="evenodd" clip-rule="evenodd" d="M19.0607 3.35352C18.4749 2.76774 17.5251 2.76774 16.9394 3.35352L13.4038 6.88906C12.818 7.47484 12.818 8.42459 13.4038 9.01038L13.8432 9.44974L13.4335 9.85945L10.7442 7.17015C10.1584 6.58436 9.20863 6.58436 8.62285 7.17015L6.70752 9.08548C6.12174 9.67126 6.12174 10.621 6.70752 11.2068L9.39682 13.8961L9.00004 14.2929L8.56067 13.8535C7.97488 13.2677 7.02514 13.2677 6.43935 13.8535L2.90382 17.3891C2.31803 17.9748 2.31803 18.9246 2.90382 19.5104L4.31803 20.9246C4.90382 21.5104 5.85356 21.5104 6.43935 20.9246L9.97488 17.3891C10.5607 16.8033 10.5607 15.8535 9.97488 15.2677L9.70714 15L10.1039 14.6032L12.3644 16.8637C12.9502 17.4494 13.8999 17.4494 14.4857 16.8637L16.401 14.9483C16.9868 14.3625 16.9868 13.4128 16.401 12.827L14.1406 10.5666L14.5503 10.1568L14.818 10.4246C15.4038 11.0104 16.3536 11.0104 16.9394 10.4246L20.4749 6.88906C21.0607 6.30327 21.0607 5.35352 20.4749 4.76774L19.0607 3.35352ZM8.64236 15.3494L8.64646 15.3536L8.6506 15.3577L9.26778 15.9748C9.46304 16.1701 9.46304 16.4867 9.26778 16.682L5.73224 20.2175C5.53698 20.4127 5.2204 20.4127 5.02514 20.2175L3.61092 18.8033C3.41566 18.608 3.41566 18.2914 3.61092 18.0962L7.14646 14.5606C7.34172 14.3654 7.6583 14.3654 7.85356 14.5606L8.64236 15.3494ZM17.6465 4.06063C17.8417 3.86537 18.1583 3.86537 18.3536 4.06063L19.7678 5.47484C19.963 5.67011 19.963 5.98669 19.7678 6.18195L16.2322 9.71749C16.037 9.91275 15.7204 9.91275 15.5251 9.71749L14.1109 8.30327C13.9157 8.10801 13.9157 7.79143 14.1109 7.59617L17.6465 4.06063ZM7.41463 10.4997C7.21937 10.3044 7.21937 9.98784 7.41463 9.79258L9.32995 7.87726C9.52522 7.68199 9.8418 7.68199 10.0371 7.87726L15.6939 13.5341C15.8892 13.7294 15.8892 14.046 15.6939 14.2412L13.7786 16.1565C13.5833 16.3518 13.2667 16.3518 13.0715 16.1565L7.41463 10.4997Z" fill="#47495F"/>
</svg>
