<svg width="24" height="24" viewBox="0 0 24 24" fill="none" xmlns="http://www.w3.org/2000/svg">
<path fill-rule="evenodd" clip-rule="evenodd" d="M8.9689 6.73462C8.56324 6.84892 8.19944 7.02304 7.88834 7.29183C7.57659 7.56118 7.34156 7.90502 7.16434 8.32489C6.79102 9.20937 6.81598 10.3299 7.13965 11.6371C7.46542 12.9528 8.10972 14.521 9.05611 16.3461C9.06183 16.3571 9.06795 16.3679 9.07447 16.3785C9.48238 17.0396 10.0961 17.3149 10.6528 17.4253C11.1508 17.524 11.6635 17.5937 11.9453 17.59C12.2272 17.5937 12.7398 17.524 13.2379 17.4253C13.7945 17.3149 14.4082 17.0396 14.8162 16.3785C14.8227 16.3679 14.8288 16.3571 14.8345 16.3461C15.7809 14.521 16.4252 12.9528 16.751 11.6371C17.0746 10.3299 17.0996 9.20937 16.7263 8.32489C16.5491 7.90502 16.314 7.56118 16.0023 7.29183C15.6912 7.02304 15.3274 6.84892 14.9217 6.73462C13.966 6.46532 12.9286 6.49965 11.9453 6.50001C10.9621 6.49965 9.92466 6.46532 8.9689 6.73462ZM11.9453 7.50001C10.7051 7.50064 9.85588 7.52364 9.2401 7.69714C8.94102 7.78141 8.71807 7.89649 8.54211 8.04852C8.36679 8.19999 8.21444 8.40859 8.08564 8.71375C7.83399 9.30995 7.80902 10.1798 8.11033 11.3967C8.40855 12.6012 9.01121 14.0851 9.93463 15.868C10.1516 16.2097 10.4717 16.3699 10.8472 16.4444C11.5125 16.5762 12.3839 16.5751 13.0434 16.4444C13.4189 16.3699 13.739 16.2097 13.956 15.868C14.8794 14.0851 15.4821 12.6012 15.7803 11.3967C16.0816 10.1798 16.0566 9.30995 15.805 8.71375C15.6762 8.40859 15.5238 8.19999 15.3485 8.04852C15.1726 7.89649 14.9496 7.78141 14.6505 7.69714C14.0347 7.52364 13.1855 7.50064 11.9453 7.50001Z" fill="#47495F"/>
<path fill-rule="evenodd" clip-rule="evenodd" d="M9.19459 20.5C8.27636 20.5 7.42203 19.9951 7.00833 19.1582C6.87516 18.8888 6.72378 18.5766 6.56148 18.2315L5.01519 19.4685C4.79956 19.641 4.48491 19.6061 4.31241 19.3904C4.1399 19.1748 4.17486 18.8602 4.3905 18.6877L6.10963 17.3124C6.11711 17.3064 6.12471 17.3006 6.13242 17.2952C5.80277 16.556 5.45621 15.73 5.14093 14.8822C4.5223 13.2188 4 11.4099 4 10C4 8.11452 4.67866 6.51435 5.33715 5.40335C6.13121 4.06361 7.63103 3.5 9.07109 3.5H15.3561C16.7359 3.5 18.1745 4.01471 18.9891 5.26368C19.7161 6.37849 20.5 8.03348 20.5 10C20.5 11.4277 19.9317 13.2593 19.2645 14.9345C18.9432 15.741 18.5925 16.5268 18.2567 17.2357C18.3038 17.2537 18.3489 17.2792 18.3904 17.3124L20.1095 18.6877C20.3251 18.8602 20.3601 19.1748 20.1876 19.3904C20.0151 19.6061 19.7004 19.641 19.4848 19.4685L17.8189 18.1358C17.6146 18.5456 17.4249 18.9121 17.2623 19.2197C16.8371 20.0239 16.0021 20.5 15.109 20.5H9.19459ZM6.1974 5.91321C6.75559 4.97145 7.85901 4.5 9.07109 4.5H15.3561C16.5168 4.5 17.5782 4.93092 18.1514 5.80995C18.8188 6.83325 19.5 8.29769 19.5 10C19.5 11.2223 18.9982 12.9007 18.3354 14.5644C17.6797 16.2106 16.8939 17.7771 16.3783 18.7523C16.134 19.2144 15.6481 19.5 15.109 19.5L9.19459 19.5C8.64128 19.5 8.14316 19.1973 7.90479 18.7151C7.41701 17.7283 6.68609 16.1682 6.07821 14.5336C5.46437 12.8831 5 11.2182 5 10C5 8.35327 5.59447 6.93048 6.1974 5.91321Z" fill="#47495F"/>
<path fill-rule="evenodd" clip-rule="evenodd" d="M11 13.5C11.2761 13.5 11.5 13.7239 11.5 14C11.5 14.2761 11.7239 14.5 12 14.5C12.2761 14.5 12.5 14.2761 12.5 14C12.5 13.7239 12.7239 13.5 13 13.5C13.2761 13.5 13.5 13.7239 13.5 14C13.5 14.8284 12.8284 15.5 12 15.5C11.1716 15.5 10.5 14.8284 10.5 14C10.5 13.7239 10.7239 13.5 11 13.5Z" fill="#47495F"/>
</svg>
