<svg width="24" height="24" viewBox="0 0 24 24" fill="none" xmlns="http://www.w3.org/2000/svg">
<path fill-rule="evenodd" clip-rule="evenodd" d="M15.5 5C15.7761 5 16 5.22386 16 5.5V7.5H18V5.5C18 5.22386 18.2239 5 18.5 5C18.7761 5 19 5.22386 19 5.5V7.5H20C20.2761 7.5 20.5 7.72386 20.5 8V12C20.5 12.2761 20.2761 12.5 20 12.5H17.5V18C17.5 18.8284 16.8284 19.5 16 19.5H9C8.17157 19.5 7.5 18.8284 7.5 18V15.8319C7.40693 15.7938 7.32199 15.7519 7.24657 15.7084C7.12496 15.6382 6.99469 15.5444 6.86659 15.4275C6.62159 15.5544 6.32309 15.637 5.99134 15.6314C5.46911 15.6226 4.91279 15.3965 4.39107 14.8748C3.27885 13.7626 3.39283 12.2154 3.57726 11.5802C3.625 11.4157 3.75358 11.2871 3.91802 11.2394C4.38956 11.1025 5.58615 11.0007 6.73266 11.6356C7.85052 9.9772 9.68984 9.518 10.5317 9.49662C10.7193 9.49186 10.8939 9.59262 10.9836 9.75753C11.4079 10.5375 11.9652 12.5215 10.8747 14.4103C10.3247 15.3628 9.61858 15.825 8.91773 15.966C8.77516 15.9947 8.63538 16.0096 8.5 16.0132V18C8.5 18.2761 8.72386 18.5 9 18.5H16C16.2761 18.5 16.5 18.2761 16.5 18V12.5H14C13.7239 12.5 13.5 12.2761 13.5 12V8C13.5 7.72386 13.7239 7.5 14 7.5H15V5.5C15 5.22386 15.2239 5 15.5 5ZM14.5 8.5V11.5H19.5V8.5H14.5ZM6.26775 14.5957C6.23858 14.5296 6.21181 14.461 6.18785 14.3899C6.00909 13.8595 5.99925 13.2278 6.26736 12.5214C5.59503 12.1432 4.89422 12.1081 4.47932 12.15C4.4099 12.6882 4.47952 13.549 5.09818 14.1677C5.46389 14.5334 5.78163 14.6277 6.00821 14.6315C6.10284 14.6331 6.19015 14.6191 6.26775 14.5957ZM7.42273 12.4173C8.16647 11.1291 9.46715 10.6451 10.2382 10.5267C10.5212 11.2536 10.7524 12.6221 10.0086 13.9103C9.58328 14.647 9.10453 14.9084 8.7205 14.9857C8.3141 15.0674 7.94465 14.9567 7.74657 14.8424C7.54848 14.728 7.26787 14.4634 7.13548 14.0706C7.01038 13.6994 6.99739 13.154 7.42273 12.4173Z" fill="#47495F"/>
</svg>
