<svg width="24" height="24" viewBox="0 0 24 24" fill="none" xmlns="http://www.w3.org/2000/svg">
<path fill-rule="evenodd" clip-rule="evenodd" d="M13.9521 12.4501C12.5569 12.1926 11.5 10.9697 11.5 9.5C11.5 7.84315 12.8431 6.5 14.5 6.5C16.1569 6.5 17.5 7.84315 17.5 9.5C17.5 11.0032 16.3945 12.2481 14.9521 12.4662V13.5H18C18.2761 13.5 18.5 13.7239 18.5 14V18C18.5 18.2761 18.2761 18.5 18 18.5C17.7239 18.5 17.5 18.2761 17.5 18V14.5H10.5V18C10.5 18.2761 10.2761 18.5 10 18.5C9.72386 18.5 9.5 18.2761 9.5 18V8.5H6.5V18C6.5 18.2761 6.27614 18.5 6 18.5C5.72386 18.5 5.5 18.2761 5.5 18V8C5.5 7.72386 5.72386 7.5 6 7.5H10C10.2761 7.5 10.5 7.72386 10.5 8V13.5H13.9521V12.4501ZM12.5 9.5C12.5 8.39543 13.3954 7.5 14.5 7.5C15.6046 7.5 16.5 8.39543 16.5 9.5C16.5 10.4491 15.8389 11.2437 14.9521 11.4487V11C14.9521 10.7239 14.7283 10.5 14.4521 10.5C14.176 10.5 13.9521 10.7239 13.9521 11V11.424C13.1139 11.1858 12.5 10.4146 12.5 9.5Z" fill="#47495F"/>
</svg>
