<svg width="24" height="24" viewBox="0 0 24 24" fill="none" xmlns="http://www.w3.org/2000/svg">
<path fill-rule="evenodd" clip-rule="evenodd" d="M10.0002 5C9.72401 5 9.50016 5.22386 9.50016 5.5V9H8.00016C7.72401 9 7.50016 9.22386 7.50016 9.5V11.6429C7.50016 11.664 7.50147 11.6849 7.50402 11.7053C6.63309 11.6579 5.90286 11.7996 5.47178 11.9578C5.27316 12.0307 5.14192 12.2207 5.14407 12.4323C5.15392 13.4023 5.70493 15.5947 7.79182 17.0361C8.78283 17.7206 9.66855 17.9203 10.4088 17.8256C10.8406 17.7704 11.2035 17.6172 11.4905 17.4258C11.4948 17.4307 11.4992 17.4357 11.5036 17.4406C11.5013 17.4601 11.5002 17.4799 11.5002 17.5V19.5C11.5002 19.7761 11.724 20 12.0002 20C12.2763 20 12.5002 19.7761 12.5002 19.5V18.1646C12.6695 18.2407 12.8531 18.305 13.0507 18.3531C13.9765 18.5785 15.1503 18.4358 16.536 17.608C19.3007 15.9566 20.1795 13.2247 20.2721 12.0111C20.2882 11.8002 20.1698 11.6019 19.9764 11.5161C19.46 11.2869 18.5754 11.0518 17.4992 11.0308C17.4998 11.0206 17.5002 11.0103 17.5002 11V7.5C17.5002 7.22386 17.2763 7 17.0002 7H14.5002V5.5C14.5002 5.22386 14.2763 5 14.0002 5H10.0002ZM9.50016 12.1484C9.14846 12.0063 8.80042 11.9034 8.46312 11.832C8.487 11.7737 8.50016 11.7098 8.50016 11.6429V10H9.50016V12.1484ZM10.7148 12.8041C10.6434 12.7548 10.5718 12.7075 10.5002 12.6622V6H13.5002V12C13.5002 12.0079 13.5003 12.0159 13.5007 12.0237C13.4262 12.0651 13.3517 12.108 13.2772 12.1525C12.5326 12.5972 11.9912 13.0819 11.6123 13.5782C11.3727 13.3132 11.0762 13.0537 10.7148 12.8041ZM10.1465 13.627C10.5882 13.9321 10.8858 14.234 11.0831 14.5133C11.0375 14.632 10.9996 14.7504 10.969 14.868C10.8038 15.5013 10.855 16.0861 11.0002 16.5481C10.8276 16.678 10.587 16.7947 10.2819 16.8337C9.83544 16.8908 9.19301 16.7885 8.36013 16.2133C6.84896 15.1695 6.30557 13.659 6.17655 12.795C7.0302 12.6098 8.63531 12.5832 10.1465 13.627ZM12.0103 16.4013C12.0337 16.4374 12.0521 16.4761 12.0653 16.5161C12.0739 16.5321 12.0825 16.5474 12.0912 16.562C12.2564 16.8385 12.654 17.2273 13.2873 17.3815C13.907 17.5324 14.8132 17.4723 16.0232 16.7495C18.184 15.4588 19.0166 13.4143 19.2251 12.3007C18.1457 11.9563 15.9509 11.7202 13.79 13.011C12.58 13.7337 12.0975 14.5031 11.9366 15.1203C11.7998 15.6449 11.8833 16.103 12.0103 16.4013ZM16.5055 11.0732C16.502 11.0493 16.5002 11.0249 16.5002 11V8H14.5002V11.5559C15.1909 11.2895 15.8688 11.1404 16.5055 11.0732Z" fill="#47495F"/>
</svg>
