<svg width="24" height="24" viewBox="0 0 24 24" fill="none" xmlns="http://www.w3.org/2000/svg">
<path fill-rule="evenodd" clip-rule="evenodd" d="M12.2236 5.55279C12.0828 5.4824 11.9172 5.4824 11.7764 5.55279C11.0517 5.91511 9.9946 6.65785 9.1133 7.73304C8.2286 8.81237 7.5 10.254 7.5 12C7.5 13.763 8.24577 14.9131 9.20785 15.6058C9.95253 16.1419 10.8061 16.3908 11.5 16.4703V19C11.5 19.2761 11.7239 19.5 12 19.5C12.2761 19.5 12.5 19.2761 12.5 19V16.4703C13.1939 16.3908 14.0475 16.1419 14.7922 15.6058C15.7542 14.9131 16.5 13.763 16.5 12C16.5 10.254 15.7714 8.81237 14.8867 7.73304C14.0054 6.65785 12.9483 5.91511 12.2236 5.55279ZM12.5 15.4622C13.0303 15.3858 13.6638 15.186 14.2078 14.7942C14.9124 14.2869 15.5 13.437 15.5 12C15.5 10.546 14.8953 9.32096 14.1133 8.36696C13.4187 7.51952 12.6008 6.90745 12 6.56676C11.3992 6.90745 10.5813 7.51952 9.8867 8.36696C9.10473 9.32096 8.5 10.546 8.5 12C8.5 13.437 9.08757 14.2869 9.79215 14.7942C10.3362 15.186 10.9697 15.3858 11.5 15.4622V11C11.5 10.7239 11.7239 10.5 12 10.5C12.2761 10.5 12.5 10.7239 12.5 11V15.4622Z" fill="#47495F"/>
</svg>
