<svg width="24" height="24" viewBox="0 0 24 24" fill="none" xmlns="http://www.w3.org/2000/svg">
<path fill-rule="evenodd" clip-rule="evenodd" d="M17.9834 4.75753C17.8937 4.59262 17.7192 4.49186 17.5315 4.49662C16.6897 4.518 14.8504 4.9772 13.7325 6.63556C12.586 6.00069 11.3894 6.1025 10.9179 6.2394C10.7535 6.28714 10.6249 6.41572 10.5771 6.58017C10.3927 7.2154 10.2787 8.76256 11.391 9.87479C11.9127 10.3965 12.469 10.6226 12.9912 10.6314C13.323 10.637 13.6215 10.5544 13.8665 10.4275C13.9946 10.5444 14.1248 10.6382 14.2464 10.7084C14.6237 10.9262 15.2391 11.1025 15.9176 10.966C16.6185 10.825 17.3246 10.3628 17.8745 9.41029C18.965 7.52148 18.4078 5.53754 17.9834 4.75753ZM13.2676 9.59574C13.2385 9.52963 13.2117 9.46102 13.1877 9.38994C13.009 8.85951 12.9991 8.22782 13.2672 7.5214C12.5949 7.14324 11.8941 7.10809 11.4792 7.14997C11.4098 7.68818 11.4794 8.54902 12.0981 9.16768C12.4638 9.53339 12.7815 9.62771 13.0081 9.63153C13.1027 9.63312 13.19 9.61913 13.2676 9.59574ZM14.4226 7.41732C15.1663 6.12913 16.467 5.64506 17.2381 5.52668C17.5211 6.25364 17.7522 7.6221 17.0085 8.91029C16.5832 9.64701 16.1044 9.90842 15.7204 9.98568C15.314 10.0674 14.9445 9.95672 14.7464 9.84236C14.5484 9.72799 14.2677 9.4634 14.1354 9.07057C14.0103 8.69936 13.9973 8.15405 14.4226 7.41732Z" fill="#47495F"/>
<path fill-rule="evenodd" clip-rule="evenodd" d="M14.8362 12.6977C15.0542 12.8425 15.1897 13.0501 15.2741 13.279C15.4469 13.748 15.3752 14.1941 15.1219 14.56C15.1202 14.5625 15.1184 14.565 15.1167 14.5675C15.5268 14.4401 15.9189 14.2868 16.2886 14.129C16.5026 14.0377 16.718 13.9406 16.9268 13.8464C17.3203 13.6689 17.6906 13.5018 17.9851 13.4039C18.2129 13.3281 18.4818 13.2609 18.7389 13.2934C18.8778 13.311 19.0249 13.359 19.1576 13.4589C19.291 13.5594 19.3814 13.6911 19.4387 13.8317C19.5643 14.1399 19.4747 14.4501 19.3731 14.6679C19.2649 14.9001 19.0936 15.1358 18.8945 15.3622C18.4935 15.8182 17.9119 16.3128 17.2592 16.767C16.604 17.223 15.8585 17.6515 15.1198 17.9677C14.389 18.2806 13.6275 18.4999 12.9513 18.4999C12.3541 18.5 10.8556 18.3529 9.39045 18.1394C8.65244 18.0319 7.90979 17.9056 7.2795 17.7691C6.66839 17.6367 6.10552 17.4833 5.76732 17.3055C5.60294 17.2191 5.5 17.0487 5.5 16.8629V13.4519C5.5 13.3117 5.55886 13.178 5.66223 13.0832C5.7656 12.9885 5.90398 12.9416 6.04365 12.9538C9.23011 13.233 11.2696 12.9248 12.5772 12.7008C12.6548 12.6875 12.7314 12.6742 12.8066 12.6611C13.3396 12.5683 13.8087 12.4866 14.1673 12.5019C14.3882 12.5113 14.6248 12.5574 14.8362 12.6977ZM6.5 13.993V16.5303C6.73592 16.6116 7.07171 16.7009 7.49119 16.7918C8.09123 16.9217 8.80953 17.0442 9.53464 17.1499C10.9957 17.3627 12.4323 17.5 12.9512 17.4999C13.4336 17.4999 14.0514 17.3374 14.7263 17.0484C15.3932 16.7629 16.0796 16.3697 16.688 15.9463C17.2988 15.5211 17.8123 15.0785 18.1436 14.7018C18.279 14.5478 18.373 14.4171 18.4315 14.3135C18.3945 14.3232 18.3511 14.336 18.3008 14.3527C18.0514 14.4357 17.7648 14.5654 17.4134 14.7244C17.1962 14.8227 16.9542 14.9322 16.681 15.0488C15.3279 15.6262 13.4471 16.2588 11.4144 15.6354C11.1666 15.5595 11.018 15.3068 11.072 15.0533C11.1259 14.7998 11.3647 14.6296 11.6219 14.6611C12.3174 14.7465 13.153 14.6416 13.7372 14.3884C14.0304 14.2613 14.2118 14.1179 14.2997 13.9909C14.3698 13.8895 14.3946 13.7844 14.3358 13.6248C14.3194 13.5804 14.305 13.5567 14.2966 13.5451C14.2892 13.5349 14.285 13.5321 14.2831 13.5308C14.279 13.5281 14.2441 13.5061 14.1247 13.501C13.882 13.4906 13.5343 13.5506 12.9596 13.6497C12.8917 13.6614 12.8205 13.6737 12.746 13.6865C11.465 13.9059 9.49397 14.2037 6.5 13.993ZM18.4999 14.1507C18.5 14.1507 18.4999 14.1512 18.4998 14.1522L18.4999 14.1507Z" fill="#47495F"/>
</svg>
