<svg width="24" height="24" viewBox="0 0 24 24" fill="none" xmlns="http://www.w3.org/2000/svg">
<path d="M7.87411 10.2002C8.56896 8.60983 10.1554 7.5 11.9999 7.5C13.5851 7.5 14.9797 8.31971 15.7815 9.55968L14.495 9.12447C14.2334 9.03598 13.9496 9.17629 13.8611 9.43787C13.7726 9.69945 13.9129 9.98324 14.1745 10.0717L16.5896 10.8887C16.7303 10.9363 16.8849 10.9189 17.0115 10.8412C17.1381 10.7634 17.2235 10.6334 17.2447 10.4864L17.6287 7.82132C17.6681 7.548 17.4784 7.29451 17.2051 7.25513C16.9318 7.21575 16.6783 7.4054 16.6389 7.67872L16.4767 8.80443C15.4795 7.4098 13.8463 6.5 11.9999 6.5C9.74376 6.5 7.80601 7.85836 6.95775 9.79981C6.84719 10.0529 6.9627 10.3476 7.21574 10.4582C7.46879 10.5687 7.76355 10.4532 7.87411 10.2002Z" fill="#47495F"/>
<path d="M7.40999 12.9594C7.26927 12.9118 7.11468 12.9293 6.9881 13.007C6.86152 13.0847 6.77606 13.2147 6.75487 13.3618L6.3709 16.0268C6.33152 16.3001 6.52116 16.5536 6.79448 16.593C7.0678 16.6324 7.3213 16.4427 7.36068 16.1694L7.52288 15.0436C8.52013 16.4382 10.1533 17.348 11.9997 17.348C14.2558 17.348 16.1936 15.9897 17.0418 14.0482C17.1524 13.7952 17.0369 13.5004 16.7838 13.3898C16.5308 13.2793 16.236 13.3948 16.1255 13.6478C15.4306 15.2382 13.8442 16.348 11.9997 16.348C10.4146 16.348 9.02004 15.5284 8.21817 14.2885L9.5046 14.7237C9.76618 14.8122 10.05 14.6719 10.1385 14.4103C10.2269 14.1487 10.0866 13.8649 9.82505 13.7764L7.40999 12.9594Z" fill="#47495F"/>
</svg>
