<svg width="24" height="24" viewBox="0 0 24 24" fill="none" xmlns="http://www.w3.org/2000/svg">
<path fill-rule="evenodd" clip-rule="evenodd" d="M8 9.5C7.81061 9.5 7.63748 9.607 7.55279 9.77639L4.55279 15.7764C4.47529 15.9314 4.48357 16.1155 4.57468 16.2629C4.66578 16.4103 4.82671 16.5 5 16.5H11.5V18.5H11C10.7239 18.5 10.5 18.7239 10.5 19C10.5 19.2761 10.7239 19.5 11 19.5H13C13.2761 19.5 13.5 19.2761 13.5 19C13.5 18.7239 13.2761 18.5 13 18.5H12.5V16.5H17C17.1894 16.5 17.3625 16.393 17.4472 16.2236L20.4472 10.2236C20.5247 10.0686 20.5164 9.88454 20.4253 9.73713C20.3342 9.58973 20.1733 9.5 20 9.5H8ZM12.7501 15.5L15.2501 10.5H12.3682L9.86816 15.5H12.7501ZM5.80902 15.5L8.30902 10.5H11.2501L8.75013 15.5H5.80902ZM16.691 15.5H13.8682L16.3682 10.5H19.191L16.691 15.5Z" fill="#47495F"/>
<path fill-rule="evenodd" clip-rule="evenodd" d="M4.64645 5.64645C4.84171 5.45118 5.15829 5.45118 5.35355 5.64645L6.35355 6.64645C6.54882 6.84171 6.54882 7.15829 6.35355 7.35355C6.15829 7.54882 5.84171 7.54882 5.64645 7.35355L4.64645 6.35355C4.45118 6.15829 4.45118 5.84171 4.64645 5.64645Z" fill="#47495F"/>
<path fill-rule="evenodd" clip-rule="evenodd" d="M5.64645 3.64645C5.84171 3.45118 6.15829 3.45118 6.35355 3.64645L8.85355 6.14645C9.04882 6.34171 9.04882 6.65829 8.85355 6.85355C8.65829 7.04882 8.34171 7.04882 8.14645 6.85355L5.64645 4.35355C5.45118 4.15829 5.45118 3.84171 5.64645 3.64645Z" fill="#47495F"/>
</svg>
