<svg width="24" height="24" viewBox="0 0 24 24" fill="none" xmlns="http://www.w3.org/2000/svg">
<path fill-rule="evenodd" clip-rule="evenodd" d="M12.5002 4C12.5002 3.72386 12.2763 3.5 12.0002 3.5C11.724 3.5 11.5002 3.72386 11.5002 4V8.58535C10.9176 8.79127 10.5002 9.34689 10.5002 10C10.5002 10.0373 10.5015 10.0742 10.5042 10.1108L6.25008 12.567C6.01094 12.705 5.929 13.0108 6.06707 13.25C6.20514 13.4891 6.51094 13.5711 6.75008 13.433L10.9106 11.0309C11.0723 11.2018 11.2738 11.3346 11.5002 11.4146V18.5H11.0002C10.724 18.5 10.5002 18.7239 10.5002 19C10.5002 19.2761 10.724 19.5 11.0002 19.5H13.0002C13.2763 19.5 13.5002 19.2761 13.5002 19C13.5002 18.7239 13.2763 18.5 13.0002 18.5H12.5002V11.4146C12.6983 11.3446 12.8773 11.2341 13.0274 11.0931L17.0802 13.433C17.3194 13.5711 17.6252 13.4892 17.7632 13.25C17.9013 13.0109 17.8194 12.7051 17.5802 12.567L13.4865 10.2035C13.4955 10.137 13.5002 10.069 13.5002 10C13.5002 9.34689 13.0828 8.79127 12.5002 8.58535V4ZM12.0002 9.5C11.724 9.5 11.5002 9.72386 11.5002 10C11.5002 10.2761 11.724 10.5 12.0002 10.5C12.2763 10.5 12.5002 10.2761 12.5002 10C12.5002 9.72386 12.2763 9.5 12.0002 9.5Z" fill="#47495F"/>
</svg>
