<svg width="24" height="24" viewBox="0 0 24 24" fill="none" xmlns="http://www.w3.org/2000/svg">
<path fill-rule="evenodd" clip-rule="evenodd" d="M4 5.5C3.72386 5.5 3.5 5.72386 3.5 6C3.5 6.27614 3.72386 6.5 4 6.5H9.5V9.5C9.5 9.50633 9.50012 9.51264 9.50035 9.51892C6.14396 9.77406 3.5 12.5783 3.5 16V17C3.5 17.2761 3.72386 17.5 4 17.5H15C15.2761 17.5 15.5 17.2761 15.5 17V11C15.5 10.1716 14.8284 9.5 14 9.5H10.5V6.5H20C20.2761 6.5 20.5 6.27614 20.5 6C20.5 5.72386 20.2761 5.5 20 5.5H4ZM10 10.5C6.96243 10.5 4.5 12.9624 4.5 16V16.5H14.5V11C14.5 10.7239 14.2761 10.5 14 10.5H10Z" fill="#47495F"/>
<path fill-rule="evenodd" clip-rule="evenodd" d="M16.5 10C16.5 9.72386 16.7239 9.5 17 9.5H20V10.5H17.5V16.5H20V17.5H17C16.7239 17.5 16.5 17.2761 16.5 17V10Z" fill="#47495F"/>
</svg>
