<svg width="24" height="24" viewBox="0 0 24 24" fill="none" xmlns="http://www.w3.org/2000/svg">
<path fill-rule="evenodd" clip-rule="evenodd" d="M17.1771 18H6.91667C5.58198 18 4.5 16.918 4.5 15.5833C4.5 10.0145 9.01446 5.5 14.5833 5.5H16C17.933 5.5 19.5 7.067 19.5 9V14.7676C20.0978 15.1134 20.5 15.7597 20.5 16.5C20.5 17.6046 19.6046 18.5 18.5 18.5C17.9928 18.5 17.5297 18.3112 17.1771 18ZM5.5 15.5833C5.5 10.5667 9.56675 6.5 14.5833 6.5H16C17.3807 6.5 18.5 7.61929 18.5 9V14.5C17.3954 14.5 16.5 15.3954 16.5 16.5C16.5 16.6726 16.5219 16.8402 16.563 17H6.91667C6.13426 17 5.5 16.3657 5.5 15.5833ZM17.5 16.5C17.5 15.9477 17.9477 15.5 18.5 15.5C19.0523 15.5 19.5 15.9477 19.5 16.5C19.5 17.0523 19.0523 17.5 18.5 17.5C17.9477 17.5 17.5 17.0523 17.5 16.5Z" fill="#47495F"/>
<path fill-rule="evenodd" clip-rule="evenodd" d="M10.4813 11.2883C9.22873 12.5604 8.64649 14.086 8.49419 15.076C8.4522 15.349 8.1969 15.5362 7.92397 15.4942C7.65104 15.4522 7.46382 15.1969 7.50581 14.924C7.68684 13.7473 8.3546 12.0229 9.76872 10.5867C11.1962 9.13689 13.3663 8 16.5 8C16.7761 8 17 8.22386 17 8.5C17 8.77614 16.7761 9 16.5 9C13.6337 9 11.7204 10.0298 10.4813 11.2883Z" fill="#47495F"/>
</svg>
