<svg width="24" height="24" viewBox="0 0 24 24" fill="none" xmlns="http://www.w3.org/2000/svg">
<path fill-rule="evenodd" clip-rule="evenodd" d="M17.5 15C16.9477 15 16.5 15.4477 16.5 16C16.5 16.5523 16.9477 17 17.5 17C18.0523 17 18.5 16.5523 18.5 16C18.5 15.4477 18.0523 15 17.5 15ZM15.5 16C15.5 14.8954 16.3954 14 17.5 14C18.6046 14 19.5 14.8954 19.5 16C19.5 17.1046 18.6046 18 17.5 18C16.3954 18 15.5 17.1046 15.5 16Z" fill="#47495F"/>
<path fill-rule="evenodd" clip-rule="evenodd" d="M15.3846 6.5C10.611 6.5 6.27071 9.11806 4.68131 10.4329C4.48708 10.5936 4.44284 10.8737 4.5781 11.0865C4.71336 11.2992 4.98582 11.378 5.21371 11.2702C5.53118 11.1201 6.10074 11.0869 6.91507 11.21C7.70432 11.3293 8.63234 11.5801 9.5987 11.8977C9.77799 11.9567 9.95802 12.0177 10.1381 12.0804L7.55088 14.298C7.24551 14.1091 6.88549 14 6.5 14C5.39543 14 4.5 14.8954 4.5 16C4.5 17.1046 5.39543 18 6.5 18C7.60457 18 8.5 17.1046 8.5 16C8.5 15.6442 8.40712 15.3102 8.24427 15.0208L11.2162 12.4734C12.5958 12.9971 13.8969 13.5642 14.8001 13.9583C14.8992 14.0015 15.0097 14.0115 15.115 13.9866C19.0291 13.0614 20.2645 10.3477 20.4892 9.2853C20.5371 9.05867 20.4231 8.82878 20.2137 8.72978L15.5983 6.54796C15.5315 6.51638 15.4585 6.5 15.3846 6.5ZM7.06455 10.2212C6.96571 10.2063 6.86705 10.1929 6.76893 10.1814C8.73478 8.963 11.9023 7.53147 15.2735 7.50051L19.401 9.4517C19.0534 10.4094 17.9408 12.2341 15.0449 12.9741C13.7862 12.4252 11.8132 11.573 9.91097 10.9477C8.9206 10.6222 7.93275 10.3525 7.06455 10.2212ZM6.5 15C5.94772 15 5.5 15.4477 5.5 16C5.5 16.5523 5.94772 17 6.5 17C7.05228 17 7.5 16.5523 7.5 16C7.5 15.4477 7.05228 15 6.5 15Z" fill="#47495F"/>
</svg>
