<svg width="24" height="24" viewBox="0 0 24 24" fill="none" xmlns="http://www.w3.org/2000/svg">
<path fill-rule="evenodd" clip-rule="evenodd" d="M11.4999 16.0333H15.5005C15.5183 17.1225 16.4068 18 17.5002 18C18.6048 18 19.5002 17.1046 19.5002 16C19.5002 15.8393 19.4813 15.6831 19.4455 15.5333H19.5002V10C19.5002 9.17157 18.8286 8.5 18.0002 8.5H14.0002C10.4104 8.5 7.50021 11.4101 7.50021 15V16C7.50021 17.1046 8.39564 18 9.50021 18C10.5936 18 11.4821 17.1225 11.4999 16.0333ZM8.55252 14.2383C8.83458 14.0863 9.15732 14 9.50021 14C10.2542 14 10.9107 14.4172 11.2515 15.0333H15.7489C16.0897 14.4172 16.7463 14 17.5002 14C17.8645 14 18.206 14.0974 18.5002 14.2676V10C18.5002 9.72385 18.2764 9.5 18.0002 9.5L14.0002 9.5C11.2211 9.5 8.92338 11.5612 8.55252 14.2383ZM8.50021 16C8.50021 16.5523 8.94792 17 9.50021 17C10.0525 17 10.5002 16.5523 10.5002 16C10.5002 15.4477 10.0525 15 9.50021 15C8.94792 15 8.50021 15.4477 8.50021 16ZM17.5002 17C16.9479 17 16.5002 16.5523 16.5002 16C16.5002 15.4477 16.9479 15 17.5002 15C18.0525 15 18.5002 15.4477 18.5002 16C18.5002 16.5523 18.0525 17 17.5002 17Z" fill="#47495F"/>
<path fill-rule="evenodd" clip-rule="evenodd" d="M7.0345 8.39681C7.15551 8.14556 7.32482 7.9206 7.53277 7.73478C7.74072 7.54897 7.98323 7.40593 8.24645 7.31383C8.50968 7.22173 8.78847 7.18239 9.06691 7.19803C9.34261 7.21353 9.55356 7.44959 9.53806 7.7253C9.52257 8.00101 9.2865 8.21195 9.0108 8.19646C8.86348 8.18818 8.71597 8.209 8.5767 8.25773C8.43742 8.30645 8.30911 8.38214 8.19909 8.48045C8.08906 8.57877 7.99948 8.69779 7.93545 8.83073C7.87143 8.96367 7.83421 9.10791 7.82593 9.25523C7.81044 9.53094 7.57437 9.74188 7.29867 9.72639C7.02296 9.7109 6.81202 9.47483 6.82751 9.19912C6.84316 8.92069 6.91349 8.64806 7.0345 8.39681Z" fill="#47495F"/>
<path fill-rule="evenodd" clip-rule="evenodd" d="M5.08488 7.79858C5.34207 7.20087 5.72068 6.67184 6.19999 6.24354C6.6793 5.81523 7.24742 5.49828 7.87018 5.30968C8.49271 5.12116 9.15593 5.06506 9.82118 5.14107C10.0955 5.17242 10.2925 5.42024 10.2612 5.6946C10.2298 5.96896 9.98201 6.16595 9.70765 6.1346C9.17195 6.07339 8.64633 6.11949 8.16002 6.26676C7.67394 6.41396 7.23492 6.65982 6.86631 6.98921C6.49769 7.31859 6.2042 7.7273 6.00346 8.19383C5.80263 8.66058 5.69793 9.17772 5.69874 9.71691C5.69915 9.99305 5.47562 10.2172 5.19948 10.2177C4.92334 10.2181 4.69915 9.99454 4.69874 9.7184C4.69774 9.04883 4.8278 8.39607 5.08488 7.79858Z" fill="#47495F"/>
</svg>
