<svg width="24" height="24" viewBox="0 0 24 24" fill="none" xmlns="http://www.w3.org/2000/svg">
<path fill-rule="evenodd" clip-rule="evenodd" d="M19.4084 15.4H19.5V8C19.5 7.17157 18.8284 6.5 18 6.5H10C6.96244 6.5 4.5 8.96243 4.5 12V16C4.5 17.1046 5.39543 18 6.5 18C7.60457 18 8.5 17.1046 8.5 16C8.5 15.9665 8.49917 15.9331 8.49754 15.9H15.5025C15.5008 15.9331 15.5 15.9665 15.5 16C15.5 17.1046 16.3954 18 17.5 18C18.6046 18 19.5 17.1046 19.5 16C19.5 15.791 19.4679 15.5894 19.4084 15.4ZM5.5 12L5.5 14.2676C5.79417 14.0974 6.13571 14 6.5 14C7.19821 14 7.81285 14.3578 8.1706 14.9H15.8294C16.1871 14.3578 16.8018 14 17.5 14C17.8643 14 18.2058 14.0974 18.5 14.2676V8C18.5 7.72386 18.2761 7.5 18 7.5L10 7.5C7.51472 7.5 5.5 9.51472 5.5 12ZM6.5 17C5.94772 17 5.5 16.5523 5.5 16C5.5 15.4477 5.94772 15 6.5 15C7.05228 15 7.5 15.4477 7.5 16C7.5 16.5523 7.05228 17 6.5 17ZM16.5 16C16.5 15.4477 16.9477 15 17.5 15C18.0523 15 18.5 15.4477 18.5 16C18.5 16.5523 18.0523 17 17.5 17C16.9477 17 16.5 16.5523 16.5 16Z" fill="#47495F"/>
</svg>
