<svg width="24" height="24" viewBox="0 0 24 24" fill="none" xmlns="http://www.w3.org/2000/svg">
<path fill-rule="evenodd" clip-rule="evenodd" d="M15 5.5C14.7239 5.5 14.5 5.72386 14.5 6V7.5C14.0052 7.4996 13.4247 7.58698 12.9016 7.84821C12.5207 8.03843 12.1638 8.32467 11.9042 8.73975C11.6442 9.15552 11.5 9.6716 11.5 10.2924C11.5 10.9828 11.4991 11.4536 11.4569 11.7966C11.4149 12.1379 11.3425 12.2429 11.29 12.2903C11.2268 12.3474 11.0833 12.4201 10.6845 12.4601C10.3854 12.4901 10.0036 12.4975 9.5 12.4993L9.5 8C9.5 7.17157 8.82843 6.5 8 6.5L4 6.5V7.5L8 7.5C8.27614 7.5 8.5 7.72386 8.5 8L8.5 14.2676C8.20583 14.0974 7.86429 14 7.5 14C6.80179 14 6.18715 14.3578 5.8294 14.9L4 14.9V15.9H5.50246C5.50083 15.9331 5.5 15.9665 5.5 16C5.5 17.1046 6.39543 18 7.5 18C8.60457 18 9.5 17.1046 9.5 16V13.4994C10.0115 13.4976 10.4386 13.4898 10.7843 13.4551C11.2292 13.4105 11.6482 13.314 11.96 13.0327C12.2825 12.7416 12.3976 12.339 12.4494 11.9188C12.5 11.5074 12.5 10.9743 12.5 10.3262L12.5 10.2924C12.5 9.8301 12.6058 9.50383 12.7521 9.26997C12.8987 9.03542 13.1043 8.86475 13.3484 8.74285C13.7051 8.5647 14.1286 8.49955 14.5 8.49987V11C14.5 11.2761 14.7239 11.5 15 11.5H16.5V17H16C15.7239 17 15.5 17.2239 15.5 17.5C15.5 17.7761 15.7239 18 16 18H18C18.2761 18 18.5 17.7761 18.5 17.5C18.5 17.2239 18.2761 17 18 17H17.5V11.5H19C19.2761 11.5 19.5 11.2761 19.5 11V6C19.5 5.72386 19.2761 5.5 19 5.5H15ZM15.5 8.04372V10.5H18.5V6.5H15.5V8.02715C15.5001 8.03266 15.5001 8.03818 15.5 8.04372ZM7.5 15C8.05229 15 8.5 15.4477 8.5 16C8.5 16.5523 8.05229 17 7.5 17C6.94772 17 6.5 16.5523 6.5 16C6.5 15.4477 6.94772 15 7.5 15Z" fill="#47495F"/>
</svg>
