<svg width="24" height="24" viewBox="0 0 24 24" fill="none" xmlns="http://www.w3.org/2000/svg">
<path fill-rule="evenodd" clip-rule="evenodd" d="M4.5 15V16C4.5 17.1046 5.39543 18 6.5 18C7.60457 18 8.5 17.1046 8.5 16C8.5 15.9665 8.49917 15.9331 8.49754 15.9H15.5025C15.5008 15.9331 15.5 15.9665 15.5 16C15.5 17.1046 16.3954 18 17.5 18C18.6046 18 19.5 17.1046 19.5 16V8C19.5 7.17157 18.8284 6.5 18 6.5H13C8.30558 6.5 4.5 10.3056 4.5 15ZM18.5 14.2676V8C18.5 7.72386 18.2761 7.5 18 7.5L13 7.5C9.1122 7.5 5.91531 10.4582 5.53738 14.2465C5.82295 14.0894 6.15104 14 6.5 14C7.19821 14 7.81285 14.3578 8.1706 14.9H15.8294C16.1871 14.3578 16.8018 14 17.5 14C17.8643 14 18.2058 14.0974 18.5 14.2676ZM6.5 15C5.94772 15 5.5 15.4477 5.5 16C5.5 16.5523 5.94772 17 6.5 17C7.05228 17 7.5 16.5523 7.5 16C7.5 15.4477 7.05228 15 6.5 15ZM16.5 16C16.5 15.4477 16.9477 15 17.5 15C18.0523 15 18.5 15.4477 18.5 16C18.5 16.5523 18.0523 17 17.5 17C16.9477 17 16.5 16.5523 16.5 16Z" fill="#47495F"/>
<path fill-rule="evenodd" clip-rule="evenodd" d="M13.2236 9.05279C13.4706 9.17628 13.5707 9.47662 13.4472 9.72361L12.809 11H14C14.1733 11 14.3342 11.0897 14.4253 11.2371C14.5164 11.3845 14.5247 11.5686 14.4472 11.7236L13.4472 13.7236C13.3237 13.9706 13.0234 14.0707 12.7764 13.9472C12.5294 13.8237 12.4293 13.5234 12.5528 13.2764L13.191 12H12C11.8267 12 11.6658 11.9103 11.5747 11.7629C11.4836 11.6155 11.4753 11.4314 11.5528 11.2764L12.5528 9.27639C12.6763 9.0294 12.9766 8.92929 13.2236 9.05279Z" fill="#47495F"/>
</svg>
