<svg width="24" height="24" viewBox="0 0 24 24" fill="none" xmlns="http://www.w3.org/2000/svg">
<path fill-rule="evenodd" clip-rule="evenodd" d="M5.5 18C5.5 17.7239 5.72386 17.5 6 17.5H18C18.2761 17.5 18.5 17.7239 18.5 18C18.5 18.2761 18.2761 18.5 18 18.5H6C5.72386 18.5 5.5 18.2761 5.5 18Z" fill="#47495F"/>
<path fill-rule="evenodd" clip-rule="evenodd" d="M5.5 13C5.5 9.68629 8.18629 7 11.5 7H16C16.8284 7 17.5 7.67157 17.5 8.5V9.5L18.7929 9.5L19.6464 8.64645C19.8417 8.45118 20.1583 8.45118 20.3536 8.64645C20.5488 8.84171 20.5488 9.15829 20.3536 9.35355L19.3541 10.353C19.2636 10.4438 19.1383 10.5 19 10.5L17.5 10.5V13C17.5 13.8284 16.8284 14.5 16 14.5C15.3469 14.5 14.7913 14.0826 14.5854 13.5H8.41465C8.20873 14.0826 7.65311 14.5 7 14.5C6.17157 14.5 5.5 13.8284 5.5 13ZM6.72084 11.5259C7.34991 9.484 9.25165 8 11.5 8L16 8C16.2761 8 16.5 8.22386 16.5 8.5V9.5L12 9.5C11.7239 9.5 11.5 9.72386 11.5 10C11.5 10.2761 11.7239 10.5 12 10.5L16.5 10.5V11.5854C16.3436 11.5301 16.1753 11.5 16 11.5C15.3469 11.5 14.7913 11.9174 14.5854 12.5H8.41465C8.20873 11.9174 7.65311 11.5 7 11.5C6.9046 11.5 6.81129 11.5089 6.72084 11.5259ZM16.5 13C16.5 12.7239 16.2761 12.5 16 12.5C15.7239 12.5 15.5 12.7239 15.5 13C15.5 13.2761 15.7239 13.5 16 13.5C16.2761 13.5 16.5 13.2761 16.5 13ZM6.5 13C6.5 12.7239 6.72386 12.5 7 12.5C7.27614 12.5 7.5 12.7239 7.5 13C7.5 13.2761 7.27614 13.5 7 13.5C6.72386 13.5 6.5 13.2761 6.5 13Z" fill="#47495F"/>
</svg>
