<svg width="24" height="24" viewBox="0 0 24 24" fill="none" xmlns="http://www.w3.org/2000/svg">
<path fill-rule="evenodd" clip-rule="evenodd" d="M15 3.5C15.2761 3.5 15.5 3.72386 15.5 4V7.50002H16C16.8284 7.50002 17.5 8.17159 17.5 9.00002V14.6771C17.8112 15.0297 18 15.4928 18 16C18 17.1046 17.1046 18 16 18C14.8954 18 14 17.1046 14 16C14 15.9665 14.0008 15.9331 14.0025 15.9H9.99754C9.99918 15.9331 10 15.9665 10 16C10 17.1046 9.10457 18 8 18C6.89543 18 6 17.1046 6 16C6 15.4928 6.18882 15.0297 6.5 14.6771V9.00002C6.5 8.1716 7.17157 7.50002 8 7.50002L14.5 7.50002V4C14.5 3.72386 14.7239 3.5 15 3.5ZM7.5 14.063C7.65981 14.0219 7.82735 14 8 14C8.69822 14 9.31287 14.3578 9.67061 14.9H14.3294C14.6871 14.3578 15.3018 14 16 14C16.1726 14 16.3402 14.0219 16.5 14.063V9.00002C16.5 8.72388 16.2761 8.50002 16 8.50002L8 8.50002C7.72386 8.50002 7.5 8.72388 7.5 9.00002L7.5 14.063ZM15 16C15 15.4477 15.4477 15 16 15C16.5523 15 17 15.4477 17 16C17 16.5523 16.5523 17 16 17C15.4477 17 15 16.5523 15 16ZM7 16C7 15.4477 7.44772 15 8 15C8.55228 15 9 15.4477 9 16C9 16.5523 8.55228 17 8 17C7.44772 17 7 16.5523 7 16Z" fill="#47495F"/>
</svg>
