<svg width="24" height="24" viewBox="0 0 24 24" fill="none" xmlns="http://www.w3.org/2000/svg">
<path fill-rule="evenodd" clip-rule="evenodd" d="M7.5 14C7.5 11.5147 9.51472 9.5 12 9.5H20V10.5H12C10.2368 10.5 8.77806 11.8039 8.53544 13.5H20V14.5H8C7.72386 14.5 7.5 14.2761 7.5 14Z" fill="#47495F"/>
<path d="M4 8.5H20V7.5H4V8.5Z" fill="#47495F"/>
<path d="M4 15.5V16.5H5.5V18C5.5 18.2761 5.72386 18.5 6 18.5C6.27614 18.5 6.5 18.2761 6.5 18V16.5H17.5V18C17.5 18.2761 17.7239 18.5 18 18.5C18.2761 18.5 18.5 18.2761 18.5 18V16.5H20V15.5H4Z" fill="#47495F"/>
<path fill-rule="evenodd" clip-rule="evenodd" d="M12.5 12C12.5 11.7239 12.7239 11.5 13 11.5H16C16.2761 11.5 16.5 11.7239 16.5 12C16.5 12.2761 16.2761 12.5 16 12.5H13C12.7239 12.5 12.5 12.2761 12.5 12Z" fill="#47495F"/>
</svg>
