<svg width="24" height="24" viewBox="0 0 24 24" fill="none" xmlns="http://www.w3.org/2000/svg">
<path fill-rule="evenodd" clip-rule="evenodd" d="M13.4998 6.5C13.0648 6.5 12.5767 6.78793 12.1212 7.46882C11.9676 7.69833 11.6571 7.75991 11.4276 7.60636C11.1981 7.4528 11.1365 7.14227 11.2901 6.91276C11.8353 6.09781 12.5892 5.5 13.4998 5.5C14.6196 5.5 15.4988 6.39481 16.0683 7.53375C16.6527 8.7026 16.9998 10.2824 16.9998 12C16.9998 13.7176 16.6527 15.2974 16.0683 16.4662C15.4988 17.6052 14.6196 18.5 13.4998 18.5C12.5892 18.5 11.8353 17.9022 11.2901 17.0872C11.1365 16.8577 11.1981 16.5472 11.4276 16.3936C11.6571 16.2401 11.9676 16.3017 12.1212 16.5312C12.5767 17.2121 13.0648 17.5 13.4998 17.5C14.0368 17.5 14.6576 17.0517 15.1739 16.019L15.1833 16H4C3.72386 16 3.5 15.7761 3.5 15.5V14.5C3.5 10.9101 6.41015 8 10 8H15.1833L15.1739 7.98097C14.6576 6.94833 14.0368 6.5 13.4998 6.5ZM15.9998 12C15.9998 13.1128 15.842 14.1401 15.5766 15H4.5V14.5C4.5 11.4624 6.96243 9 10 9H15.5766C15.673 9.31254 15.7553 9.64718 15.8209 10H9C8.72386 10 8.5 10.2239 8.5 10.5C8.5 10.7761 8.72386 11 9 11H15.9565C15.9848 11.3237 15.9998 11.6578 15.9998 12Z" fill="#47495F"/>
<path fill-rule="evenodd" clip-rule="evenodd" d="M17.5 10C17.5 9.72386 17.7239 9.5 18 9.5H21C21.2761 9.5 21.5 9.72386 21.5 10C21.5 10.2761 21.2761 10.5 21 10.5H18C17.7239 10.5 17.5 10.2761 17.5 10Z" fill="#47495F"/>
<path fill-rule="evenodd" clip-rule="evenodd" d="M17.5 13C17.5 12.7239 17.7239 12.5 18 12.5H19C19.2761 12.5 19.5 12.7239 19.5 13C19.5 13.2761 19.2761 13.5 19 13.5H18C17.7239 13.5 17.5 13.2761 17.5 13Z" fill="#47495F"/>
</svg>
