<svg width="24" height="24" viewBox="0 0 24 24" fill="none" xmlns="http://www.w3.org/2000/svg">
<path fill-rule="evenodd" clip-rule="evenodd" d="M15.5 7.41465C16.0826 7.20873 16.5 6.65311 16.5 6C16.5 5.17157 15.8284 4.5 15 4.5C14.1716 4.5 13.5 5.17157 13.5 6C13.5 6.65311 13.9174 7.20873 14.5 7.41465V9.9901L9.5 10.9901V9.41465C10.0826 9.20873 10.5 8.65311 10.5 8C10.5 7.17157 9.82843 6.5 9 6.5C8.17157 6.5 7.5 7.17157 7.5 8C7.5 8.65311 7.9174 9.20873 8.5 9.41465V11C8.5 11.0647 8.51227 11.1265 8.53462 11.1832L7.70583 11.3489C7.00469 11.4892 6.5 12.1048 6.5 12.8198V14.6771C6.18882 15.0297 6 15.4928 6 16C6 17.1046 6.89543 18 8 18C9.10457 18 10 17.1046 10 16C10 15.8274 9.97812 15.6598 9.93699 15.5H14.063C14.0219 15.6598 14 15.8274 14 16C14 17.1046 14.8954 18 16 18C17.1046 18 18 17.1046 18 16C18 15.4928 17.8112 15.0297 17.5 14.6771V11.2198C17.5 10.2732 16.634 9.5633 15.7058 9.74893L15.5 9.7901V7.41465ZM14.5 6C14.5 5.72386 14.7239 5.5 15 5.5C15.2761 5.5 15.5 5.72386 15.5 6C15.5 6.27614 15.2761 6.5 15 6.5C14.7239 6.5 14.5 6.27614 14.5 6ZM9.5 8C9.5 8.27614 9.27614 8.5 9 8.5C8.72386 8.5 8.5 8.27614 8.5 8C8.5 7.72386 8.72386 7.5 9 7.5C9.27614 7.5 9.5 7.72386 9.5 8ZM7.5 12.8198L7.5 14.063C7.65981 14.0219 7.82735 14 8 14C8.5518 14 9.0514 14.2235 9.41326 14.5848V14.5H14.6771C15.0297 14.1888 15.4928 14 16 14C16.1726 14 16.3402 14.0219 16.5 14.063V11.2198C16.5 10.9043 16.2113 10.6676 15.9019 10.7295L7.90194 12.3295C7.66823 12.3763 7.5 12.5815 7.5 12.8198ZM8 15C7.44772 15 7 15.4477 7 16C7 16.5523 7.44772 17 8 17C8.55228 17 9 16.5523 9 16C9 15.4477 8.55228 15 8 15ZM15 16C15 15.4477 15.4477 15 16 15C16.5523 15 17 15.4477 17 16C17 16.5523 16.5523 17 16 17C15.4477 17 15 16.5523 15 16Z" fill="#47495F"/>
</svg>
