<svg width="24" height="24" viewBox="0 0 24 24" fill="none" xmlns="http://www.w3.org/2000/svg">
<path fill-rule="evenodd" clip-rule="evenodd" d="M4.5 7C4.5 5.61929 5.61929 4.5 7 4.5C8.38071 4.5 9.5 5.61929 9.5 7C9.5 7.50954 9.34756 7.98348 9.0858 8.3787L11.0479 10.3408C11.3069 10.1279 11.6385 10 12 10C12.3615 10 12.6931 10.1279 12.9521 10.3408L14.9142 8.3787C14.6524 7.98348 14.5 7.50954 14.5 7C14.5 5.61929 15.6193 4.5 17 4.5C18.3807 4.5 19.5 5.61929 19.5 7C19.5 8.38071 18.3807 9.5 17 9.5C16.4905 9.5 16.0165 9.34756 15.6213 9.0858L13.476 11.2311C13.4918 11.3184 13.5 11.4082 13.5 11.5V13.2929L15.3388 15.1317C15.7804 14.7387 16.3623 14.5 17 14.5C18.3807 14.5 19.5 15.6193 19.5 17C19.5 18.3807 18.3807 19.5 17 19.5C15.6193 19.5 14.5 18.3807 14.5 17C14.5 16.6163 14.5865 16.2527 14.741 15.9278C14.7073 15.9074 14.6755 15.8826 14.6464 15.8536L12.7929 14H11.2071L9.35355 15.8536C9.32448 15.8826 9.29271 15.9074 9.25905 15.9278C9.41354 16.2527 9.5 16.6163 9.5 17C9.5 18.3807 8.38071 19.5 7 19.5C5.61929 19.5 4.5 18.3807 4.5 17C4.5 15.6193 5.61929 14.5 7 14.5C7.63766 14.5 8.21956 14.7387 8.6612 15.1317L10.5 13.2929V11.5C10.5 11.4082 10.5082 11.3184 10.524 11.2311L8.3787 9.0858C7.98348 9.34756 7.50954 9.5 7 9.5C5.61929 9.5 4.5 8.38071 4.5 7ZM7 5.5C6.17157 5.5 5.5 6.17157 5.5 7C5.5 7.82843 6.17157 8.5 7 8.5C7.82843 8.5 8.5 7.82843 8.5 7C8.5 6.17157 7.82843 5.5 7 5.5ZM7 15.5C6.17157 15.5 5.5 16.1716 5.5 17C5.5 17.8284 6.17157 18.5 7 18.5C7.82843 18.5 8.5 17.8284 8.5 17C8.5 16.1716 7.82843 15.5 7 15.5ZM15.5 17C15.5 16.1716 16.1716 15.5 17 15.5C17.8284 15.5 18.5 16.1716 18.5 17C18.5 17.8284 17.8284 18.5 17 18.5C16.1716 18.5 15.5 17.8284 15.5 17ZM17 5.5C16.1716 5.5 15.5 6.17157 15.5 7C15.5 7.82843 16.1716 8.5 17 8.5C17.8284 8.5 18.5 7.82843 18.5 7C18.5 6.17157 17.8284 5.5 17 5.5ZM12 11C11.7239 11 11.5 11.2239 11.5 11.5V13H12.5V11.5C12.5 11.2239 12.2761 11 12 11Z" fill="#47495F"/>
</svg>
