<svg width="24" height="24" viewBox="0 0 24 24" fill="none" xmlns="http://www.w3.org/2000/svg">
<path fill-rule="evenodd" clip-rule="evenodd" d="M5 7.5C5.27614 7.5 5.5 7.72386 5.5 8V8.5H7C7.27614 8.5 7.5 8.72386 7.5 9C7.5 9.27614 7.27614 9.5 7 9.5H5.5V12.5H8.5V11C8.5 10.1716 9.17157 9.5 10 9.5H14C14.8284 9.5 15.5 10.1716 15.5 11V12.5H18.5V9.5H17C16.7239 9.5 16.5 9.27614 16.5 9C16.5 8.72386 16.7239 8.5 17 8.5H18.5V8C18.5 7.72386 18.7239 7.5 19 7.5C19.2761 7.5 19.5 7.72386 19.5 8V8.5H21C21.2761 8.5 21.5 8.72386 21.5 9C21.5 9.27614 21.2761 9.5 21 9.5H19.5V13C19.5 13.2761 19.2761 13.5 19 13.5H15.5V14C15.5 14.2761 15.2761 14.5 15 14.5H14.5V16C14.5 16.2761 14.2761 16.5 14 16.5H10C9.72386 16.5 9.5 16.2761 9.5 16V14.5H9C8.72386 14.5 8.5 14.2761 8.5 14V13.5H5C4.72386 13.5 4.5 13.2761 4.5 13V9.5H3C2.72386 9.5 2.5 9.27614 2.5 9C2.5 8.72386 2.72386 8.5 3 8.5H4.5V8C4.5 7.72386 4.72386 7.5 5 7.5ZM9.5 13.5V11C9.5 10.7239 9.72386 10.5 10 10.5H14C14.2761 10.5 14.5 10.7239 14.5 11V13.5H9.5ZM13.5 14.5H10.5V15.5H13.5V14.5Z" fill="#47495F"/>
</svg>
