<svg width="24" height="24" viewBox="0 0 24 24" fill="none" xmlns="http://www.w3.org/2000/svg">
<path fill-rule="evenodd" clip-rule="evenodd" d="M5 8.5C5.27614 8.5 5.5 8.72386 5.5 9V9.5H7C7.27614 9.5 7.5 9.72386 7.5 10C7.5 10.2761 7.27614 10.5 7 10.5H5.5V12.5854C5.92849 12.7368 6.26762 13.0774 6.41705 13.5068C6.44403 13.5023 6.47174 13.5 6.5 13.5H8.5V13C8.5 11.6193 9.61929 10.5 11 10.5H13C14.3807 10.5 15.5 11.6193 15.5 13V13.5H17.5C17.5283 13.5 17.556 13.5023 17.583 13.5068C17.7324 13.0774 18.0715 12.7368 18.5 12.5854V10.5H17C16.7239 10.5 16.5 10.2761 16.5 10C16.5 9.72386 16.7239 9.5 17 9.5H18.5V9C18.5 8.72386 18.7239 8.5 19 8.5C19.2761 8.5 19.5 8.72386 19.5 9V9.5H21C21.2761 9.5 21.5 9.72386 21.5 10C21.5 10.2761 21.2761 10.5 21 10.5H19.5V12.5854C20.0826 12.7913 20.5 13.3469 20.5 14C20.5 14.8284 19.8284 15.5 19 15.5C18.3443 15.5 17.7869 15.0793 17.583 14.4932C17.556 14.4977 17.5283 14.5 17.5 14.5H15.5V15C15.5 15.2761 15.2761 15.5 15 15.5H9C8.72386 15.5 8.5 15.2761 8.5 15V14.5H6.5C6.47174 14.5 6.44403 14.4977 6.41705 14.4932C6.21308 15.0793 5.65567 15.5 5 15.5C4.17157 15.5 3.5 14.8284 3.5 14C3.5 13.3469 3.9174 12.7913 4.5 12.5854V10.5H3C2.72386 10.5 2.5 10.2761 2.5 10C2.5 9.72386 2.72386 9.5 3 9.5H4.5V9C4.5 8.72386 4.72386 8.5 5 8.5ZM18.5 14C18.5 13.7239 18.7239 13.5 19 13.5C19.2761 13.5 19.5 13.7239 19.5 14C19.5 14.2761 19.2761 14.5 19 14.5C18.7239 14.5 18.5 14.2761 18.5 14ZM13 11.5C13.8284 11.5 14.5 12.1716 14.5 13V14.5H9.5V13C9.5 12.1716 10.1716 11.5 11 11.5H13ZM4.5 14C4.5 13.7239 4.72386 13.5 5 13.5C5.27614 13.5 5.5 13.7239 5.5 14C5.5 14.2761 5.27614 14.5 5 14.5C4.72386 14.5 4.5 14.2761 4.5 14Z" fill="#47495F"/>
</svg>
