<svg width="24" height="24" viewBox="0 0 24 24" fill="none" xmlns="http://www.w3.org/2000/svg">
<path fill-rule="evenodd" clip-rule="evenodd" d="M14.9114 8.78104C14.6722 8.64297 14.3664 8.72491 14.2284 8.96405C14.0903 9.2032 14.1722 9.509 14.4114 9.64707C14.6505 9.78514 14.9563 9.7032 15.0944 9.46405C15.2325 9.22491 15.1505 8.91911 14.9114 8.78104ZM13.3623 8.46405C13.7765 7.74662 14.6939 7.5008 15.4114 7.91502C16.1288 8.32923 16.3746 9.24662 15.9604 9.96405C15.5462 10.6815 14.6288 10.9273 13.9114 10.5131C13.1939 10.0989 12.9481 9.18149 13.3623 8.46405Z" fill="#47495F"/>
<path fill-rule="evenodd" clip-rule="evenodd" d="M11.9541 7.07446C12.6935 5.08533 15.0441 4.23884 16.8818 5.29989C18.7428 6.37431 19.1679 8.87619 17.7664 10.505L14.3885 14.4307C13.7127 15.2161 12.6331 15.4945 11.676 15.1629L10.225 17.4912L10.6057 17.7443C10.7449 17.8368 10.8287 17.9928 10.8289 18.16L10.8313 19.9628C10.8317 20.2389 10.6081 20.4631 10.332 20.4635C10.0558 20.4638 9.83168 20.2403 9.83131 19.9641L9.82925 18.4289L8.60936 17.618L7.19306 18.2104C6.9383 18.317 6.6454 18.1968 6.53885 17.9421C6.4323 17.6873 6.55245 17.3944 6.8072 17.2878L8.47037 16.5922C8.6246 16.5277 8.80087 16.5446 8.94009 16.6371L9.39181 16.9374L10.815 14.6537C10.0727 13.982 9.78615 12.9071 10.1498 11.9288L11.9541 7.07446ZM16.3818 6.16591C15.0801 5.41436 13.4152 6.01394 12.8915 7.42286L11.0871 12.2772C10.8222 12.9901 11.1325 13.7884 11.8094 14.1351C12.426 14.451 13.1786 14.3036 13.6305 13.7784L17.0084 9.85279C18.0011 8.69906 17.7 6.92694 16.3818 6.16591Z" fill="#47495F"/>
</svg>
