<svg width="24" height="24" viewBox="0 0 24 24" fill="none" xmlns="http://www.w3.org/2000/svg">
<path d="M9.5 12.5C9.77614 12.5 10 12.2761 10 12C10 11.7239 9.77614 11.5 9.5 11.5C9.22386 11.5 9 11.7239 9 12C9 12.2761 9.22386 12.5 9.5 12.5Z" fill="#47495F"/>
<path fill-rule="evenodd" clip-rule="evenodd" d="M12.8146 6.5094L15.297 10.5294C15.9831 10.6672 16.5 11.2732 16.5 12C16.5 12.6531 16.0826 13.2087 15.5 13.4146V14.5H17.1495C17.3718 13.8919 17.5 13.2235 17.5 12.5C17.5 12.2239 17.7239 12 18 12C18.2761 12 18.5 12.2239 18.5 12.5C18.5 13.4449 18.312 14.3145 17.991 15.095C17.9772 15.1668 17.948 15.2332 17.9069 15.2906C17.3189 16.6023 16.3577 17.641 15.3069 18.3561C14.2372 19.084 13.0394 19.5 12 19.5C10.4696 19.5 8.84831 18.6925 7.62113 17.4471C6.38737 16.1951 5.5 14.4493 5.5 12.5C5.5 9.48558 5.9927 7.6545 7.17075 6.62371C8.33316 5.6066 10.0309 5.5 12 5.5C13.1958 5.5 14.2714 5.54298 15.1791 5.78429C15.446 5.85524 15.6048 6.1291 15.5339 6.39597C15.4629 6.66284 15.1891 6.82167 14.9222 6.75072C14.3366 6.59504 13.6411 6.53105 12.8146 6.5094ZM6.5 12.5C6.5 9.51442 7.0073 8.0955 7.82925 7.37629C8.62733 6.67797 9.84732 6.51484 11.7175 6.501L14.2406 10.7062C13.7974 10.9668 13.5 11.4487 13.5 12C13.5 12.6531 13.9174 13.2087 14.5 13.4146V15C14.5 15.2761 14.7239 15.5 15 15.5H16.6721C16.1715 16.3374 15.4872 17.0238 14.7443 17.5293C13.7985 18.173 12.7933 18.5 12 18.5C10.8031 18.5 9.42442 17.8524 8.33342 16.7452C7.24899 15.6448 6.5 14.1406 6.5 12.5ZM15.006 11.5L14.9945 11.5C14.7209 11.503 14.5 11.7257 14.5 12C14.5 12.2761 14.7239 12.5 15 12.5C15.2761 12.5 15.5 12.2761 15.5 12C15.5 11.7258 15.2794 11.5032 15.006 11.5Z" fill="#47495F"/>
</svg>
