<svg width="24" height="24" viewBox="0 0 24 24" fill="none" xmlns="http://www.w3.org/2000/svg">
<path d="M15.2572 9.07121C15.494 9.21328 15.5708 9.52041 15.4287 9.7572L14.3831 11.5H15.5C15.6801 11.5 15.8463 11.5968 15.9351 11.7536C16.0239 11.9104 16.0214 12.1027 15.9287 12.2572L14.4287 14.7572C14.2867 14.994 13.9795 15.0708 13.7428 14.9287C13.506 14.7866 13.4292 14.4795 13.5713 14.2427L14.6169 12.5H13.5C13.3199 12.5 13.1537 12.4031 13.0649 12.2463C12.9761 12.0895 12.9786 11.8972 13.0713 11.7427L14.5713 9.24271C14.7133 9.00592 15.0205 8.92913 15.2572 9.07121Z" fill="#47495F"/>
<path d="M9.5 12.5C9.77614 12.5 10 12.2761 10 12C10 11.7239 9.77614 11.5 9.5 11.5C9.22386 11.5 9 11.7239 9 12C9 12.2761 9.22386 12.5 9.5 12.5Z" fill="#47495F"/>
<path fill-rule="evenodd" clip-rule="evenodd" d="M7.17075 6.62371C8.33316 5.6066 10.0309 5.5 12 5.5C13.9691 5.5 15.6668 5.6066 16.8293 6.62371C18.0073 7.6545 18.5 9.48558 18.5 12.5C18.5 14.661 17.5191 16.4122 16.2329 17.6152C14.9588 18.8068 13.3419 19.5 12 19.5C10.4696 19.5 8.84831 18.6925 7.62113 17.4471C6.38737 16.1951 5.5 14.4493 5.5 12.5C5.5 9.48558 5.9927 7.6545 7.17075 6.62371ZM7.82925 7.37629C7.0073 8.0955 6.5 9.51442 6.5 12.5C6.5 14.1406 7.24899 15.6448 8.33342 16.7452C9.42442 17.8524 10.8031 18.5 12 18.5C13.0352 18.5 14.4182 17.9432 15.5499 16.8848C16.6694 15.8378 17.5 14.339 17.5 12.5C17.5 9.51442 16.9927 8.0955 16.1707 7.37629C15.3332 6.6434 14.0309 6.5 12 6.5C9.96913 6.5 8.66684 6.6434 7.82925 7.37629Z" fill="#47495F"/>
</svg>
