<svg width="24" height="24" viewBox="0 0 24 24" fill="none" xmlns="http://www.w3.org/2000/svg">
<path d="M9.5 12.5C9.77614 12.5 10 12.2761 10 12C10 11.7239 9.77614 11.5 9.5 11.5C9.22386 11.5 9 11.7239 9 12C9 12.2761 9.22386 12.5 9.5 12.5Z" fill="#47495F"/>
<path fill-rule="evenodd" clip-rule="evenodd" d="M12 5.5C10.0309 5.5 8.33316 5.6066 7.17075 6.62371C5.9927 7.6545 5.5 9.48558 5.5 12.5C5.5 14.4493 6.38737 16.1951 7.62113 17.4471C8.84831 18.6925 10.4696 19.5 12 19.5C13.3419 19.5 14.9588 18.8068 16.2329 17.6152C17.5191 16.4122 18.5 14.661 18.5 12.5C18.5 9.48558 18.0073 7.6545 16.8293 6.62371C15.6668 5.6066 13.9691 5.5 12 5.5ZM6.5 12.5C6.5 9.51442 7.0073 8.0955 7.82925 7.37629C8.59597 6.70541 9.75209 6.52849 11.5 6.50335V12C11.5 12.2761 11.7239 12.5 12 12.5H13.5854C13.736 12.9262 14.0738 13.264 14.5 13.4146V17.688C13.6338 18.2229 12.7303 18.5 12 18.5C10.8031 18.5 9.42442 17.8524 8.33342 16.7452C7.24899 15.6448 6.5 14.1406 6.5 12.5ZM12.5 11.5V6.50335C14.2479 6.52849 15.404 6.70541 16.1707 7.37629C16.9927 8.0955 17.5 9.51442 17.5 12.5C17.5 14.339 16.6694 15.8378 15.5499 16.8848C15.5333 16.9003 15.5167 16.9157 15.5 16.931V13.4146C16.0826 13.2087 16.5 12.6531 16.5 12C16.5 11.1716 15.8284 10.5 15 10.5C14.3469 10.5 13.7913 10.9174 13.5854 11.5H12.5ZM15.5 12C15.5 12.2761 15.2761 12.5 15 12.5C14.7239 12.5 14.5 12.2761 14.5 12C14.5 11.7239 14.7239 11.5 15 11.5C15.2761 11.5 15.5 11.7239 15.5 12Z" fill="#47495F"/>
</svg>
