<svg width="24" height="24" viewBox="0 0 24 24" fill="none" xmlns="http://www.w3.org/2000/svg">
<path fill-rule="evenodd" clip-rule="evenodd" d="M15 11.5C14.7239 11.5 14.5 11.7239 14.5 12C14.5 12.2761 14.7239 12.5 15 12.5C15.2761 12.5 15.5 12.2761 15.5 12C15.5 11.7239 15.2761 11.5 15 11.5ZM13.5 12C13.5 11.1716 14.1716 10.5 15 10.5C15.8284 10.5 16.5 11.1716 16.5 12C16.5 12.8284 15.8284 13.5 15 13.5C14.1716 13.5 13.5 12.8284 13.5 12Z" fill="#47495F"/>
<path fill-rule="evenodd" clip-rule="evenodd" d="M9 11.5C8.72386 11.5 8.5 11.7239 8.5 12C8.5 12.2761 8.72386 12.5 9 12.5C9.27614 12.5 9.5 12.2761 9.5 12C9.5 11.7239 9.27614 11.5 9 11.5ZM7.5 12C7.5 11.1716 8.17157 10.5 9 10.5C9.82843 10.5 10.5 11.1716 10.5 12C10.5 12.8284 9.82843 13.5 9 13.5C8.17157 13.5 7.5 12.8284 7.5 12Z" fill="#47495F"/>
<path fill-rule="evenodd" clip-rule="evenodd" d="M14.4556 5.63613C15.6756 5.82194 16.7004 6.25713 17.4102 7.27534C18.1692 8.36416 18.5 10.0302 18.5 12.4999C18.5 14.6609 17.5191 16.4122 16.2329 17.6151C14.9588 18.8067 13.3419 19.4999 12 19.4999C10.4696 19.4999 8.84831 18.6924 7.62113 17.4471C6.38737 16.195 5.5 14.4492 5.5 12.4999C5.5 10.0302 5.83082 8.36416 6.58982 7.27534C7.2996 6.25714 8.32444 5.82194 9.54444 5.63613C9.70705 4.98353 10.2971 4.5 11 4.5H13C13.7029 4.5 14.2929 4.98353 14.4556 5.63613ZM9.5 6.6571C8.53681 6.83212 7.87319 7.18298 7.41018 7.8472C6.83585 8.6711 6.5 10.0707 6.5 12.4999C6.5 14.1405 7.24899 15.6447 8.33342 16.7452C9.42442 17.8524 10.8031 18.4999 12 18.4999C13.0352 18.4999 14.4182 17.9431 15.5499 16.8848C16.6694 15.8377 17.5 14.339 17.5 12.4999C17.5 10.0707 17.1642 8.6711 16.5898 7.8472C16.1268 7.18298 15.4632 6.83212 14.5 6.6571V8C14.5 8.82843 13.8284 9.5 13 9.5H11C10.1716 9.5 9.5 8.82843 9.5 8V6.6571ZM10.5 6C10.5 5.72386 10.7239 5.5 11 5.5H13C13.2761 5.5 13.5 5.72386 13.5 6V8C13.5 8.27614 13.2761 8.5 13 8.5H11C10.7239 8.5 10.5 8.27614 10.5 8V6Z" fill="#47495F"/>
</svg>
