<svg width="24" height="24" viewBox="0 0 24 24" fill="none" xmlns="http://www.w3.org/2000/svg">
<path d="M9.5 11.5C9.77614 11.5 10 11.2761 10 11C10 10.7239 9.77614 10.5 9.5 10.5C9.22386 10.5 9 10.7239 9 11C9 11.2761 9.22386 11.5 9.5 11.5Z" fill="#47495F"/>
<path fill-rule="evenodd" clip-rule="evenodd" d="M15 9.5C14.1716 9.5 13.5 10.1716 13.5 11C13.5 11.8284 14.1716 12.5 15 12.5C15.8284 12.5 16.5 11.8284 16.5 11C16.5 10.1716 15.8284 9.5 15 9.5ZM14.5 11C14.5 10.7239 14.7239 10.5 15 10.5C15.2761 10.5 15.5 10.7239 15.5 11C15.5 11.2761 15.2761 11.5 15 11.5C14.7239 11.5 14.5 11.2761 14.5 11Z" fill="#47495F"/>
<path fill-rule="evenodd" clip-rule="evenodd" d="M11.5 5C11.5 4.72386 11.7239 4.5 12 4.5H14C17.0376 4.5 19.5 6.96243 19.5 10V14C19.5 14.2761 19.2761 14.5 19 14.5H18.1842C17.7488 15.8607 16.9021 17.0394 15.8848 17.907C14.7389 18.8842 13.3359 19.5 12 19.5C10.4696 19.5 8.84831 18.6925 7.62113 17.4471C6.38737 16.1951 5.5 14.4493 5.5 12.5C5.5 9.48558 5.9927 7.6545 7.17075 6.62371C8.23357 5.69375 9.74388 5.52495 11.5 5.50285V5ZM14 14.5H17.1249C16.7289 15.5383 16.0496 16.4522 15.2359 17.1461C14.2224 18.0104 13.0412 18.5 12 18.5C10.8031 18.5 9.42442 17.8524 8.33342 16.7452C7.24899 15.6448 6.5 14.1406 6.5 12.5C6.5 9.51442 7.0073 8.0955 7.82925 7.37629C8.59597 6.70541 9.75209 6.52849 11.5 6.50335V12C11.5 13.3807 12.6193 14.5 14 14.5ZM12.5 5.5V12C12.5 12.8284 13.1716 13.5 14 13.5H18.5V10C18.5 7.51472 16.4853 5.5 14 5.5H12.5Z" fill="#47495F"/>
</svg>
