<svg width="24" height="24" viewBox="0 0 24 24" fill="none" xmlns="http://www.w3.org/2000/svg">
<path fill-rule="evenodd" clip-rule="evenodd" d="M7.62113 17.4471C8.84831 18.6925 10.4696 19.5 12 19.5C13.5304 19.5 15.1517 18.6925 16.3789 17.4471C16.9638 16.8535 17.4709 16.149 17.8424 15.3644C17.9379 15.2746 17.9981 15.1477 18 15.0068C18.3163 14.2315 18.5 13.3868 18.5 12.5C18.5 9.48558 18.0073 7.6545 16.8293 6.62371C15.6668 5.6066 13.9691 5.5 12 5.5C10.0309 5.5 8.33316 5.6066 7.17075 6.62371C5.9927 7.6545 5.5 9.48558 5.5 12.5C5.5 14.4493 6.38737 16.1951 7.62113 17.4471ZM7.82925 7.37629C7.0073 8.0955 6.5 9.51442 6.5 12.5C6.5 14.1406 7.24899 15.6448 8.33342 16.7452C9.27523 17.701 10.4314 18.3143 11.5 18.4642V6.50335C9.75209 6.52849 8.59597 6.70541 7.82925 7.37629ZM17.1249 14.5C17.3643 13.8718 17.5 13.1982 17.5 12.5C17.5 9.51442 16.9927 8.0955 16.1707 7.37629C15.404 6.70541 14.2479 6.52849 12.5 6.50335V11.5H13.5854C13.7913 10.9174 14.3469 10.5 15 10.5C15.8284 10.5 16.5 11.1716 16.5 12C16.5 12.6531 16.0826 13.2087 15.5 13.4146V14.5H17.1249ZM15 12.5C15.2761 12.5 15.5 12.2761 15.5 12C15.5 11.7239 15.2761 11.5 15 11.5C14.7239 11.5 14.5 11.7239 14.5 12C14.5 12.2761 14.7239 12.5 15 12.5ZM14.5 13.4146V15C14.5 15.2761 14.7239 15.5 15 15.5H16.6361C16.362 15.9544 16.0335 16.3729 15.6666 16.7452C14.7248 17.701 13.5686 18.3143 12.5 18.4642V12.5H13.5854C13.736 12.9262 14.0738 13.264 14.5 13.4146Z" fill="#47495F"/>
<path d="M10 12C10 12.2761 9.77614 12.5 9.5 12.5C9.22386 12.5 9 12.2761 9 12C9 11.7239 9.22386 11.5 9.5 11.5C9.77614 11.5 10 11.7239 10 12Z" fill="#47495F"/>
</svg>
