<svg width="24" height="24" viewBox="0 0 24 24" fill="none" xmlns="http://www.w3.org/2000/svg">
<path d="M9.5 12.5C9.77614 12.5 10 12.2761 10 12C10 11.7239 9.77614 11.5 9.5 11.5C9.22386 11.5 9 11.7239 9 12C9 12.2761 9.22386 12.5 9.5 12.5Z" fill="#47495F"/>
<path fill-rule="evenodd" clip-rule="evenodd" d="M17.9909 15.0952C18.3113 14.3168 18.5 13.4478 18.5 12.5C18.5 9.48558 18.0073 7.6545 16.8293 6.62371C15.6668 5.6066 13.9691 5.5 12 5.5C10.0309 5.5 8.33316 5.6066 7.17075 6.62371C5.9927 7.6545 5.5 9.48558 5.5 12.5C5.5 14.4493 6.38737 16.1951 7.62113 17.4471C8.84831 18.6925 10.4696 19.5 12 19.5C13.3419 19.5 14.9588 18.8068 16.2329 17.6152C16.9074 16.9844 17.4979 16.2028 17.907 15.2905C17.9479 15.2332 17.9771 15.167 17.9909 15.0952ZM7.82925 7.37629C7.0073 8.0955 6.5 9.51442 6.5 12.5C6.5 14.1406 7.24899 15.6448 8.33342 16.7452C9.42442 17.8524 10.8031 18.5 12 18.5C13.0352 18.5 14.4182 17.9432 15.5499 16.8848C15.9757 16.4865 16.3598 16.0229 16.6722 15.5H15C14.7239 15.5 14.5 15.2761 14.5 15V13.4146C13.9174 13.2087 13.5 12.6531 13.5 12C13.5 11.3469 13.9174 10.7913 14.5 10.5854V6.65728C13.8221 6.53472 12.9992 6.5 12 6.5C9.96913 6.5 8.66684 6.6434 7.82925 7.37629ZM15.5 6.95155V10.5854C16.0826 10.7913 16.5 11.3469 16.5 12C16.5 12.6531 16.0826 13.2087 15.5 13.4146V14.5H17.1494C17.3722 13.8902 17.5 13.2212 17.5 12.5C17.5 9.51442 16.9927 8.0955 16.1707 7.37629C15.974 7.2041 15.7515 7.06445 15.5 6.95155ZM14.5 12C14.5 11.7239 14.7239 11.5 15 11.5C15.2761 11.5 15.5 11.7239 15.5 12C15.5 12.2761 15.2761 12.5 15 12.5C14.7239 12.5 14.5 12.2761 14.5 12Z" fill="#47495F"/>
</svg>
