<svg width="24" height="24" viewBox="0 0 24 24" fill="none" xmlns="http://www.w3.org/2000/svg">
<path fill-rule="evenodd" clip-rule="evenodd" d="M11.5 8.5C11.2239 8.5 11 8.72386 11 9C11 9.27614 11.2239 9.5 11.5 9.5C11.7761 9.5 12 9.27614 12 9C12 8.72386 11.7761 8.5 11.5 8.5ZM10 9C10 8.17157 10.6716 7.5 11.5 7.5C12.3284 7.5 13 8.17157 13 9C13 9.82843 12.3284 10.5 11.5 10.5C10.6716 10.5 10 9.82843 10 9Z" fill="#47495F"/>
<path fill-rule="evenodd" clip-rule="evenodd" d="M11.5002 4.5C9.33742 4.5 7.6585 6.38615 7.9091 8.53434L8.66009 14.972C8.80848 16.244 9.77702 17.24 11 17.4563V19H7.5C7.22386 19 7 19.2239 7 19.5C7 19.7761 7.22386 20 7.5 20H12.5C12.7761 20 13 19.7761 13 19.5C13 19.2239 12.7761 19 12.5 19H12V17.4563C13.2231 17.2401 14.1918 16.2441 14.3402 14.972L14.7452 11.5H19C19.2761 11.5 19.5 11.2761 19.5 11V7C19.5 6.72386 19.2761 6.5 19 6.5H14.7356C14.1457 5.32259 12.9284 4.5 11.5002 4.5ZM15.0642 7.5C15.1214 7.8328 15.1326 8.18003 15.0912 8.53438L14.8619 10.5H18.5V7.5H15.0642ZM8.90236 8.41847C8.72108 6.86446 9.93562 5.5 11.5002 5.5C13.0647 5.5 14.2793 6.86448 14.098 8.4185L13.3469 14.8562C13.2376 15.7933 12.4436 16.5 11.5001 16.5C10.5566 16.5 9.76268 15.7933 9.65335 14.8561L8.90236 8.41847Z" fill="#47495F"/>
</svg>
