<svg width="24" height="24" viewBox="0 0 24 24" fill="none" xmlns="http://www.w3.org/2000/svg">
<path d="M9 4C9.27614 4 9.5 4.22386 9.5 4.5V6H14.5V4.5C14.5 4.22386 14.7239 4 15 4C15.2761 4 15.5 4.22386 15.5 4.5V6.5C15.5 6.77614 15.2761 7 15 7H12.5V8C12.5 8.27614 12.2761 8.5 12 8.5C11.7239 8.5 11.5 8.27614 11.5 8V7H9C8.72386 7 8.5 6.77614 8.5 6.5V4.5C8.5 4.22386 8.72386 4 9 4Z" fill="#47495F"/>
<path d="M8 13.9685C8 12.0912 8.25275 11.0348 8.66435 10.4254C9.04686 9.85908 9.62347 9.60055 10.5553 9.49694L10.4447 8.50306C9.37653 8.62184 8.45314 8.95147 7.83565 9.86572C7.24725 10.7369 7 12.0536 7 13.9685C7 15.5069 7.67835 16.8839 8.62131 17.8716C9.55694 18.8516 10.8048 19.5 12 19.5C13.0501 19.5 14.2938 18.9434 15.2658 18.0051C16.2505 17.0546 17 15.672 17 13.9685C17 12.0536 16.7528 10.7369 16.1643 9.86572C15.5469 8.95147 14.6235 8.62184 13.5553 8.50306L13.4447 9.49694C14.3765 9.60055 14.9531 9.85908 15.3357 10.4254C15.7472 11.0348 16 12.0912 16 13.9685C16 15.3613 15.3909 16.4944 14.5713 17.2856C13.739 18.089 12.7327 18.5 12 18.5C11.1498 18.5 10.1476 18.0221 9.3446 17.181C8.54892 16.3476 8 15.2089 8 13.9685Z" fill="#47495F"/>
<path d="M10 14C10.2761 14 10.5 13.7761 10.5 13.5C10.5 13.2239 10.2761 13 10 13C9.72386 13 9.5 13.2239 9.5 13.5C9.5 13.7761 9.72386 14 10 14Z" fill="#47495F"/>
<path d="M14 14C14.2761 14 14.5 13.7761 14.5 13.5C14.5 13.2239 14.2761 13 14 13C13.7239 13 13.5 13.2239 13.5 13.5C13.5 13.7761 13.7239 14 14 14Z" fill="#47495F"/>
</svg>
